<svg xmlns="http://www.w3.org/2000/svg" width="26" height="17" viewBox="0 0 26 17">
  <metadata><?xpacket begin="﻿" id="W5M0MpCehiHzreSzNTczkc9d"?>
<x:xmpmeta xmlns:x="adobe:ns:meta/" x:xmptk="Adobe XMP Core 5.6-c138 79.159824, 2016/09/14-01:09:01        ">
   <rdf:RDF xmlns:rdf="http://www.w3.org/1999/02/22-rdf-syntax-ns#">
      <rdf:Description rdf:about=""/>
   </rdf:RDF>
</x:xmpmeta>
                                                                                                    
                                                                                                    
                                                                                                    
                                                                                                    
                                                                                                    
                                                                                                    
                                                                                                    
                                                                                                    
                                                                                                    
                                                                                                    
                                                                                                    
                                                                                                    
                                                                                                    
                                                                                                    
                                                                                                    
                                                                                                    
                                                                                                    
                                                                                                    
                                                                                                    
                                                                                                    
                           
<?xpacket end="w"?></metadata>
<defs>
    <style>
      .cls-1 {
        fill: #fff;
        fill-rule: evenodd;
      }
    </style>
  </defs>
  <path id="Forma_1" data-name="Forma 1" class="cls-1" d="M165,420.154a2.125,2.125,0,0,0-.569-1.437c-0.006-.007-0.008-0.016-0.014-0.024s-0.014-.009-0.02-0.016a2.186,2.186,0,0,0-1.582-.677h-21.63a2.19,2.19,0,0,0-1.583.677c-0.006.007-.014,0.009-0.02,0.017a0.183,0.183,0,0,0-.013.024,2.118,2.118,0,0,0-.569,1.436v12.692a2.123,2.123,0,0,0,.593,1.465c0.007,0.008.01,0.018,0.018,0.026a0.055,0.055,0,0,0,.008.006,2.193,2.193,0,0,0,1.566.657h21.63a2.192,2.192,0,0,0,1.566-.658l0.008,0a0.22,0.22,0,0,0,.017-0.025,2.12,2.12,0,0,0,.594-1.466V420.154h0Zm-8.51,5.675,7.492-6.2a1.231,1.231,0,0,1,.117.521v12.692a1.25,1.25,0,0,1-.095.475Zm6.325-6.941a1.29,1.29,0,0,1,.528.115L152,428.383,140.657,419a1.29,1.29,0,0,1,.528-0.115h21.63ZM140,433.321a1.254,1.254,0,0,1-.095-0.475V420.154a1.231,1.231,0,0,1,.117-0.521l7.492,6.2Zm1.189,0.791a1.276,1.276,0,0,1-.575-0.141l7.593-7.57,3.508,2.9a0.45,0.45,0,0,0,.578,0l3.508-2.9,7.593,7.57a1.276,1.276,0,0,1-.575.141h-21.63Z" transform="translate(-139 -418)"/>
</svg>
