<svg xmlns="http://www.w3.org/2000/svg" width="6.06" height="10.97" viewBox="0 0 6.06 10.97">
  <metadata><?xpacket begin="﻿" id="W5M0MpCehiHzreSzNTczkc9d"?>
<x:xmpmeta xmlns:x="adobe:ns:meta/" x:xmptk="Adobe XMP Core 5.6-c138 79.159824, 2016/09/14-01:09:01        ">
   <rdf:RDF xmlns:rdf="http://www.w3.org/1999/02/22-rdf-syntax-ns#">
      <rdf:Description rdf:about=""/>
   </rdf:RDF>
</x:xmpmeta>
                                                                                                    
                                                                                                    
                                                                                                    
                                                                                                    
                                                                                                    
                                                                                                    
                                                                                                    
                                                                                                    
                                                                                                    
                                                                                                    
                                                                                                    
                                                                                                    
                                                                                                    
                                                                                                    
                                                                                                    
                                                                                                    
                                                                                                    
                                                                                                    
                                                                                                    
                                                                                                    
                           
<?xpacket end="w"?></metadata>
<defs>
    <style>
      .cls-1 {
        fill: #272727;
        fill-rule: evenodd;
      }
    </style>
  </defs>
  <path id="Forma_1" data-name="Forma 1" class="cls-1" d="M1265.23,4065.25h-1.45a2.523,2.523,0,0,0-2.69,2.7v1.24h-1.46a0.224,0.224,0,0,0-.23.22v1.81a0.224,0.224,0,0,0,.23.22h1.46v4.54a0.226,0.226,0,0,0,.23.23h1.9a0.226,0.226,0,0,0,.23-0.23v-4.54h1.71a0.231,0.231,0,0,0,.23-0.22v-1.81a0.213,0.213,0,0,0-.07-0.15,0.2,0.2,0,0,0-.16-0.07h-1.71v-1.05a0.645,0.645,0,0,1,.8-0.77h0.98a0.231,0.231,0,0,0,.23-0.22v-1.67A0.233,0.233,0,0,0,1265.23,4065.25Z" transform="translate(-1259.41 -4065.25)"/>
</svg>
