<svg xmlns="http://www.w3.org/2000/svg" width="21" height="29" viewBox="0 0 21 29">
  <metadata><?xpacket begin="﻿" id="W5M0MpCehiHzreSzNTczkc9d"?>
<x:xmpmeta xmlns:x="adobe:ns:meta/" x:xmptk="Adobe XMP Core 5.6-c138 79.159824, 2016/09/14-01:09:01        ">
   <rdf:RDF xmlns:rdf="http://www.w3.org/1999/02/22-rdf-syntax-ns#">
      <rdf:Description rdf:about=""/>
   </rdf:RDF>
</x:xmpmeta>
                                                                                                    
                                                                                                    
                                                                                                    
                                                                                                    
                                                                                                    
                                                                                                    
                                                                                                    
                                                                                                    
                                                                                                    
                                                                                                    
                                                                                                    
                                                                                                    
                                                                                                    
                                                                                                    
                                                                                                    
                                                                                                    
                                                                                                    
                                                                                                    
                                                                                                    
                                                                                                    
                           
<?xpacket end="w"?></metadata>
<defs>
    <style>
      .cls-1 {
        fill: #fff;
        fill-rule: evenodd;
      }
    </style>
  </defs>
  <path id="Forma_1" data-name="Forma 1" class="cls-1" d="M151.6,475.356a3.709,3.709,0,1,0,3.832,3.707A3.777,3.777,0,0,0,151.6,475.356Zm0,6.355a2.649,2.649,0,1,1,2.737-2.648A2.7,2.7,0,0,1,151.6,481.711Zm7.327-9.735a10.755,10.755,0,0,0-14.849,0,11.273,11.273,0,0,0-.987,14.272L151.5,498l8.4-11.732A11.279,11.279,0,0,0,158.924,471.976Zm0.087,13.67L151.5,496.137l-7.524-10.508a10.187,10.187,0,0,1,.874-12.9,9.632,9.632,0,0,1,13.3,0A10.189,10.189,0,0,1,159.011,485.646Z" transform="translate(-141 -469)"/>
</svg>
