<svg id="Группа_1" data-name="Группа 1" xmlns="http://www.w3.org/2000/svg" width="23" height="124" viewBox="0 0 23 124">
  <defs>
    <style>
      .cls-1 {
        fill: #b0966c;
        fill-rule: evenodd;
      }
    </style>
  </defs>
  <path class="cls-1" d="M682.5,693A11.594,11.594,0,0,0,671,704.661V716.34a11.5,11.5,0,1,0,23,0V704.661A11.594,11.594,0,0,0,682.5,693Zm10.223,23.34a10.223,10.223,0,1,1-20.445,0V704.661a10.223,10.223,0,1,1,20.445,0V716.34ZM682.5,696.888a0.644,0.644,0,0,0-.639.649v5.869a0.639,0.639,0,1,0,1.278,0v-5.869A0.644,0.644,0,0,0,682.5,696.888Z" transform="translate(-671 -693)"/>
  <path class="cls-1" d="M683,817h-1V728h1v89Z" transform="translate(-671 -693)"/>
</svg>
