<svg xmlns="http://www.w3.org/2000/svg" width="26" height="26" viewBox="0 0 26 26">
  <metadata><?xpacket begin="﻿" id="W5M0MpCehiHzreSzNTczkc9d"?>
<x:xmpmeta xmlns:x="adobe:ns:meta/" x:xmptk="Adobe XMP Core 5.6-c138 79.159824, 2016/09/14-01:09:01        ">
   <rdf:RDF xmlns:rdf="http://www.w3.org/1999/02/22-rdf-syntax-ns#">
      <rdf:Description rdf:about=""/>
   </rdf:RDF>
</x:xmpmeta>
                                                                                                    
                                                                                                    
                                                                                                    
                                                                                                    
                                                                                                    
                                                                                                    
                                                                                                    
                                                                                                    
                                                                                                    
                                                                                                    
                                                                                                    
                                                                                                    
                                                                                                    
                                                                                                    
                                                                                                    
                                                                                                    
                                                                                                    
                                                                                                    
                                                                                                    
                                                                                                    
                           
<?xpacket end="w"?></metadata>
<defs>
    <style>
      .cls-1 {
        fill: #fff;
        fill-rule: evenodd;
      }
    </style>
  </defs>
  <path id="Forma_1" data-name="Forma 1" class="cls-1" d="M159.889,385.012a11.173,11.173,0,0,1-3.822-.813,31.8,31.8,0,0,1-16.249-16.271c-1.082-2.865-1.084-5.218-.009-6.294,0.155-.156.314-0.322,0.476-0.492,0.982-1.033,2.117-2.206,3.56-2.142a4.268,4.268,0,0,1,3,1.923c2.968,3.7,1.63,5.015.082,6.542l-0.275.272c-0.253.253-.733,1.428,3.724,5.889a24.809,24.809,0,0,0,3.685,3.167c0.625,0.406,1.74,1.019,2.2.561l0.275-.278c1.524-1.549,2.84-2.884,6.532.086a4.266,4.266,0,0,1,1.921,3c0.061,1.472-1.111,2.585-2.144,3.567-0.169.162-.335,0.318-0.489,0.473A3.411,3.411,0,0,1,159.889,385.012Zm-16.148-25.141c-1.044,0-1.987.994-2.822,1.873-0.169.176-.332,0.349-0.492,0.509-0.8.8-.719,2.908,0.208,5.367a30.946,30.946,0,0,0,15.741,15.76c2.457,0.929,4.561,1.009,5.362.207,0.16-.159.33-0.322,0.5-0.488,0.9-.855,1.917-1.823,1.873-2.9a3.535,3.535,0,0,0-1.6-2.358c-3.076-2.474-3.936-1.6-5.362-.154l-0.28.283c-0.679.683-1.786,0.534-3.291-.446a25.636,25.636,0,0,1-3.827-3.283h0c-3.7-3.7-4.882-5.966-3.724-7.127l0.279-.276c1.449-1.428,2.323-2.29-.149-5.37a3.543,3.543,0,0,0-2.357-1.6Zm16.3,9.877a0.436,0.436,0,0,1-.4-0.6,3.677,3.677,0,0,0-4.918-4.734,0.437,0.437,0,1,1-.36-0.8,4.55,4.55,0,0,1,6.087,5.859A0.438,0.438,0,0,1,160.042,369.748Zm3.9,1.586a0.451,0.451,0,0,1-.164-0.032,0.436,0.436,0,0,1-.241-0.569,7.889,7.889,0,0,0-10.554-10.161,0.438,0.438,0,0,1-.36-0.8,8.764,8.764,0,0,1,11.724,11.288A0.438,0.438,0,0,1,163.944,371.334Z" transform="translate(-139 -359)"/>
</svg>
