<svg xmlns="http://www.w3.org/2000/svg" width="60" height="60" viewBox="0 0 60 60">
  <defs>
    <style>
      .cls-1 {
        fill: #b89d73;
        fill-rule: evenodd;
      }
    </style>
  </defs>
  <path id="Forma_1" data-name="Forma 1" class="cls-1" d="M574.563,4127.17l-22-15a1,1,0,0,0-1.031-.05,0.991,0.991,0,0,0-.532.88v30a0.99,0.99,0,0,0,.533.88,0.972,0.972,0,0,0,.467.12,1.038,1.038,0,0,0,.563-0.17l22-15A1.007,1.007,0,0,0,574.563,4127.17ZM553,4141.11v-26.22L572.225,4128Zm6-43.11a30,30,0,1,0,30,30A30.035,30.035,0,0,0,559,4098Zm0,58a28,28,0,1,1,28-28A28.031,28.031,0,0,1,559,4156Z" transform="translate(-529 -4098)"/>
</svg>
