<svg xmlns="http://www.w3.org/2000/svg" width="25" height="25" viewBox="0 0 25 25">
  <metadata><?xpacket begin="﻿" id="W5M0MpCehiHzreSzNTczkc9d"?>
<x:xmpmeta xmlns:x="adobe:ns:meta/" x:xmptk="Adobe XMP Core 5.6-c138 79.159824, 2016/09/14-01:09:01        ">
   <rdf:RDF xmlns:rdf="http://www.w3.org/1999/02/22-rdf-syntax-ns#">
      <rdf:Description rdf:about=""/>
   </rdf:RDF>
</x:xmpmeta>
                                                                                                    
                                                                                                    
                                                                                                    
                                                                                                    
                                                                                                    
                                                                                                    
                                                                                                    
                                                                                                    
                                                                                                    
                                                                                                    
                                                                                                    
                                                                                                    
                                                                                                    
                                                                                                    
                                                                                                    
                                                                                                    
                                                                                                    
                                                                                                    
                                                                                                    
                                                                                                    
                           
<?xpacket end="w"?></metadata>
<defs>
    <style>
      .cls-1 {
        fill: #fff;
        fill-rule: evenodd;
      }
    </style>
  </defs>
  <path id="Forma_1" data-name="Forma 1" class="cls-1" d="M152.5,526a12.5,12.5,0,1,1-8.833,3.661A12.5,12.5,0,0,1,152.5,526h0Zm6.373,11.818a0.682,0.682,0,0,1,0,1.364H152.5a0.683,0.683,0,0,1-.586-0.345l-0.009-.01h0l-0.01-.02h0V538.8h0l-0.01-.02h0l-0.009-.019h0v-0.01h0l-0.01-.019h0l-0.01-.01h0V538.7h0l-0.01-.019h0v-0.01h0l-0.009-.019h0v-0.02h0v-0.019l-0.01-.01h0v-0.019h0v-0.02h0v-0.017h0v-0.009h0v-0.02h0V538.5h0v-8.138a0.668,0.668,0,0,1,.673-0.672,0.676,0.676,0,0,1,.682.672v7.456h5.691Zm1.509-7.2a11.131,11.131,0,1,0,3.268,7.878,11.107,11.107,0,0,0-3.268-7.878h0Z" transform="translate(-140 -526)"/>
</svg>
