<svg id="Группа_1" data-name="Группа 1" xmlns="http://www.w3.org/2000/svg" width="37" height="37" viewBox="0 0 37 37">
  <metadata><?xpacket begin="﻿" id="W5M0MpCehiHzreSzNTczkc9d"?>
<x:xmpmeta xmlns:x="adobe:ns:meta/" x:xmptk="Adobe XMP Core 5.6-c138 79.159824, 2016/09/14-01:09:01        ">
   <rdf:RDF xmlns:rdf="http://www.w3.org/1999/02/22-rdf-syntax-ns#">
      <rdf:Description rdf:about=""/>
   </rdf:RDF>
</x:xmpmeta>
                                                                                                    
                                                                                                    
                                                                                                    
                                                                                                    
                                                                                                    
                                                                                                    
                                                                                                    
                                                                                                    
                                                                                                    
                                                                                                    
                                                                                                    
                                                                                                    
                                                                                                    
                                                                                                    
                                                                                                    
                                                                                                    
                                                                                                    
                                                                                                    
                                                                                                    
                                                                                                    
                           
<?xpacket end="w"?></metadata>
<defs>
    <style>
      .cls-1 {
        fill: #b0966c;
      }

      .cls-1, .cls-2 {
        fill-rule: evenodd;
      }

      .cls-2 {
        fill: #ffdda5;
      }
    </style>
  </defs>
  <path id="Forma_1" data-name="Forma 1" class="cls-1" d="M12.351,13A0.64,0.64,0,0,0,13,12.373V0.627A0.64,0.64,0,0,0,12.351,0H9.27a0.64,0.64,0,0,0-.649.626V12.373A0.64,0.64,0,0,0,9.27,13h3.081ZM3.73,13a0.64,0.64,0,0,0,.649-0.627V0.627A0.64,0.64,0,0,0,3.73,0H0.649A0.64,0.64,0,0,0,0,.627V12.373A0.64,0.64,0,0,0,.649,13H3.73Z"/>
  <path id="Forma_1-2" data-name="Forma 1" class="cls-1" d="M32.75,8.453A4.08,4.08,0,0,0,30.389,4.7V6.763L32.75,9.111V8.453Zm2.361,0a7.018,7.018,0,0,1-.472,2.442L36.056,12.3A7.869,7.869,0,0,0,37,8.359,8.478,8.478,0,0,0,30.389.094V2.066A6.773,6.773,0,0,1,35.111,8.453ZM21.228,0L20,1.221l4.439,4.414H20v5.635h3.778l4.722,4.7V9.674l4.061,4.039a7.906,7.906,0,0,1-2.172,1.127v1.972a8.079,8.079,0,0,0,3.495-1.69L35.772,17,37,15.779,28.5,7.326ZM28.5,0.939L26.517,2.911,28.5,4.884V0.939Z"/>
  <path id="Forma_1-3" data-name="Forma 1" class="cls-2" d="M12.351,33A0.64,0.64,0,0,0,13,32.373V20.627A0.64,0.64,0,0,0,12.351,20H9.27a0.64,0.64,0,0,0-.649.626V32.373A0.64,0.64,0,0,0,9.27,33h3.081ZM3.73,33a0.64,0.64,0,0,0,.649-0.627V20.627A0.64,0.64,0,0,0,3.73,20H0.649A0.64,0.64,0,0,0,0,20.627V32.373A0.64,0.64,0,0,0,.649,33H3.73Z"/>
  <path id="Forma_1-4" data-name="Forma 1" class="cls-2" d="M32.75,28.453A4.078,4.078,0,0,0,30.389,24.7v2.066L32.75,29.11V28.453Zm2.361,0a7.018,7.018,0,0,1-.472,2.442L36.056,32.3A7.867,7.867,0,0,0,37,28.359a8.478,8.478,0,0,0-6.611-8.265v1.972A6.773,6.773,0,0,1,35.111,28.453ZM21.228,20L20,21.221l4.439,4.414H20v5.636h3.778l4.722,4.7V29.674l4.061,4.038a7.906,7.906,0,0,1-2.172,1.127v1.972a8.081,8.081,0,0,0,3.495-1.691L35.772,37,37,35.779l-8.5-8.453ZM28.5,20.94l-1.983,1.972L28.5,24.884V20.94Z"/>
</svg>
