<svg xmlns="http://www.w3.org/2000/svg" width="14.12" height="7.25" viewBox="0 0 14.12 7.25">
  <metadata><?xpacket begin="﻿" id="W5M0MpCehiHzreSzNTczkc9d"?>
<x:xmpmeta xmlns:x="adobe:ns:meta/" x:xmptk="Adobe XMP Core 5.6-c138 79.159824, 2016/09/14-01:09:01        ">
   <rdf:RDF xmlns:rdf="http://www.w3.org/1999/02/22-rdf-syntax-ns#">
      <rdf:Description rdf:about=""/>
   </rdf:RDF>
</x:xmpmeta>
                                                                                                    
                                                                                                    
                                                                                                    
                                                                                                    
                                                                                                    
                                                                                                    
                                                                                                    
                                                                                                    
                                                                                                    
                                                                                                    
                                                                                                    
                                                                                                    
                                                                                                    
                                                                                                    
                                                                                                    
                                                                                                    
                                                                                                    
                                                                                                    
                                                                                                    
                                                                                                    
                           
<?xpacket end="w"?></metadata>
<defs>
    <style>
      .cls-1 {
        fill: #272727;
        fill-rule: evenodd;
      }
    </style>
  </defs>
  <path id="Forma_1" data-name="Forma 1" class="cls-1" d="M1316.94,4074.22a0.594,0.594,0,0,0-.04-0.08,7.025,7.025,0,0,0-1.41-1.46l-0.01-.01-0.01-.01-0.01-.01h-0.01c-0.31-.27-0.51-0.45-0.59-0.54a0.471,0.471,0,0,1-.11-0.53,4.683,4.683,0,0,1,.67-0.87c0.2-.23.36-0.42,0.48-0.56,0.84-1.01,1.21-1.66,1.1-1.94l-0.04-.07a0.449,0.449,0,0,0-.23-0.1,1.182,1.182,0,0,0-.47-0.02l-2.12.01a0.266,0.266,0,0,0-.15.01c-0.06.01-.1,0.02-0.1,0.02l-0.03.01-0.03.02a0.251,0.251,0,0,0-.08.07,0.36,0.36,0,0,0-.08.12,10.9,10.9,0,0,1-.78,1.48c-0.19.27-.35,0.51-0.51,0.71a2.661,2.661,0,0,1-.38.44,1.778,1.778,0,0,1-.28.23,0.249,0.249,0,0,1-.19.07,0.5,0.5,0,0,1-.12-0.02,0.523,0.523,0,0,1-.17-0.16,0.663,0.663,0,0,1-.08-0.26,1.39,1.39,0,0,1-.03-0.27v-0.32c0.01-.13.01-0.22,0.01-0.27,0-.17,0-0.35.01-0.55s0.02-.35.02-0.46,0.01-.24.01-0.37a1.262,1.262,0,0,0-.03-0.3,0.6,0.6,0,0,0-.08-0.21,0.332,0.332,0,0,0-.15-0.16,1.543,1.543,0,0,0-.24-0.09,5.376,5.376,0,0,0-1-.08,5.167,5.167,0,0,0-1.76.16,1.259,1.259,0,0,0-.28.19c-0.08.1-.1,0.15-0.03,0.16a0.93,0.93,0,0,1,.62.29l0.05,0.08a1.129,1.129,0,0,1,.1.3,2.413,2.413,0,0,1,.07.48,5.71,5.71,0,0,1,0,.83c-0.03.23-.05,0.4-0.07,0.53a1.026,1.026,0,0,1-.1.31q-0.075.12-.09,0.15a0.078,0.078,0,0,1-.04.03,0.645,0.645,0,0,1-.2.03,0.542,0.542,0,0,1-.25-0.09,2.086,2.086,0,0,1-.3-0.25,2.838,2.838,0,0,1-.36-0.46,7.6,7.6,0,0,1-.41-0.68l-0.12-.19q-0.1-.2-0.3-0.54c-0.13-.24-0.24-0.46-0.34-0.68a0.441,0.441,0,0,0-.18-0.22l-0.03-.02c-0.03-.01-0.07-0.03-0.12-0.05a0.471,0.471,0,0,0-.17-0.04l-2.02.01a0.586,0.586,0,0,0-.42.12l-0.03.04a0.309,0.309,0,0,0-.02.11,0.493,0.493,0,0,0,.05.18,17.989,17.989,0,0,0,.96,1.79c0.34,0.58.64,1.04,0.9,1.4s0.51,0.68.78,0.99a6.284,6.284,0,0,0,.53.6,1.846,1.846,0,0,0,.2.2l0.18,0.16a4.174,4.174,0,0,0,.52.38c0.23,0.15.48,0.29,0.76,0.44a5.2,5.2,0,0,0,.97.35,3.565,3.565,0,0,0,1.07.1h0.85a0.628,0.628,0,0,0,.39-0.14l0.03-.03a0.32,0.32,0,0,0,.05-0.13,0.484,0.484,0,0,0,.03-0.18,1.637,1.637,0,0,1,.05-0.51,0.942,0.942,0,0,1,.12-0.34,1.08,1.08,0,0,1,.16-0.2,0.866,0.866,0,0,1,.12-0.09,0.163,0.163,0,0,0,.06-0.03,0.517,0.517,0,0,1,.42.11,2.271,2.271,0,0,1,.45.38c0.14,0.15.31,0.32,0.5,0.51a3.178,3.178,0,0,0,.52.42l0.14,0.08a1.874,1.874,0,0,0,.39.15,0.984,0.984,0,0,0,.41.03l1.88-.03a0.887,0.887,0,0,0,.44-0.08,0.314,0.314,0,0,0,.18-0.18,0.537,0.537,0,0,0,.01-0.22A0.6,0.6,0,0,0,1316.94,4074.22Z" transform="translate(-1302.88 -4067.69)"/>
</svg>
