<svg id="Группа_1" data-name="Группа 1" xmlns="http://www.w3.org/2000/svg" width="94" height="32" viewBox="0 0 94 32">
  <metadata><?xpacket begin="﻿" id="W5M0MpCehiHzreSzNTczkc9d"?>
<x:xmpmeta xmlns:x="adobe:ns:meta/" x:xmptk="Adobe XMP Core 5.6-c138 79.159824, 2016/09/14-01:09:01        ">
   <rdf:RDF xmlns:rdf="http://www.w3.org/1999/02/22-rdf-syntax-ns#">
      <rdf:Description rdf:about=""/>
   </rdf:RDF>
</x:xmpmeta>
                                                                                                    
                                                                                                    
                                                                                                    
                                                                                                    
                                                                                                    
                                                                                                    
                                                                                                    
                                                                                                    
                                                                                                    
                                                                                                    
                                                                                                    
                                                                                                    
                                                                                                    
                                                                                                    
                                                                                                    
                                                                                                    
                                                                                                    
                                                                                                    
                                                                                                    
                                                                                                    
                           
<?xpacket end="w"?></metadata>
<defs>
    <style>
      .cls-1 {
        fill: #9c8561;
      }

      .cls-1, .cls-2 {
        fill-rule: evenodd;
      }

      .cls-2 {
        fill: #ffdda5;
      }
    </style>
  </defs>
  <path class="cls-1" d="M44.207,2.747C42.547,0.8,39.481,0,33.626,0H12.373C6.385,0,3.267.847,1.613,2.924,0,4.95,0,7.934,0,12.064v7.872C0,27.938,1.914,32,12.373,32H33.626c5.077,0,7.891-.7,9.711-2.424C45.2,27.81,46,24.927,46,19.936V12.064C46,7.708,45.875,4.706,44.207,2.747ZM29.532,17.087l-9.651,4.986a1.5,1.5,0,0,1-1.456-.045,1.463,1.463,0,0,1-.715-1.254v-9.94a1.464,1.464,0,0,1,.713-1.254,1.5,1.5,0,0,1,1.454-.048l9.651,4.954A1.459,1.459,0,0,1,29.532,17.087Z"/>
  <path class="cls-2" d="M92.207,2.747C90.547,0.8,87.481,0,81.626,0H60.373c-5.989,0-9.106.847-10.761,2.925C48,4.95,48,7.934,48,12.064v7.872C48,27.938,49.914,32,60.373,32H81.626c5.077,0,7.891-.7,9.711-2.424C93.2,27.81,94,24.927,94,19.936V12.064C94,7.708,93.875,4.706,92.207,2.747ZM77.532,17.087l-9.651,4.986a1.5,1.5,0,0,1-1.456-.045,1.464,1.464,0,0,1-.715-1.254v-9.94a1.464,1.464,0,0,1,.713-1.254,1.5,1.5,0,0,1,1.454-.048l9.651,4.954A1.459,1.459,0,0,1,77.532,17.087Z"/>
</svg>
