<svg xmlns="http://www.w3.org/2000/svg" width="46" height="32" viewBox="0 0 46 32">
  <metadata><?xpacket begin="﻿" id="W5M0MpCehiHzreSzNTczkc9d"?>
<x:xmpmeta xmlns:x="adobe:ns:meta/" x:xmptk="Adobe XMP Core 5.6-c138 79.159824, 2016/09/14-01:09:01        ">
   <rdf:RDF xmlns:rdf="http://www.w3.org/1999/02/22-rdf-syntax-ns#">
      <rdf:Description rdf:about=""/>
   </rdf:RDF>
</x:xmpmeta>
                                                                                                    
                                                                                                    
                                                                                                    
                                                                                                    
                                                                                                    
                                                                                                    
                                                                                                    
                                                                                                    
                                                                                                    
                                                                                                    
                                                                                                    
                                                                                                    
                                                                                                    
                                                                                                    
                                                                                                    
                                                                                                    
                                                                                                    
                                                                                                    
                                                                                                    
                                                                                                    
                           
<?xpacket end="w"?></metadata>
<defs>
    <style>
      .cls-1 {
        fill: #9c8561;
        fill-rule: evenodd;
      }
    </style>
  </defs>
  <path class="cls-1" d="M1168.21,3295.75c-1.66-1.95-4.73-2.75-10.58-2.75h-21.26c-5.99,0-9.1.85-10.76,2.92-1.61,2.03-1.61,5.01-1.61,9.14v7.88c0,8,1.91,12.06,12.37,12.06h21.26c5.07,0,7.89-.7,9.71-2.42,1.86-1.77,2.66-4.65,2.66-9.64v-7.88C1170,3300.71,1169.88,3297.71,1168.21,3295.75Zm-14.68,14.34-9.65,4.98a1.5,1.5,0,0,1-.69.17,1.477,1.477,0,0,1-.76-0.21,1.46,1.46,0,0,1-.72-1.26v-9.94a1.469,1.469,0,0,1,.71-1.25,1.516,1.516,0,0,1,1.46-.05l9.65,4.96a1.456,1.456,0,0,1,.8,1.29A1.486,1.486,0,0,1,1153.53,3310.09Z" transform="translate(-1124 -3293)"/>
</svg>
