<svg xmlns="http://www.w3.org/2000/svg" width="46" height="32" viewBox="0 0 46 32">
  <metadata><?xpacket begin="﻿" id="W5M0MpCehiHzreSzNTczkc9d"?>
<x:xmpmeta xmlns:x="adobe:ns:meta/" x:xmptk="Adobe XMP Core 5.6-c138 79.159824, 2016/09/14-01:09:01        ">
   <rdf:RDF xmlns:rdf="http://www.w3.org/1999/02/22-rdf-syntax-ns#">
      <rdf:Description rdf:about=""/>
   </rdf:RDF>
</x:xmpmeta>
                                                                                                    
                                                                                                    
                                                                                                    
                                                                                                    
                                                                                                    
                                                                                                    
                                                                                                    
                                                                                                    
                                                                                                    
                                                                                                    
                                                                                                    
                                                                                                    
                                                                                                    
                                                                                                    
                                                                                                    
                                                                                                    
                                                                                                    
                                                                                                    
                                                                                                    
                                                                                                    
                           
<?xpacket end="w"?></metadata>
<defs>
    <style>
      .cls-1 {
        fill: #ffdda5;
        fill-rule: evenodd;
      }
    </style>
  </defs>
  <path class="cls-1" d="M460.207,1022.75c-1.66-1.95-4.726-2.75-10.581-2.75H428.373c-5.988,0-9.106.85-10.76,2.92-1.613,2.03-1.613,5.01-1.613,9.14v7.88c0,8,1.914,12.06,12.373,12.06h21.253c5.078,0,7.891-.7,9.711-2.42,1.867-1.77,2.663-4.65,2.663-9.64v-7.88C462,1027.71,461.875,1024.71,460.207,1022.75Zm-14.675,14.34-9.651,4.98a1.494,1.494,0,0,1-1.456-.04,1.469,1.469,0,0,1-.715-1.26v-9.94a1.466,1.466,0,0,1,.714-1.25,1.5,1.5,0,0,1,1.454-.05l9.651,4.96a1.456,1.456,0,0,1,.8,1.29A1.483,1.483,0,0,1,445.532,1037.09Z" transform="translate(-416 -1020)"/>
</svg>
