<?xml version="1.0" encoding="utf-8"?>
<!-- Generator: Adobe Illustrator 16.0.0, SVG Export Plug-In . SVG Version: 6.00 Build 0)  -->
<!DOCTYPE svg PUBLIC "-//W3C//DTD SVG 1.1//EN" "http://www.w3.org/Graphics/SVG/1.1/DTD/svg11.dtd">
<svg version="1.1" id="Layer_1" xmlns="http://www.w3.org/2000/svg" xmlns:xlink="http://www.w3.org/1999/xlink" x="0px" y="0px"
	 width="407.457px" height="430.574px" viewBox="0 0 407.457 430.574" enable-background="new 0 0 407.457 430.574"
	 xml:space="preserve">
<g>
	<path fill="#004F5F" d="M307.542,169.57c-6.8,24.1-13.101,30.8-17.9,31.2c-4.5,28.5-27.3,64.8-63,77.701
		c-14.899,5.399-31.2,5.3-46.1,0.1c-36.3-12.8-58.4-49.2-62.8-77.8c-4.8-0.4-11.1-7.1-18-31.1c-9.3-32.9,0.6-37.8,9-37
		c-1.6-4.5-2.8-9-3.6-13.5c-3-15.39-5.04-36.15-1.45-49.85c0.01-0.01,0.01-0.02,0.01-0.02C110.112,30.21,152.542,0,203.941,0
		c39.83,0,74.271,18.14,90.73,44.49c0.02,0.01,0.03,0.03,0.03,0.05c2.149,3.42,3.979,6.98,5.479,10.66
		c2.561,6.83,4.38,15.57,4.79,26.76c0.391,10.2-0.39,22.44-2.83,37.11c-0.8,4.4-2,9-3.6,13.5
		C306.941,131.77,316.842,136.67,307.542,169.57"/>
	<path fill="#004F5F" d="M300.182,55.2c-1.5-3.68-3.33-7.24-5.479-10.66C296.712,47.44,298.592,50.95,300.182,55.2"/>
	<path fill="#004F5F" d="M402.746,430.574c2.2-13,4.399-42.5,4.399-42.5c1.4-21.7-0.399-65.7-38.5-75.4
		c-51.1-13-92.6-42.199-92.6-42.199l-32.4,102.5l-6.1,19.3l-0.1-0.3l-5.301,16.399"/>
	<path fill="#004F5F" d="M175.346,408.374l-5.3-16.399l-0.1,0.3l-6.1-19.3l-32.5-102.5c0,0-41.5,29.199-92.6,42.199
		c-38.1,9.7-39.9,53.7-38.4,75.4c0,0,2.2,29.5,4.4,42.5"/>
	<path fill="#004F5F" d="M232.146,408.374l-17.1-48.5c42-58.6-8.5-58-11.3-57.899c-2.8-0.101-53.3-0.7-11.3,57.899l-17.1,48.5"/>
	<path fill="#004F5F" d="M305.021,79.59c0,0.79-0.01,1.59-0.05,2.37c-0.41-11.19-2.229-19.93-4.79-26.76
		C303.322,62.88,305.021,71.08,305.021,79.59"/>
</g>
</svg>
