<?xml version="1.0" encoding="utf-8"?>
<!-- Generator: Adobe Illustrator 16.0.0, SVG Export Plug-In . SVG Version: 6.00 Build 0)  -->
<!DOCTYPE svg PUBLIC "-//W3C//DTD SVG 1.1//EN" "http://www.w3.org/Graphics/SVG/1.1/DTD/svg11.dtd">
<svg version="1.1" id="Layer_1" xmlns="http://www.w3.org/2000/svg" xmlns:xlink="http://www.w3.org/1999/xlink" x="0px" y="0px"
	 width="60.005px" height="57.005px" viewBox="0 0 60.005 57.005" enable-background="new 0 0 60.005 57.005" xml:space="preserve">
<g>
	<path d="M26.199,45.024c-0.546-0.104-1.069,0.24-1.18,0.781c-1.116,5.502-5.445,9.199-10.771,9.199c-5.028,0-9.446-3.3-10.948-8H8
		v-2H0v8h2v-3.849c2.169,4.681,6.915,7.849,12.249,7.849c6.304,0,11.42-4.341,12.731-10.801
		C27.09,45.663,26.74,45.135,26.199,45.024"/>
	<path d="M26,37.313c-2.25-4.453-6.704-7.309-11.751-7.309c-6.109,0-11.541,3.997-13.209,9.721c-0.154,0.53,0.15,1.085,0.681,1.239
		c0.529,0.155,1.085-0.15,1.239-0.681c1.398-4.797,6.146-8.279,11.289-8.279c4.565,0,8.562,2.766,10.33,7H20v2h8v-8h-2V37.313z"/>
	<path d="M59.427,40.91c-2.008-3.796-8.979-7.912-9.287-8.092c-1.277-0.728-2.599-0.957-3.723-0.646
		c-0.844,0.233-1.531,0.767-1.994,1.545c-1.02,1.22-2.285,2.646-2.592,2.867c-2.371,1.604-4.252,1.414-6.295-0.629L24.05,24.469
		c-2.045-2.045-2.233-3.928-0.631-6.292c0.224-0.31,1.649-1.575,2.869-2.595c0.778-0.464,1.312-1.151,1.546-1.996
		c0.311-1.123,0.081-2.444-0.653-3.731c-0.173-0.296-4.289-7.269-8.085-9.276C17.173-0.44,14.841-0.092,13.3,1.451l-2.536,2.536
		C4.73,10.02,4.532,17.39,10.19,25.301c0.321,0.449,0.945,0.552,1.396,0.231c0.449-0.321,0.553-0.946,0.231-1.396
		C6.661,16.927,6.779,10.798,12.177,5.4l2.536-2.536c0.918-0.916,2.304-1.123,3.446-0.519c3.294,1.743,7.256,8.453,7.289,8.51
		c0.449,0.787,0.62,1.608,0.457,2.196c-0.1,0.36-0.323,0.634-0.684,0.836l-0.15,0.104c-0.853,0.712-2.883,2.434-3.308,3.062
		c-0.612,0.904-1.018,1.793-1.231,2.666c-0.711-1.418-1.286-3.061-1.475-4.881c-0.058-0.548-0.547-0.947-1.099-0.892
		c-0.549,0.058-0.948,0.549-0.892,1.099c0.722,6.953,6.13,11.479,6.359,11.668c0.026,0.021,0.056,0.029,0.083,0.047l10.61,10.61
		c0.044,0.044,0.089,0.083,0.134,0.126c0.036,0.052,0.059,0.11,0.106,0.157c0.188,0.187,4.703,4.566,11.599,5.282
		c0.035,0.003,0.07,0.005,0.104,0.005c0.507,0,0.94-0.383,0.994-0.896c0.058-0.55-0.343-1.041-0.892-1.099
		c-2.115-0.22-3.989-0.841-5.55-1.56c0.766-0.229,1.545-0.612,2.334-1.146c0.628-0.426,2.35-2.455,3.062-3.309l0.104-0.15
		c0.202-0.359,0.475-0.583,0.835-0.684c0.587-0.164,1.409,0.008,2.187,0.45c1.879,1.103,7.072,4.559,8.521,7.296
		c0.604,1.146,0.396,2.529-0.52,3.445L54.6,47.827c-5.394,5.392-11.79,5.445-19.016,0.159c-0.447-0.329-1.073-0.23-1.397,0.216
		c-0.325,0.445-0.229,1.07,0.217,1.396c3.935,2.88,7.732,4.317,11.306,4.317c3.718,0,7.189-1.561,10.306-4.676l2.537-2.537
		C60.096,45.164,60.446,42.835,59.427,40.91"/>
</g>
</svg>
