<?xml version="1.0" encoding="utf-8"?>
<!-- Generator: Adobe Illustrator 16.0.0, SVG Export Plug-In . SVG Version: 6.00 Build 0)  -->
<!DOCTYPE svg PUBLIC "-//W3C//DTD SVG 1.1//EN" "http://www.w3.org/Graphics/SVG/1.1/DTD/svg11.dtd">
<svg version="1.1" id="Layer_1" xmlns="http://www.w3.org/2000/svg" xmlns:xlink="http://www.w3.org/1999/xlink" x="0px" y="0px"
	 width="838.202px" height="883.698px" viewBox="0 0 838.202 883.698" enable-background="new 0 0 838.202 883.698"
	 xml:space="preserve">
<g opacity="0.6">
	<path fill="#161616" d="M625.199,719.399c0,6.301-1.101,12.399-3.199,18.101c8.6-2.3,18.4-5.899,28-11.5
		c33.801-19.3,53.1-54.2,57.4-104c1.198-13.7,7.399-26.5,17.6-35.8c10.199-9.4,23.4-14.5,37.199-14.5h0.301h7.4l0.198-26.7
		c0.101-13.899-11.1-25.2-25-25.2H681.3c-13.701,0-24.899,11.101-25,24.801L656,590c0.801,46.8-12.199,76.2-30.699,94.5
		L625.199,719.399z"/>
	<path fill="#161616" d="M813.699,602.101L769.9,601.8h-7.4h-0.199c-13,0-23.801,9.9-24.899,22.9
		c-12.4,143.5-132.5,147.199-144.9,147.199h-1l-217.3-0.301c-6.6,0-12-5.398-12-12.1v-3.8c0-6.602,5.4-11.9,12-11.9l195.899,0.3
		c13.701,0,24.9-11.1,25-24.898l0.101-14.801l0.201-40.8c0.1-13.801-11-25.101-24.9-25.101l-97.1-0.601
		c-8.802-0.101-17.5-2.399-25.101-6.899c-24.301-14.3-86.801-46.2-162.801-46.2c-36.3,0-75.699,7.301-115.5,27.2l-33.7,0.2
		c1,4.1,1.5,8.399,1.5,12.899l0.2,214.899c0,3.899-0.4,7.7-1.2,11.399h108.4c13.9,0,27.7,1.301,41.3,3.899l53.4,10.101
		c60.5,11.5,121.901,17.399,183.5,17.801l81.399,0.5c0,0,217.199-10.2,233.299-254.9C839.4,614.399,828.099,602.2,813.699,602.101"
		/>
	<path fill="#161616" d="M104.6,612.3c-3.7-6.199-9.9-10.6-17.3-11.899c-1.4-0.199-2.8-0.399-4.3-0.399H72.3H25
		c-13.8,0-25,11.2-25,25L0.2,839.9c0,13.801,11.2,25,25,25h48h10c1.7,0,3.4-0.199,5-0.5c7.5-1.5,13.8-6.5,17.2-13.199
		c1.7-3.4,2.7-7.301,2.7-11.4l-0.2-214.899C108.1,620.399,106.799,616,104.6,612.3"/>
	<path fill="#161616" d="M591.699,184.8V30c0-16.6-13.398-30-30-30h-36.5c-16.601,0-30,13.4-30,30v58.3l-70.601-70.6
		c-9.799-9.8-25.6-9.8-35.399,0l-237.5,237.5c-12.6,12.6-3.7,34.1,14.1,34.1h32.3c13.8,0,25,11.2,25,25v193.5
		c0,13.801,11.2,25,25,25h53.3c13.8,0,25-11.199,25-25v-86c0-13.8,11.2-25,25-25h111c13.799,0,25,11.2,25,25v86.1
		c0,13.801,11.198,25,24.999,25h53.3c13.801,0,25-11.199,25-25V314.4c0-13.8,11.2-25,25-25h32.301c17.801,0,26.699-21.5,14.1-34.1
		L591.699,184.8z"/>
</g>
</svg>
