<?xml version="1.0" encoding="utf-8"?>
<!-- Generator: Adobe Illustrator 16.0.0, SVG Export Plug-In . SVG Version: 6.00 Build 0)  -->
<!DOCTYPE svg PUBLIC "-//W3C//DTD SVG 1.1//EN" "http://www.w3.org/Graphics/SVG/1.1/DTD/svg11.dtd">
<svg version="1.1" id="Layer_1" xmlns="http://www.w3.org/2000/svg" xmlns:xlink="http://www.w3.org/1999/xlink" x="0px" y="0px"
	 width="403.602px" height="403.602px" viewBox="0 0 403.602 403.602" enable-background="new 0 0 403.602 403.602"
	 xml:space="preserve">
<g>
	<path d="M236.658,378.561c-0.4-6.17-3.181-11.815-7.827-15.896c-4.648-4.085-10.601-6.109-16.779-5.705
		c-3.399,0.219-6.847,0.33-10.251,0.33c-17.842,0-35.324-2.99-51.959-8.888c-2.492-0.884-5.086-1.332-7.711-1.332
		c-9.799,0-18.579,6.197-21.85,15.42c-2.064,5.831-1.737,12.117,0.924,17.699c2.658,5.584,7.333,9.796,13.165,11.862
		c21.625,7.665,44.313,11.551,67.431,11.551c4.393,0,8.851-0.146,13.25-0.432C227.792,402.343,237.484,391.304,236.658,378.561
		 M223.435,388.743c-2.321,2.643-5.527,4.223-9.03,4.45c-4.177,0.271-8.417,0.409-12.604,0.409
		c-21.986,0-43.548-3.691-64.088-10.973c-3.307-1.173-5.962-3.567-7.476-6.742c-1.514-3.177-1.702-6.747-0.529-10.054
		c1.86-5.239,6.847-8.76,12.41-8.76c1.488,0,2.961,0.253,4.379,0.752c21.157,7.504,43.433,10.567,66.21,9.114
		c3.507-0.228,6.878,0.916,9.525,3.238c2.641,2.318,4.221,5.526,4.449,9.032C226.908,382.714,225.756,386.1,223.435,388.743"/>
	<path d="M96.159,315.89c-15.634-14.482-27.928-31.654-36.541-51.038c-3.71-8.354-12.032-13.752-21.2-13.752
		c-3.235,0-6.384,0.67-9.362,1.991c-11.665,5.182-16.94,18.893-11.759,30.563c11.179,25.162,27.124,47.438,47.39,66.21
		c4.293,3.979,9.881,6.171,15.735,6.171c6.43,0,12.621-2.703,16.986-7.417C106.082,339.252,105.523,324.571,96.159,315.89
		 M90.076,341.82L90.076,341.82c-2.52,2.719-5.948,4.216-9.654,4.216c-3.322,0-6.495-1.243-8.936-3.5
		c-19.277-17.861-34.433-39.038-45.048-62.943c-1.426-3.207-1.519-6.78-0.259-10.063c1.268-3.284,3.732-5.875,6.939-7.299
		c1.687-0.749,3.479-1.129,5.327-1.129c5.203,0,9.927,3.067,12.035,7.814c9.167,20.63,22.251,38.903,38.887,54.313
		C94.685,328.161,95.002,336.5,90.076,341.82"/>
	<path d="M23.13,178.646c-6.186,0.006-11.998,2.42-16.365,6.798c-4.369,4.382-6.772,10.2-6.765,16.381
		c0,0.742,0.004,1.478,0.012,2.221c0.138,12.634,10.524,22.912,23.152,22.912h0.272c6.163-0.067,11.949-2.539,16.275-6.958
		c4.328-4.422,6.675-10.265,6.609-16.45c-0.006-0.426-0.008-0.857-0.009-1.291l-0.002-0.472
		C46.295,189.025,35.896,178.646,23.13,178.646 M32.57,213c-2.458,2.515-5.751,3.919-9.274,3.954h-0.006
		c-7.281,0-13.202-5.834-13.278-13.006C10.004,203.239,10,202.523,10,201.81c-0.005-3.511,1.361-6.815,3.847-9.301
		c2.475-2.486,5.78-3.859,9.305-3.863c7.248,0,13.151,5.895,13.16,13.14c0,0.621,0,1.238,0.011,1.848
		C36.36,207.167,35.027,210.488,32.57,213"/>
	<path d="M357.156,330.6c29.951-36.086,46.445-81.827,46.445-128.799c0-53.904-20.991-104.581-59.105-142.696
		C306.377,20.991,255.7,0,201.801,0c-28.025,0-55.167,5.644-80.67,16.777c-15.748,6.872-30.565,15.739-44.04,26.353l-2.047,1.612
		l-9.288-8.883c-5.051-4.83-12.072-6.544-18.777-4.584c-6.706,1.956-11.699,7.178-13.357,13.968l-16.16,66.199
		c-1.657,6.786,0.368,13.721,5.417,18.55c3.628,3.471,8.336,5.383,13.259,5.383c1.85,0,3.704-0.268,5.513-0.798l65.415-19.098
		c6.709-1.957,11.703-7.177,13.36-13.964c1.661-6.786-0.365-13.722-5.417-18.554l-6.17-5.899l2.949-2.106
		c26.253-18.741,57.379-28.647,90.014-28.647c85.736,0,155.488,69.753,155.488,155.492c0,36.191-12.703,71.431-35.77,99.224
		c-13.611,16.404-30.096,29.623-48.992,39.29c-5.504,2.817-9.582,7.611-11.484,13.498c-1.902,5.886-1.398,12.159,1.42,17.664
		c3.98,7.777,11.885,12.609,20.627,12.609c3.64,0,7.283-0.88,10.535-2.545C318.146,368.993,339.521,351.854,357.156,330.6
		 M110.71,99.146c-0.387,1.574-1.787,5.377-6.446,6.734l-65.416,19.098c-0.901,0.263-1.807,0.397-2.694,0.397
		c-3.161,0-5.343-1.633-6.363-2.607c-1.17-1.118-3.767-4.228-2.617-8.951l16.162-66.204c1.149-4.718,4.888-6.284,6.443-6.738
		c0.58-0.173,1.525-0.383,2.689-0.383c2.394,0,4.599,0.897,6.374,2.593l49.253,47.101C111.616,93.553,111.096,97.574,110.71,99.146
		 M289.07,372.639c-1.885,0.963-3.896,1.451-5.98,1.451c-4.972,0-9.465-2.747-11.727-7.17c-1.601-3.13-1.886-6.693-0.803-10.035
		c1.077-3.343,3.395-6.065,6.523-7.666c20.113-10.293,37.653-24.358,52.131-41.807c24.555-29.588,38.078-67.095,38.078-105.611
		c0-91.253-74.239-165.492-165.492-165.492c-35.823,0-69.792,11.154-98.236,32.256l-2.033,1.508L82.322,51.701l2.771-2.13
		c12.296-9.452,25.767-17.402,40.039-23.63C149.364,15.364,175.16,10,201.801,10c51.232,0,99.397,19.952,135.621,56.18
		c36.228,36.223,56.18,84.388,56.18,135.621c0,44.639-15.676,88.113-44.141,122.416C332.691,344.422,312.373,360.713,289.07,372.639
		"/>
	<path d="M61.941,80.689c0.344-1.291,0.166-2.637-0.503-3.792c-0.669-1.157-1.748-1.982-3.038-2.325
		c-0.427-0.114-0.864-0.172-1.299-0.172c-0.869,0-1.731,0.233-2.494,0.675c-1.157,0.669-1.982,1.748-2.325,3.037l-0.001,0.001
		l-4.113,15.415c-0.343,1.289-0.164,2.636,0.505,3.791c0.67,1.156,1.749,1.981,3.039,2.325c0.424,0.115,0.857,0.172,1.295,0.172
		c2.258,0,4.241-1.527,4.824-3.713L61.941,80.689z"/>
</g>
</svg>
