<?xml version="1.0" encoding="utf-8"?>
<!-- Generator: Adobe Illustrator 16.0.0, SVG Export Plug-In . SVG Version: 6.00 Build 0)  -->
<!DOCTYPE svg PUBLIC "-//W3C//DTD SVG 1.1//EN" "http://www.w3.org/Graphics/SVG/1.1/DTD/svg11.dtd">
<svg version="1.1" id="Layer_1" xmlns="http://www.w3.org/2000/svg" xmlns:xlink="http://www.w3.org/1999/xlink" x="0px" y="0px"
	 width="511.82px" height="511.595px" viewBox="0 0 511.82 511.595" enable-background="new 0 0 511.82 511.595"
	 xml:space="preserve">
<g>
	<path fill="#447070" d="M412.239,405.5c34.632-4.354,60.428-34.899,56.672-71.453c-3.202-31.168-29.494-55.257-61.787-56.701
		c-30.493-1.364-58.372,20.746-64.391,51.738c-1.341,6.904-1.475,14.356-0.475,21.314c0.998,6.945,3.323,13.992,6.526,20.246
		c3.129,6.108,7.471,11.938,12.443,16.668c5.097,4.849,11.256,8.922,17.59,12.033c6.146,3.02,13.104,4.386,19.393,6.379
		c-60.82,3.576-101.217,57.556-98.921,105.87h212.513C512.796,456.738,468.353,409.664,412.239,405.5"/>
	<path fill="#447070" d="M312.582,393.189c-0.586-1.127-1.858-3.107-2.68-5.26c-1.272-3.334-3.548-4.029-6.931-4.025
		C211.021,384,119.07,383.991,27.119,384c-1.779,0-3.559,0-5.52,0v42.741c2.328,0,4.285,0,6.242,0.001
		c48.808,0.013,97.615,0.033,146.422,0.036c34.648,0.001,69.297,0.005,103.944-0.105c1.956-0.007,4.575-0.43,5.758-1.704
		C293.444,414.756,302.651,404.292,312.582,393.189"/>
	<rect x="64.237" y="192.231" fill="#447070" width="63.52" height="170.191"/>
	<rect x="192.272" y="192.195" fill="#447070" width="63.462" height="170.207"/>
	<path fill="#447070" d="M383.654,236.88v-44.498h-63.379v85.201C337.174,256.095,358.096,242.572,383.654,236.88"/>
	<path fill="#447070" d="M228,0c6.074,3.365,12.33,6.443,18.195,10.139c63.114,39.774,126.169,79.642,189.233,119.494
		c9.811,6.199,14.065,14.488,12.193,23.584c-2.271,11.035-10.853,17.533-23.373,17.548c-28.498,0.034-56.996,0.017-85.494,0.014
		c-103.827-0.011-207.654-0.132-311.481,0.097C14.132,170.905,4.658,166.802,0,154v-9c2.591-7.85,8.221-12.771,15.08-17.082
		C78.092,88.319,140.969,48.506,203.936,8.836C209.098,5.584,214.636,2.931,220,0H228z"/>
	<path fill="#447070" d="M412.239,405.5c56.113,4.163,100.557,51.237,99.563,106.095H299.29
		c-2.296-48.314,38.101-102.294,98.921-105.87c-6.289-1.993-13.247-3.359-19.393-6.379c-6.334-3.111-12.493-7.185-17.59-12.033
		c-4.973-4.73-9.314-10.56-12.443-16.668c-3.203-6.254-5.528-13.301-6.526-20.246c-1-6.958-0.866-14.41,0.475-21.314
		c6.019-30.992,33.897-53.103,64.391-51.738c32.293,1.444,58.585,25.533,61.787,56.701
		C472.667,370.601,446.871,401.147,412.239,405.5"/>
	<path fill="#447070" d="M312.582,393.189c-9.931,11.103-19.138,21.567-28.617,31.779c-1.183,1.274-3.802,1.697-5.758,1.704
		c-34.647,0.11-69.296,0.106-103.944,0.105c-48.807-0.003-97.614-0.023-146.422-0.036c-1.957-0.001-3.914-0.001-6.242-0.001V384
		c1.961,0,3.741,0,5.52,0c91.951-0.009,183.902,0.001,275.853-0.096c3.383-0.004,5.658,0.691,6.931,4.025
		C310.724,390.082,311.996,392.062,312.582,393.189"/>
	<rect x="64.237" y="192.231" fill="#447070" width="63.52" height="170.191"/>
	<rect x="192.272" y="192.195" fill="#447070" width="63.462" height="170.207"/>
	<path fill="#447070" d="M383.654,236.88c-25.559,5.692-46.48,19.215-63.379,40.703v-85.201h63.379V236.88z"/>
</g>
</svg>
