<?xml version="1.0" encoding="utf-8"?>
<!-- Generator: Adobe Illustrator 16.0.0, SVG Export Plug-In . SVG Version: 6.00 Build 0)  -->
<!DOCTYPE svg PUBLIC "-//W3C//DTD SVG 1.1//EN" "http://www.w3.org/Graphics/SVG/1.1/DTD/svg11.dtd">
<svg version="1.1" id="Layer_1" xmlns="http://www.w3.org/2000/svg" xmlns:xlink="http://www.w3.org/1999/xlink" x="0px" y="0px"
	 width="18.645px" height="17.729px" viewBox="0 0 18.645 17.729" enable-background="new 0 0 18.645 17.729" xml:space="preserve">
<g>
	<defs>
		<rect id="SVGID_1_" y="0" width="18.644" height="17.73"/>
	</defs>
	<clipPath id="SVGID_2_">
		<use xlink:href="#SVGID_1_"  overflow="visible"/>
	</clipPath>
	<path clip-path="url(#SVGID_2_)" d="M17.905,9.812c0.168-0.215,0.25-0.492,0.176-0.777l-2.207-8.36
		C15.745,0.19,15.249-0.099,14.77,0.03L0.675,3.746C0.194,3.875-0.099,4.371,0.03,4.854l2.203,8.359
		c0.129,0.48,0.625,0.77,1.11,0.645l4.98-1.313v2.797c0,1.566,2.594,2.387,5.156,2.387c2.567,0,5.165-0.82,5.165-2.387v-4.242
		C18.645,10.589,18.362,10.159,17.905,9.812 M16.309,6.933l0.229,0.867l-2.801,0.742L13.508,7.67L16.309,6.933z M14.684,1.424
		l0.437,1.657l-4.375,1.156l-0.437-1.66L14.684,1.424z M12.719,7.877l0.226,0.852c-1.039,0.047-2.047,0.227-2.854,0.535L9.918,8.617
		L12.719,7.877z M2.964,11.382l-0.227-0.871l2.801-0.738l0.231,0.871L2.964,11.382z M6.328,9.565l2.801-0.742L9.34,9.625
		C9.27,9.664,9.206,9.707,9.145,9.749l-2.586,0.684L6.328,9.565z M17.706,15.276c0,0.91-1.891,1.652-4.227,1.652
		c-2.332,0-4.222-0.742-4.222-1.652v-1.031c0-0.031,0.019-0.063,0.022-0.098c0.133,0.867,1.953,1.555,4.199,1.555
		c2.25,0,4.071-0.688,4.204-1.555c0.004,0.035,0.022,0.066,0.022,0.098V15.276z M17.706,13.253c0,0.91-1.891,1.652-4.227,1.652
		c-2.332,0-4.222-0.742-4.222-1.652v-1.027c0-0.035,0.019-0.066,0.022-0.098c0.133,0.863,1.953,1.551,4.199,1.551
		c2.25,0,4.071-0.688,4.204-1.551c0.004,0.031,0.022,0.063,0.022,0.098V13.253z M13.479,12.749c-2.332,0-4.222-0.738-4.222-1.648
		c0-0.914,1.89-1.652,4.222-1.652c2.336,0,4.227,0.738,4.227,1.652C17.706,12.011,15.815,12.749,13.479,12.749"/>
</g>
</svg>
