<?xml version="1.0" encoding="utf-8"?>
<!-- Generator: Adobe Illustrator 16.0.0, SVG Export Plug-In . SVG Version: 6.00 Build 0)  -->
<!DOCTYPE svg PUBLIC "-//W3C//DTD SVG 1.1//EN" "http://www.w3.org/Graphics/SVG/1.1/DTD/svg11.dtd">
<svg version="1.1" id="Layer_1" xmlns="http://www.w3.org/2000/svg" xmlns:xlink="http://www.w3.org/1999/xlink" x="0px" y="0px"
	 width="48.674px" height="54.652px" viewBox="0 0 48.674 54.652" enable-background="new 0 0 48.674 54.652" xml:space="preserve">
<g>
	<path d="M29.681,18.23c3.583,0.925,6.296,3.88,6.907,7.528c0.071,0.417,0.433,0.712,0.842,0.712c0.048,0,0.095-0.004,0.143-0.012
		c0.465-0.078,0.779-0.518,0.701-0.983c-0.726-4.312-3.93-7.805-8.166-8.898c-0.457-0.118-0.922,0.156-1.04,0.613
		C28.95,17.646,29.224,18.112,29.681,18.23"/>
	<path d="M14.371,45.112c0.644-0.646,1-1.504,1-2.416c0-0.619-0.165-1.215-0.472-1.734l2.789-2.79
		c2.565,2.283,5.942,3.672,9.638,3.672c8.005,0,14.517-6.513,14.517-14.517c0-8.005-6.512-14.517-14.517-14.517
		c-8.004,0-14.518,6.512-14.518,14.517c0,3.696,1.389,7.072,3.672,9.638l-2.791,2.789c-0.52-0.309-1.114-0.474-1.735-0.474
		c-0.912,0-1.77,0.356-2.415,1.002L1.001,48.82C0.356,49.466,0,50.324,0,51.236s0.356,1.771,1.001,2.415
		c0.665,0.666,1.54,0.998,2.415,0.998s1.749-0.332,2.415-0.998L14.371,45.112z M27.326,14.517c7.063,0,12.809,5.746,12.809,12.809
		c0,7.062-5.746,12.809-12.809,12.809c-7.063,0-12.81-5.747-12.81-12.809C14.517,20.263,20.263,14.517,27.326,14.517 M13.163,43.904
		l-8.539,8.539c-0.666,0.666-1.75,0.666-2.416,0c-0.322-0.321-0.5-0.751-0.5-1.207s0.178-0.885,0.5-1.208l8.539-8.539
		c0.323-0.322,0.752-0.501,1.208-0.501c0.457,0,0.885,0.179,1.208,0.501c0.323,0.322,0.5,0.752,0.5,1.207
		C13.663,43.152,13.486,43.582,13.163,43.904"/>
	<path d="M48.67,11.871c-0.002-0.013-0.004-0.024-0.005-0.036c-0.003-0.016-0.004-0.031-0.008-0.047
		c-0.002-0.014-0.006-0.027-0.01-0.041c-0.004-0.014-0.007-0.027-0.011-0.04c-0.004-0.013-0.009-0.026-0.013-0.04
		c-0.005-0.013-0.01-0.026-0.015-0.039c-0.006-0.012-0.012-0.024-0.018-0.036c-0.006-0.013-0.012-0.026-0.019-0.039
		c-0.006-0.012-0.014-0.023-0.021-0.034c-0.007-0.013-0.014-0.026-0.022-0.038s-0.018-0.024-0.026-0.035
		c-0.008-0.011-0.015-0.022-0.024-0.032c-0.016-0.02-0.032-0.039-0.051-0.057c-0.002-0.002-0.003-0.004-0.005-0.006L37.323,0.25
		c-0.001,0-0.001,0-0.001-0.001c-0.027-0.026-0.056-0.05-0.086-0.073c-0.007-0.005-0.014-0.011-0.021-0.016
		c-0.031-0.022-0.062-0.041-0.095-0.059c-0.002-0.002-0.005-0.003-0.008-0.004c-0.031-0.016-0.063-0.03-0.097-0.043
		c-0.007-0.002-0.014-0.005-0.021-0.007c-0.036-0.012-0.072-0.023-0.11-0.03c-0.001-0.001-0.002-0.001-0.003-0.001
		c-0.035-0.006-0.07-0.011-0.105-0.013c-0.011-0.001-0.021-0.001-0.029-0.002c-0.01,0-0.02-0.001-0.029-0.001H8.539
		C7.127,0,5.978,1.149,5.978,2.562v36.719c0,0.472,0.382,0.854,0.853,0.854c0.472,0,0.855-0.383,0.855-0.854V2.562
		c0-0.471,0.383-0.854,0.853-0.854h27.326v8.539c0,1.413,1.148,2.562,2.562,2.562h5.123c0.472,0,0.854-0.382,0.854-0.854
		c0-0.471-0.383-0.854-0.854-0.854h-5.123c-0.471,0-0.854-0.383-0.854-0.854V2.916l9.393,9.393V52.09
		c0,0.471-0.383,0.854-0.854,0.854H9.394c-0.472,0-0.854,0.382-0.854,0.854c0,0.471,0.382,0.854,0.854,0.854h36.718
		c1.412,0,2.562-1.148,2.562-2.562V11.955C48.674,11.927,48.673,11.899,48.67,11.871"/>
	<path d="M35.011,27.326c0-0.472-0.382-0.854-0.854-0.854H17.079c-0.472,0-0.854,0.382-0.854,0.854s0.382,0.854,0.854,0.854h17.079
		C34.629,28.18,35.011,27.798,35.011,27.326"/>
	<path d="M35.865,30.742H19.64c-0.472,0-0.854,0.383-0.854,0.854c0,0.472,0.382,0.854,0.854,0.854h16.225
		c0.472,0,0.854-0.383,0.854-0.854C36.719,31.125,36.337,30.742,35.865,30.742"/>
	<path d="M19.64,23.91h12.809c0.472,0,0.854-0.382,0.854-0.854c0-0.471-0.382-0.854-0.854-0.854H19.64
		c-0.472,0-0.854,0.383-0.854,0.854C18.786,23.528,19.168,23.91,19.64,23.91"/>
</g>
</svg>
