<?xml version="1.0" encoding="utf-8"?>
<!-- Generator: Adobe Illustrator 16.0.0, SVG Export Plug-In . SVG Version: 6.00 Build 0)  -->
<!DOCTYPE svg PUBLIC "-//W3C//DTD SVG 1.1//EN" "http://www.w3.org/Graphics/SVG/1.1/DTD/svg11.dtd">
<svg version="1.1" id="Layer_1" xmlns="http://www.w3.org/2000/svg" xmlns:xlink="http://www.w3.org/1999/xlink" x="0px" y="0px"
	 width="398.183px" height="507px" viewBox="0 0 398.183 507" enable-background="new 0 0 398.183 507" xml:space="preserve">
<g>
	<path fill="#004F5F" d="M0.001,80.321c0,40.276,85.143,85.321,199.093,85.321c113.948,0,199.089-45.045,199.089-85.321"/>
	<path fill="#004F5F" d="M372.701,413.778c-46.848,23.43-108.503,36.33-173.607,36.33c-65.109,0-126.769-12.901-173.618-36.328
		C16.25,409.164,7.76,404.213,0,398.967v22.71C0,461.953,85.143,507,199.093,507c113.948,0,199.089-45.047,199.089-85.323v-22.711
		C390.421,404.211,381.93,409.164,372.701,413.778"/>
	<path fill="#004F5F" d="M372.701,299.996c-46.848,23.426-108.503,36.328-173.607,36.328c-65.109,0-126.769-12.903-173.618-36.328
		C16.25,295.38,7.76,290.429,0,285.183v22.709c0,40.276,85.143,85.323,199.093,85.323c113.948,0,199.089-45.047,199.089-85.323
		v-22.713C390.421,290.424,381.93,295.38,372.701,299.996"/>
	<path fill="#004F5F" d="M372.701,186.213c-46.848,23.422-108.503,36.322-173.607,36.322c-65.109,0-126.769-12.901-173.618-36.324
		C16.25,181.595,7.76,176.642,0,171.398v22.706c0,40.278,85.143,85.327,199.093,85.327c113.948,0,199.089-45.049,199.089-85.327
		v-22.708C390.421,176.642,381.93,181.597,372.701,186.213"/>
	<path fill="#004F5F" d="M397.637,82.821c0,45.741-88.892,82.821-198.546,82.821c-109.654,0-198.545-37.08-198.545-82.821
		C0.545,37.08,89.437,0,199.091,0C308.745,0,397.637,37.08,397.637,82.821"/>
</g>
</svg>
