<?xml version="1.0" encoding="utf-8"?>
<!-- Generator: Adobe Illustrator 16.0.0, SVG Export Plug-In . SVG Version: 6.00 Build 0)  -->
<!DOCTYPE svg PUBLIC "-//W3C//DTD SVG 1.1//EN" "http://www.w3.org/Graphics/SVG/1.1/DTD/svg11.dtd">
<svg version="1.1" id="Layer_1" xmlns="http://www.w3.org/2000/svg" xmlns:xlink="http://www.w3.org/1999/xlink" x="0px" y="0px"
	 width="24.809px" height="17.637px" viewBox="0 0 24.809 17.637" enable-background="new 0 0 24.809 17.637" xml:space="preserve">
<g>
	<path d="M20.086,13.622c-0.098,0-0.195-0.035-0.274-0.109l-4.601-4.316c-0.16-0.153-0.168-0.403-0.02-0.567
		c0.152-0.16,0.406-0.168,0.566-0.015l4.605,4.316c0.16,0.152,0.168,0.406,0.016,0.566C20.301,13.58,20.195,13.622,20.086,13.622"/>
	<path d="M4.723,13.622c-0.11,0-0.215-0.042-0.293-0.125c-0.153-0.16-0.145-0.414,0.015-0.566l4.606-4.316
		c0.164-0.153,0.418-0.145,0.566,0.015C9.77,8.793,9.762,9.043,9.602,9.196l-4.606,4.316C4.918,13.586,4.82,13.622,4.723,13.622"/>
	<path d="M22.809,17.637H2c-1.102,0-2-0.894-2-2V2c0-1.101,0.898-2,2-2h20.809c1.102,0,2,0.899,2,2v13.637
		C24.809,16.744,23.91,17.637,22.809,17.637 M2,0.801C1.34,0.801,0.801,1.34,0.801,2v13.637c0,0.664,0.539,1.199,1.199,1.199h20.809
		c0.664,0,1.199-0.535,1.199-1.199V2c0-0.66-0.535-1.199-1.199-1.199H2z"/>
	<path d="M12.406,10.83c-0.535,0-1.066-0.177-1.468-0.528L0.664,1.34C0.496,1.196,0.48,0.942,0.625,0.774s0.398-0.18,0.566-0.039
		l10.27,8.96c0.512,0.445,1.375,0.445,1.887,0L23.605,0.75c0.168-0.144,0.418-0.129,0.566,0.039
		c0.145,0.168,0.129,0.418-0.039,0.563l-10.258,8.945C13.469,10.653,12.938,10.83,12.406,10.83"/>
</g>
</svg>
