<?xml version="1.0" encoding="utf-8"?>
<!-- Generator: Adobe Illustrator 16.0.0, SVG Export Plug-In . SVG Version: 6.00 Build 0)  -->
<!DOCTYPE svg PUBLIC "-//W3C//DTD SVG 1.1//EN" "http://www.w3.org/Graphics/SVG/1.1/DTD/svg11.dtd">
<svg version="1.1" id="Layer_1" xmlns="http://www.w3.org/2000/svg" xmlns:xlink="http://www.w3.org/1999/xlink" x="0px" y="0px"
	 width="55.588px" height="54.618px" viewBox="0 0 55.588 54.618" enable-background="new 0 0 55.588 54.618" xml:space="preserve">
<g>
	<path d="M51.245,4.343h-0.869V2.605C50.376,1.169,49.207,0,47.771,0s-2.605,1.169-2.605,2.605v1.738H10.423V2.605
		C10.423,1.169,9.254,0,7.817,0S5.211,1.169,5.211,2.605v1.738H4.343C1.948,4.343,0,6.292,0,8.686v41.589
		c0,2.395,1.948,4.343,4.343,4.343h46.902c2.396,0,4.343-1.948,4.343-4.343V8.686C55.588,6.292,53.641,4.343,51.245,4.343
		 M46.902,2.605c0-0.478,0.39-0.868,0.868-0.868s0.869,0.39,0.869,0.868v2.604v0.002v0.002v2.604c0,0.479-0.391,0.868-0.869,0.868
		s-0.868-0.389-0.868-0.868V2.605z M7.817,1.737c0.479,0,0.868,0.39,0.868,0.868v5.212c0,0.479-0.389,0.868-0.868,0.868
		S6.948,8.296,6.948,7.817V2.605C6.948,2.127,7.338,1.737,7.817,1.737 M51.245,52.88H4.343c-1.437,0-2.606-1.169-2.606-2.605V17.27
		h41.69c0.479,0,0.868-0.389,0.868-0.869c0-0.479-0.389-0.868-0.868-0.868H1.737V8.686c0-1.436,1.169-2.605,2.606-2.605h0.868v1.737
		c0,1.437,1.169,2.606,2.606,2.606s2.606-1.169,2.606-2.606V6.081h34.742v1.737c0,1.437,1.169,2.606,2.605,2.606
		s2.605-1.169,2.605-2.606V6.081h0.869c1.438,0,2.606,1.169,2.606,2.605v6.847h-1.738c-0.479,0-0.868,0.389-0.868,0.868
		c0,0.48,0.389,0.869,0.868,0.869h1.738v33.005C53.852,51.711,52.683,52.88,51.245,52.88"/>
	<path d="M48.639,15.533h-1.736c-0.479,0-0.869,0.389-0.869,0.868c0,0.48,0.39,0.869,0.869,0.869h1.736
		c0.48,0,0.869-0.389,0.869-0.869C49.508,15.921,49.119,15.533,48.639,15.533"/>
	<path d="M18.765,23.264c-0.001-0.012-0.003-0.024-0.005-0.037c-0.002-0.015-0.004-0.031-0.007-0.047
		c-0.003-0.014-0.007-0.028-0.011-0.042c-0.003-0.014-0.006-0.027-0.01-0.04c-0.004-0.014-0.009-0.027-0.014-0.041
		c-0.005-0.014-0.009-0.027-0.014-0.039c-0.006-0.013-0.012-0.026-0.018-0.038c-0.006-0.013-0.012-0.027-0.019-0.039
		c-0.006-0.012-0.014-0.025-0.021-0.036c-0.008-0.013-0.015-0.025-0.023-0.037c-0.008-0.014-0.019-0.026-0.028-0.039
		c-0.008-0.01-0.014-0.02-0.022-0.029c-0.036-0.045-0.077-0.086-0.122-0.122c-0.009-0.007-0.018-0.014-0.028-0.021
		c-0.013-0.01-0.026-0.02-0.04-0.03c-0.011-0.007-0.024-0.014-0.036-0.021c-0.012-0.007-0.024-0.015-0.037-0.022
		c-0.012-0.007-0.025-0.012-0.037-0.018c-0.014-0.006-0.026-0.013-0.04-0.019c-0.012-0.004-0.025-0.009-0.037-0.013
		c-0.014-0.005-0.028-0.011-0.043-0.015c-0.012-0.004-0.025-0.007-0.037-0.01c-0.015-0.004-0.03-0.008-0.045-0.011
		s-0.029-0.004-0.043-0.006c-0.014-0.003-0.027-0.005-0.042-0.006c-0.025-0.003-0.05-0.004-0.075-0.004h-0.01h-0.01
		c-0.025,0-0.05,0.001-0.075,0.004c-0.014,0.001-0.028,0.003-0.042,0.006c-0.014,0.002-0.028,0.003-0.042,0.006
		c-0.016,0.003-0.031,0.007-0.046,0.011c-0.012,0.003-0.025,0.006-0.037,0.01c-0.015,0.004-0.029,0.01-0.043,0.015
		c-0.012,0.004-0.025,0.009-0.037,0.013c-0.014,0.006-0.026,0.013-0.04,0.019c-0.012,0.006-0.025,0.011-0.037,0.018
		c-0.013,0.007-0.025,0.014-0.037,0.022c-0.012,0.007-0.024,0.014-0.036,0.021c-0.014,0.01-0.027,0.02-0.04,0.03
		c-0.01,0.007-0.019,0.014-0.028,0.021c-0.023,0.018-0.044,0.038-0.064,0.058l-4.343,4.342c-0.339,0.34-0.339,0.891,0,1.229
		c0.17,0.169,0.392,0.254,0.614,0.254c0.223,0,0.445-0.085,0.615-0.254l2.86-2.86v21.354c0,0.479,0.388,0.867,0.868,0.867
		s0.869-0.388,0.869-0.867V23.35C18.77,23.321,18.768,23.293,18.765,23.264"/>
	<path fill="#1D1D1B" d="M24.954,46.215c0-0.272,0.115-0.531,0.317-0.714l8.981-8.12c4.097-3.741,5.521-5.878,5.521-8.515
		c0-3.242-2.637-5.344-5.628-5.344c-2.931,0-4.917,1.4-6.833,3.974c-0.27,0.363-0.773,0.455-1.149,0.205
		c-0.394-0.263-0.498-0.801-0.225-1.188c2.042-2.888,4.329-4.629,8.385-4.629c4.239,0,7.409,2.956,7.409,6.911
		c0,3.419-1.853,5.698-6.234,9.688l-7.623,6.911h13.216c0.492,0,0.892,0.399,0.892,0.891s-0.399,0.891-0.892,0.891H25.916
		C25.385,47.177,24.954,46.746,24.954,46.215z"/>
</g>
</svg>
