<?xml version="1.0" encoding="utf-8"?>
<!-- Generator: Adobe Illustrator 16.0.0, SVG Export Plug-In . SVG Version: 6.00 Build 0)  -->
<!DOCTYPE svg PUBLIC "-//W3C//DTD SVG 1.1//EN" "http://www.w3.org/Graphics/SVG/1.1/DTD/svg11.dtd">
<svg version="1.1" id="Layer_1" xmlns="http://www.w3.org/2000/svg" xmlns:xlink="http://www.w3.org/1999/xlink" x="0px" y="0px"
	 width="512.002px" height="367.305px" viewBox="0 0 512.002 367.305" enable-background="new 0 0 512.002 367.305"
	 xml:space="preserve">
<g>
	<path fill="#137074" d="M395.13,233.739c-9.206,0-16.696,7.49-16.696,16.696s7.49,16.696,16.696,16.696s16.696-7.49,16.696-16.696
		S404.336,233.739,395.13,233.739"/>
	<path fill="#137074" d="M261.565,100.174c-9.207,0-16.696,7.49-16.696,16.696s7.49,16.696,16.696,16.696
		c9.206,0,16.695-7.49,16.695-16.696S270.771,100.174,261.565,100.174"/>
	<path fill="#137074" d="M495.304,0H144.696v50.087c0,9.217-7.479,16.696-16.696,16.696s-16.696-7.479-16.696-16.696V0H16.696
		C7.479,0,0,7.478,0,16.696v333.913c0,9.218,7.479,16.696,16.696,16.696h94.609v-50.087c0-9.217,7.479-16.696,16.696-16.696
		s16.696,7.479,16.696,16.696v50.087h350.609c9.218,0,16.696-7.479,16.696-16.696V16.696C512,7.478,504.521,0,495.304,0
		 M144.696,250.435c0,9.217-7.479,16.696-16.696,16.696s-16.696-7.479-16.696-16.696v-33.391c0-9.217,7.479-16.696,16.696-16.696
		s16.696,7.479,16.696,16.696V250.435z M144.696,150.261c0,9.217-7.479,16.696-16.696,16.696s-16.696-7.479-16.696-16.696V116.87
		c0-9.217,7.479-16.696,16.696-16.696s16.696,7.479,16.696,16.696V150.261z M211.478,116.869c0-27.619,22.468-50.087,50.087-50.087
		c27.618,0,50.087,22.468,50.087,50.087s-22.469,50.087-50.087,50.087C233.946,166.956,211.478,144.488,211.478,116.869
		 M257.512,271.196c-4.271,0-8.544-1.631-11.804-4.892c-6.521-6.521-6.521-17.087,0-23.609L387.37,101.022
		c6.521-6.522,17.086-6.522,23.607,0c6.521,6.521,6.521,17.087,0,23.609L269.315,266.304
		C266.054,269.566,261.782,271.196,257.512,271.196 M395.13,300.522c-27.619,0-50.087-22.468-50.087-50.087
		s22.468-50.087,50.087-50.087s50.087,22.468,50.087,50.087S422.75,300.522,395.13,300.522"/>
</g>
</svg>
