<?xml version="1.0" encoding="utf-8"?>
<!-- Generator: Adobe Illustrator 16.0.0, SVG Export Plug-In . SVG Version: 6.00 Build 0)  -->
<!DOCTYPE svg PUBLIC "-//W3C//DTD SVG 1.1//EN" "http://www.w3.org/Graphics/SVG/1.1/DTD/svg11.dtd">
<svg version="1.1" id="Layer_1" xmlns="http://www.w3.org/2000/svg" xmlns:xlink="http://www.w3.org/1999/xlink" x="0px" y="0px"
	 width="490px" height="490px" viewBox="0 0 490 490" enable-background="new 0 0 490 490" xml:space="preserve">
<g>
	<path d="M255.4,390.1V53.7H385.3c0,0-70.5,192.5-69.2,195.3c4.101,42.1,40.7,74.4,84.2,74.4c43.4,0,78.9-32.2,84-74.2
		c1.4-2.9-69.1-195.5-69.1-195.5h12.1V32.2h-172V0h-20.9v32.2h-172v21.5h12.2C74.6,53.7,5,242.8,5,245c2.1,44.1,39.6,78.4,84.4,78.4
		c44.8,0,82.4-34.4,85.5-78.4c0-1.3-70.5-191.3-70.5-191.3h129.9V390H0v100h490v-99.9H255.4z M400.3,302
		c-30.2,0-55.3-20.4-62.6-47.3h125.1C455.6,281.5,430.6,302,400.3,302 M339.9,234.3l60.5-161.2L459.8,234.3H339.9z M89.7,302
		c-30.2,0-55.3-20.4-62.6-47.3h125.1C144.9,281.5,119.9,302,89.7,302 M30.2,234.3L90.7,73.1l59.4,161.2H30.2z M470.2,469.6H20.9v-58
		h449.3V469.6z"/>
</g>
</svg>
