<?xml version="1.0" encoding="utf-8"?>
<!-- Generator: Adobe Illustrator 16.0.0, SVG Export Plug-In . SVG Version: 6.00 Build 0)  -->
<!DOCTYPE svg PUBLIC "-//W3C//DTD SVG 1.1//EN" "http://www.w3.org/Graphics/SVG/1.1/DTD/svg11.dtd">
<svg version="1.1" id="Layer_1" xmlns="http://www.w3.org/2000/svg" xmlns:xlink="http://www.w3.org/1999/xlink" x="0px" y="0px"
	 width="383.879px" height="383.801px" viewBox="0 0 383.879 383.801" enable-background="new 0 0 383.879 383.801"
	 xml:space="preserve">
<g>
	<path d="M376.934,243.061c4.607-16.679,6.945-33.896,6.945-51.163c-0.077-51.253-20.074-99.436-56.307-135.669h-0.001
		C291.315,19.969,243.133,0,191.897,0C140.666,0,92.485,19.969,56.229,56.229C19.97,92.484,0,140.666,0,191.897
		c0,51.235,19.97,99.419,56.229,135.675c36.26,36.26,84.441,56.229,135.669,56.229c29.725,0,56.85-5.476,78.443-15.836
		c20.123-9.712,34.747-23.545,41.172-38.948c7.498-18.104,3.233-37.056-11.703-51.987l-2.09-2.107l1.305-1.729
		c0.305-0.403,0.626-0.695,0.861-0.909c0.057-0.051,0.112-0.101,0.163-0.151c10.318-10.833,10.272-24.597-0.157-35.025
		l-27.679-27.68c-5.035-5.183-10.973-7.908-17.193-7.908c-6.281,0-12.309,2.706-17.433,7.827l-15.73,15.733l-1.647-0.915
		c-0.64-0.354-1.203-0.636-1.887-0.94l-0.103-0.048c-1.847-0.924-3.507-1.757-4.961-2.701
		c-14.747-9.345-28.237-21.634-41.216-37.556c-5.577-7.007-9.585-13.18-12.632-19.448l-0.807-1.661l1.351-1.26
		c3.576-3.335,6.92-6.762,10.154-10.078c0.902-0.951,1.868-1.9,2.803-2.817c0.484-0.476,0.972-0.954,1.461-1.444
		c10.849-10.851,10.849-24.333,0-35.182l-13.68-13.684c-1.449-1.446-3.094-3.087-4.686-4.765c-2.816-2.891-6.032-6.195-9.407-9.327
		c-4.993-4.918-10.887-7.492-17.1-7.492c-6.226,0-12.212,2.581-17.309,7.465l-0.144,0.141L94.87,100.548
		c-6.526,6.523-10.213,14.447-10.956,23.552c-1.173,14.828,3.14,28.448,6.487,37.403c8.171,22.051,20.393,42.461,38.464,64.24
		c22.078,26.366,48.607,47.143,78.843,61.744c11.517,5.486,26.979,11.941,44.358,13.12c1.04,0.072,2.087,0.072,3.195,0.072
		c11.721,0,21.544-4.223,29.198-12.551l0.279-0.283c0.316-0.398,0.671-0.752,0.987-1.068l1.769-1.77l2.254,2.245
		c11.011,11.015,13.991,23.659,8.618,36.567c-9.602,22.793-46.243,45.781-106.47,45.781c-97.984,0-177.699-79.718-177.699-177.704
		C14.199,93.915,93.914,14.2,191.897,14.2c97.987,0,177.704,79.715,177.704,177.698c0,15.982-2.157,31.926-6.41,47.387
		c-0.517,1.835-0.28,3.746,0.66,5.397c0.944,1.655,2.48,2.854,4.326,3.373C371.933,249.108,375.861,246.869,376.934,243.061
		 M289.698,262.273l-0.067,0.072c-1.789,1.944-3.747,3.831-5.821,5.829l-0.255,0.246c-3.005,2.929-6.422,6.258-9.593,9.981
		l-0.076,0.086c-5.063,5.416-10.805,7.832-18.624,7.832c-0.76,0-1.545,0-2.382-0.091c-15.171-1.021-29.534-7.197-39.022-11.758
		c-28.452-13.776-53.36-33.292-74.037-58.008c-16.993-20.457-28.463-39.524-36.104-60.011c-4.592-12.457-6.34-22.106-5.671-31.294
		c0.546-5.911,2.803-10.712,6.904-14.726l17.185-17.103c2.474-2.326,5.03-3.529,7.443-3.529c3.387,0,5.955,2.198,7.185,3.508
		l0.152,0.153c3.071,2.829,5.955,5.791,9.008,8.926c0.773,0.773,1.56,1.579,2.348,2.387c0.812,0.833,1.624,1.665,2.436,2.476
		l13.681,13.681c5.23,5.235,5.23,9.903,0.001,15.136l-4.32,4.321c-0.882,0.881-1.748,1.754-2.608,2.619
		c-3.343,3.369-6.5,6.55-9.98,9.643l-0.095,0.084c-0.056,0.065-0.111,0.126-0.172,0.188c-4.848,4.849-3.358,9.664-2.721,11.72
		l0.037,0.121c0.006,0.018,0.027,0.068,0.047,0.117c0.049,0.122,0.098,0.245,0.145,0.383c3.543,8.526,8.531,16.651,16.153,26.313
		l0.169,0.188c13.857,17.087,28.47,30.388,44.674,40.663c2.096,1.318,4.21,2.411,6.179,3.394l0.195,0.099
		c1.719,0.862,3.343,1.678,4.77,2.604c0.195,0.131,0.414,0.23,0.629,0.338c1.699,0.849,3.375,1.259,5.131,1.259
		c2.883,0,5.509-1.198,7.805-3.563l17.229-17.224c2.441-2.451,4.92-3.694,7.365-3.694c3.188,0,5.77,2.251,7.025,3.593l27.781,27.78
		C294.753,251.936,294.71,257.07,289.698,262.273"/>
</g>
</svg>
