<?xml version="1.0" encoding="utf-8"?>
<!-- Generator: Adobe Illustrator 16.0.0, SVG Export Plug-In . SVG Version: 6.00 Build 0)  -->
<!DOCTYPE svg PUBLIC "-//W3C//DTD SVG 1.1//EN" "http://www.w3.org/Graphics/SVG/1.1/DTD/svg11.dtd">
<svg version="1.1" id="Layer_1" xmlns="http://www.w3.org/2000/svg" xmlns:xlink="http://www.w3.org/1999/xlink" x="0px" y="0px"
	 width="211.212px" height="211.212px" viewBox="0 0 211.212 211.212" enable-background="new 0 0 211.212 211.212"
	 xml:space="preserve">
<g>
	<path fill="#004F5F" d="M160.246,54.638L105.607,0L54.638,50.969v-0.002L0,105.605l50.969,50.969h-0.002l54.639,54.638
		l50.969-50.969v0.002l54.638-54.638l-50.969-50.969H160.246z M21.213,105.605l18.426-18.426l0.001,36.854L21.213,105.605z
		 M105.607,21.213l18.426,18.426L87.18,39.64L105.607,21.213z M105.605,190l-18.426-18.426l36.854-0.001L105.605,190z
		 M54.641,156.575L54.638,54.641l101.934-0.003l0.003,101.935L54.641,156.575z M190,105.607l-18.426,18.426l-0.001-36.854
		L190,105.607z M105.606,79.341c-14.483,0-26.267,11.783-26.267,26.266s11.783,26.266,26.267,26.266
		c14.482,0,26.266-11.783,26.266-26.266S120.089,79.341,105.606,79.341 M105.606,116.872c-6.212,0-11.267-5.054-11.267-11.266
		c0-6.212,5.054-11.266,11.267-11.266c6.212,0,11.266,5.054,11.266,11.266C116.872,111.818,111.818,116.872,105.606,116.872"/>
</g>
</svg>
