<?xml version="1.0" encoding="utf-8"?>
<!-- Generator: Adobe Illustrator 16.0.0, SVG Export Plug-In . SVG Version: 6.00 Build 0)  -->
<!DOCTYPE svg PUBLIC "-//W3C//DTD SVG 1.1//EN" "http://www.w3.org/Graphics/SVG/1.1/DTD/svg11.dtd">
<svg version="1.1" id="Layer_1" xmlns="http://www.w3.org/2000/svg" xmlns:xlink="http://www.w3.org/1999/xlink" x="0px" y="0px"
	 width="277.904px" height="362.757px" viewBox="0 0 277.904 362.757" enable-background="new 0 0 277.904 362.757"
	 xml:space="preserve">
<g>
	<path fill="#FFFFFF" d="M267.577,55.592c-5.866-15.13-14.406-24.143-23.472-32.587c-9.066-8.445-25.111-16.672-38.443-19.487
		C196.062,1.055,181.93,0,163.798,0H23.002v168.04H0v37.688h23.002v15.273H0v37.688h23.002v104.066h40.372V258.689h144.585v-37.688
		H63.374v-15.273h2.523h101.1c38.931,0,66.781-10.89,84.15-32.019c16.603-20.197,26.757-37.895,26.757-68.858
		C277.904,86.907,272.91,70.37,267.577,55.592 M214.531,150.8c-10.133,11.611-23.535,17.241-47,17.241H65.897v-0.001h-2.523V38.561
		h103.357c16.531,0,27.997,1.056,33.863,3.167c9.711,6.161,17.332,10.907,22.933,21.463c5.865,10.907,8.8,23.925,8.8,38.703
		C232.327,123.004,224.13,139.542,214.531,150.8"/>
</g>
</svg>
