<?xml version="1.0" encoding="utf-8"?>
<!-- Generator: Adobe Illustrator 16.0.0, SVG Export Plug-In . SVG Version: 6.00 Build 0)  -->
<!DOCTYPE svg PUBLIC "-//W3C//DTD SVG 1.1//EN" "http://www.w3.org/Graphics/SVG/1.1/DTD/svg11.dtd">
<svg version="1.1" id="Layer_1" xmlns="http://www.w3.org/2000/svg" xmlns:xlink="http://www.w3.org/1999/xlink" x="0px" y="0px"
	 width="335.005px" height="512px" viewBox="0 0 335.005 512" enable-background="new 0 0 335.005 512" xml:space="preserve">
<path fill="#137074" d="M51.649,412.24h59.084v59.086H51.649V412.24z M137.961,412.24h59.084v59.086h-59.084V412.24z
	 M224.274,412.24h59.084v59.086h-59.084V412.24z M51.649,325.926h59.084v59.086H51.649V325.926z M137.961,325.926h59.084v59.086
	h-59.084V325.926z M224.274,325.926h59.084v59.086h-59.084V325.926z M51.647,220.515h231.711v78.183H51.647V220.515z
	 M283.358,89.284v90.673H51.647V89.284H0V512h335.005V89.284H283.358z"/>
<polygon fill="#137074" points="198.746,0 167.503,19.395 136.261,0 105.019,19.395 82.064,5.145 82.064,149.539 252.942,149.539 
	252.942,5.145 229.987,19.395 "/>
</svg>
