<?xml version="1.0" encoding="utf-8"?>
<!-- Generator: Adobe Illustrator 16.0.0, SVG Export Plug-In . SVG Version: 6.00 Build 0)  -->
<!DOCTYPE svg PUBLIC "-//W3C//DTD SVG 1.1//EN" "http://www.w3.org/Graphics/SVG/1.1/DTD/svg11.dtd">
<svg version="1.1" id="Layer_1" xmlns="http://www.w3.org/2000/svg" xmlns:xlink="http://www.w3.org/1999/xlink" x="0px" y="0px"
	 width="169.52px" height="155.374px" viewBox="0 0 169.52 155.374" enable-background="new 0 0 169.52 155.374"
	 xml:space="preserve">
<g>
	<path d="M158.617,75.92c-6.225-9.229-14.183-16.317-20.575-22.013c-5.73-5.105-10.782-9.609-12.053-13.498
		c2.665-1.042,4.561-3.636,4.561-6.666c0-2.956-1.801-5.496-4.362-6.587l5.288-20.737c0.567-2.003,0.204-3.852-0.995-5.079
		c-1.204-1.235-3.061-1.638-5.088-1.104c-0.039,0.009-0.077,0.021-0.114,0.033c-0.1,0.031-9.956,3.178-13.229,4.118
		c-2.129,0.61-5.865,0.613-7.995,0.007c-3.31-0.942-13.27-4.102-13.369-4.134c-0.039-0.012-0.075-0.022-0.114-0.033
		c-2.029-0.529-3.885-0.125-5.091,1.112c-1.203,1.235-1.562,3.101-0.982,5.117c0.008,0.024,0.015,0.048,0.022,0.071l6.71,20.693
		c-2.483,1.123-4.219,3.623-4.219,6.523c0,3.03,1.896,5.624,4.563,6.666c-1.271,3.889-6.324,8.392-12.054,13.497
		c-6.394,5.697-14.352,12.785-20.575,22.014C51.607,86.8,48.041,98.497,48.041,111.685c0,11.893,4.778,22.804,13.455,30.725
		c9.292,8.481,22.274,12.965,37.542,12.965h19.484c15.27,0,28.25-4.483,37.542-12.965c8.678-7.921,13.455-18.832,13.455-30.725
		C169.52,98.497,165.954,86.8,158.617,75.92 M113.61,36.332H94.166c-1.425,0-2.587-1.161-2.587-2.588
		c0-1.426,1.159-2.585,2.583-2.588h0.004h0.008h12.162h0.007h0.011h4.855h0.009h0.007h12.17c1.428,0,2.588,1.161,2.588,2.588
		c0,1.427-1.16,2.588-2.588,2.588H113.61z M88.791,4.568c0.11-0.009,0.297-0.003,0.575,0.065c0.939,0.299,10.166,3.222,13.436,4.154
		c2.947,0.839,7.562,0.834,10.506-0.01c3.235-0.929,12.358-3.839,13.295-4.136c0.275-0.069,0.459-0.074,0.569-0.069
		c0.005,0.118-0.009,0.318-0.095,0.619c-0.006,0.024-0.014,0.046-0.02,0.068l-5.438,21.329h-7.479l1.727-6.906
		c0.306-1.223-0.438-2.463-1.661-2.769c-1.222-0.305-2.463,0.438-2.771,1.662l-2.004,8.013h-1.305l-2.002-8.013
		c-0.307-1.224-1.548-1.969-2.771-1.662c-1.223,0.306-1.968,1.546-1.661,2.769l1.726,6.906h-7.593L88.877,5.16
		C88.797,4.871,88.786,4.68,88.791,4.568 M152.986,139.036c-8.436,7.701-20.354,11.771-34.464,11.771H99.038
		c-14.109,0-26.026-4.07-34.463-11.771c-7.717-7.045-11.967-16.759-11.967-27.351c0-27.688,17.31-43.108,29.949-54.369
		c6.815-6.07,12.37-11.02,13.625-16.418h4.561l-1.436,4.301c-0.397,1.197,0.248,2.49,1.445,2.888
		c0.239,0.081,0.483,0.118,0.722,0.118c0.956,0,1.848-0.605,2.167-1.561l1.914-5.746h6.451l1.916,5.746
		c0.318,0.956,1.21,1.561,2.166,1.561c0.239,0,0.483-0.037,0.722-0.118c1.197-0.398,1.843-1.691,1.444-2.888l-1.433-4.301h4.559
		c1.255,5.398,6.811,10.348,13.625,16.418c12.64,11.261,29.95,26.682,29.95,54.369C164.953,122.277,160.704,131.991,152.986,139.036
		"/>
	<path d="M108.781,65.558c-20.062,0-36.384,16.322-36.384,36.384c0,20.063,16.322,36.385,36.384,36.385
		c20.06,0,36.382-16.322,36.382-36.385C145.163,81.88,128.841,65.558,108.781,65.558 M108.781,133.759
		c-17.544,0-31.817-14.273-31.817-31.817s14.273-31.816,31.817-31.816c17.543,0,31.815,14.272,31.815,31.816
		S126.324,133.759,108.781,133.759"/>
	<path fill="#1D1D1B" d="M96.996,82.598c0-1.082,0.877-1.959,1.958-1.959h13.464c9.3,0,15.422,4.945,15.422,13.186
		c0,8.889-7.417,13.479-16.188,13.479h-10.007v12.214c0,1.285-1.041,2.325-2.325,2.325c-1.283,0-2.324-1.04-2.324-2.325V82.598z
		 M111.829,103.065c6.827,0,11.302-3.649,11.302-9.183c0-5.886-4.415-8.947-11.066-8.947h-10.419v18.13H111.829z"/>
	<path fill="#1D1D1B" d="M91.954,107.27h10.679c0.435,0,0.786-0.353,0.786-0.786v-2.501c0-0.435-0.352-0.786-0.786-0.786H91.954
		c-0.434,0-0.787,0.352-0.787,0.786v2.501C91.167,106.917,91.521,107.27,91.954,107.27"/>
	<path fill="#1D1D1B" d="M91.954,116.09h28.901c0.434,0,0.786-0.352,0.786-0.785v-2.501c0-0.435-0.353-0.786-0.786-0.786H91.954
		c-0.434,0-0.787,0.352-0.787,0.786v2.501C91.167,115.738,91.521,116.09,91.954,116.09"/>
	<path d="M65.886,146.831c-4.902,1.854-10.096,2.793-15.332,2.793h-7.649c-11.871,0-21.897-3.449-28.994-9.976
		c-6.493-5.971-10.069-14.203-10.069-23.18c0-23.464,14.564-36.534,25.197-46.077c5.734-5.144,10.407-9.34,11.463-13.915h3.836
		l-1.176,3.55c-0.279,0.844-0.018,1.815,0.716,2.31c0.343,0.231,0.715,0.333,1.076,0.333c0.805,0,1.554-0.513,1.823-1.323
		l1.611-4.87h5.426l1.612,4.87c0.268,0.81,1.019,1.323,1.823,1.323c0.36,0,0.732-0.102,1.075-0.332
		c0.734-0.492,0.997-1.46,0.719-2.302l-1.177-3.559h3.835c0.339,1.47,4.747,8.184,5.748,9.619c0.875-1.071,1.931-2.581,2.781-3.575
		c-0.33-0.562-4.478-5.923-4.652-6.458c2.243-0.883,3.838-3.082,3.838-5.65c0-2.504-1.515-4.658-3.67-5.582l4.449-17.575
		c0.477-1.697,0.171-3.264-0.837-4.304c-1.014-1.047-2.575-1.388-4.281-0.936c-0.033,0.008-0.065,0.018-0.096,0.028
		c-0.084,0.027-8.376,2.694-11.13,3.49c-1.791,0.518-4.934,0.52-6.727,0.006c-2.784-0.798-11.164-3.476-11.247-3.504
		c-0.033-0.01-0.064-0.018-0.097-0.027c-1.707-0.449-3.268-0.106-4.282,0.942c-1.013,1.047-1.314,2.628-0.827,4.337
		c0.006,0.02,0.013,0.04,0.019,0.06l5.646,17.537c-2.09,0.952-3.55,3.07-3.55,5.528c0,2.568,1.595,4.767,3.839,5.65
		c-1.07,3.296-5.321,7.112-10.141,11.438c-5.379,4.828-12.074,10.836-17.31,18.657C3,95.377,0,105.291,0,116.468
		c0,10.079,4.02,19.326,11.32,26.04c7.817,7.187,18.74,10.986,31.585,10.986c0,0,11.425-0.032,15.12-0.675
		c4.818-0.836,17.26-5.825,17.705-5.834c-0.512-0.287-2.5-2.985-4.035-2.395C69.852,145.298,67.854,146.088,65.886,146.831
		 M63.396,52.606h-8.232H38.806c-1.2,0-2.176-0.984-2.176-2.194c0-1.208,0.974-2.191,2.172-2.193h0.004h0.006h10.232h0.006h0.009
		h4.085h0.008h0.006h10.238c1.201,0,2.178,0.984,2.178,2.193C65.574,51.623,64.597,52.606,63.396,52.606 M34.355,26.188
		c-0.068-0.244-0.077-0.407-0.073-0.501c0.093-0.008,0.25-0.003,0.484,0.055c0.791,0.253,8.553,2.73,11.304,3.52
		c2.479,0.711,6.361,0.707,8.839-0.009c2.721-0.787,10.397-3.253,11.185-3.505c0.231-0.058,0.387-0.062,0.479-0.058
		c0.004,0.1-0.008,0.27-0.08,0.524c-0.005,0.021-0.011,0.039-0.016,0.059l-4.575,18.075h-6.292l1.452-5.852
		c0.257-1.037-0.368-2.087-1.398-2.347c-1.028-0.258-2.072,0.371-2.33,1.408l-1.686,6.791h-1.098l-1.684-6.791
		c-0.258-1.037-1.302-1.668-2.33-1.408c-1.03,0.26-1.656,1.31-1.399,2.347l1.452,5.852h-6.388L34.355,26.188z"/>
</g>
</svg>
