<?xml version="1.0" encoding="utf-8"?>
<!-- Generator: Adobe Illustrator 16.0.0, SVG Export Plug-In . SVG Version: 6.00 Build 0)  -->
<!DOCTYPE svg PUBLIC "-//W3C//DTD SVG 1.1//EN" "http://www.w3.org/Graphics/SVG/1.1/DTD/svg11.dtd">
<svg version="1.1" id="Layer_1" xmlns="http://www.w3.org/2000/svg" xmlns:xlink="http://www.w3.org/1999/xlink" x="0px" y="0px"
	 width="66.032px" height="54.651px" viewBox="0 0 66.032 54.651" enable-background="new 0 0 66.032 54.651" xml:space="preserve">
<g>
	<path d="M51.867,39.523c-0.039-0.011-0.078-0.02-0.118-0.025l-8.064-1.21c-1.304-0.844-1.427-2.936-1.429-5.202
		c2.546-2.625,4.134-6.32,4.134-10.408v-0.331c1.977-1.755,3.101-4.246,3.101-6.904V9.239C49.491,4.145,45.347,0,40.252,0H26.813
		c-1.928,0-3.549,1.349-3.966,3.153c-3.548,0.429-6.307,3.458-6.307,7.12v5.169c0,2.66,1.125,5.149,3.102,6.904v0.331
		c0,4.088,1.588,7.783,4.135,10.408c-0.003,2.267-0.126,4.358-1.43,5.202l-8.064,1.21c-0.04,0.006-0.079,0.015-0.118,0.025
		c-1.774,0.497-3.283,1.597-4.364,3.181C8.814,44.15,8.27,45.896,8.27,47.619v4.005c0,1.67,1.49,3.027,3.32,3.027h42.851
		c1.832,0,3.321-1.357,3.321-3.027v-4.005c0-1.724-0.544-3.469-1.531-4.915C55.149,41.12,53.641,40.021,51.867,39.523
		 M33.016,37.087c2.706,0,5.226-0.872,7.334-2.366c0.092,1.77,0.459,3.732,1.897,4.914c-0.778,3.961-4.643,6.885-9.231,6.885
		s-8.453-2.924-9.231-6.885c1.438-1.182,1.804-3.145,1.898-4.914C27.79,36.215,30.31,37.087,33.016,37.087 M21.58,21.992
		c0.005-0.06,0.005-0.118,0-0.177v-5.341c0-1.744,1.421-3.166,3.166-3.166H42.32c0.535,0,0.969-0.433,0.969-0.969
		c0-0.535-0.434-0.969-0.969-0.969H24.746c-2.814,0-5.104,2.29-5.104,5.104v2.922c-0.752-1.163-1.164-2.527-1.164-3.955v-5.169
		c0-2.886,2.348-5.233,5.234-5.233c0.535,0,0.969-0.434,0.969-0.969c0-1.175,0.957-2.132,2.132-2.132h13.439
		c4.027,0,7.301,3.274,7.301,7.301v6.202c0,1.428-0.411,2.792-1.163,3.955v-3.955c0-0.535-0.434-0.97-0.969-0.97
		c-0.535,0-0.969,0.435-0.969,0.97v7.236c0,6.876-5.13,12.471-11.436,12.471S21.58,29.554,21.58,22.678V21.992z M55.824,51.624
		c0,0.591-0.633,1.089-1.382,1.089H11.59c-0.749,0-1.382-0.498-1.382-1.089v-4.005c0-2.456,1.52-5.368,4.425-6.214l7.312-1.098
		c1.084,4.711,5.666,8.15,11.071,8.15s9.987-3.439,11.071-8.15l7.313,1.098c2.905,0.846,4.424,3.758,4.424,6.214V51.624z"/>
	<path d="M6.138,43.418H2.49c-0.316,0-0.552-0.191-0.552-0.362v-2.592c0-1.455,0.891-3.177,2.594-3.685l5.276-0.792
		c0.023-0.003,0.045-0.008,0.067-0.013c0.01-0.003,0.02-0.003,0.03-0.006c0.036-0.01,0.071-0.021,0.105-0.034
		c0.008-0.003,0.017-0.007,0.025-0.012c0.028-0.011,0.055-0.023,0.082-0.037c0.004-0.003,0.009-0.005,0.014-0.007
		c0.008-0.005,0.015-0.01,0.024-0.015c0.007-0.004,0.015-0.008,0.022-0.013c1.174-0.67,1.58-1.882,1.72-3.068
		c1.287,0.764,2.764,1.2,4.335,1.2c1.318,0,2.589-0.3,3.777-0.892c0.479-0.237,0.675-0.819,0.436-1.299
		c-0.238-0.479-0.82-0.674-1.299-0.437c-0.917,0.457-1.898,0.688-2.914,0.688c-3.892,0-7.057-3.466-7.057-7.725v-4.134
		c0-0.942,0.765-1.707,1.706-1.707h2.494c0.535,0,0.969-0.435,0.969-0.97c0-0.534-0.434-0.969-0.969-0.969h-2.494
		c-2.01,0-3.644,1.635-3.644,3.646v0.508c-0.085-0.342-0.13-0.696-0.13-1.057v-3.345c0-1.678,1.366-3.044,3.044-3.044
		c0.536,0,0.969-0.434,0.969-0.969c0-0.572,0.466-1.037,1.037-1.037h1.218c0.535,0,0.969-0.434,0.969-0.969
		c0-0.536-0.434-0.969-0.969-0.969h-1.218c-1.326,0-2.453,0.873-2.836,2.074c-2.353,0.396-4.152,2.449-4.152,4.913v3.345
		c0,1.796,0.749,3.477,2.068,4.674v0.009c0,2.748,1.075,5.229,2.795,6.991c-0.011,1.232-0.105,2.338-0.715,2.791l-5.136,0.771
		c-0.039,0.006-0.079,0.015-0.117,0.025C1.396,35.646,0,38.264,0,40.464v2.592c0,1.269,1.117,2.301,2.49,2.301h3.648
		c0.535,0,0.969-0.435,0.969-0.969C7.107,43.853,6.673,43.418,6.138,43.418"/>
	<path d="M61.968,34.897c-0.039-0.012-0.078-0.021-0.118-0.025l-5.136-0.771c-0.609-0.452-0.703-1.558-0.714-2.79
		c1.72-1.762,2.795-4.243,2.795-6.991v-0.008c1.319-1.198,2.068-2.88,2.068-4.677v-5.227c0-2.815-2.29-5.105-5.104-5.105h-3.102
		c-0.535,0-0.969,0.435-0.969,0.97s0.434,0.97,0.969,0.97h3.102c1.746,0,3.166,1.42,3.166,3.166v5.229
		c0,0.36-0.046,0.714-0.13,1.056v-0.509c0-2.009-1.634-3.644-3.644-3.644h-2.494c-0.535,0-0.969,0.434-0.969,0.969
		c0,0.536,0.434,0.97,0.969,0.97h2.494c0.941,0,1.706,0.765,1.706,1.705v4.135c0,4.261-3.165,7.726-7.057,7.726
		c-1.016,0-1.997-0.23-2.913-0.687c-0.48-0.239-1.062-0.043-1.3,0.436c-0.239,0.479-0.043,1.062,0.436,1.299
		c1.188,0.591,2.459,0.892,3.777,0.892c1.571,0,3.048-0.437,4.335-1.2c0.14,1.186,0.546,2.398,1.72,3.069
		c0.007,0.004,0.015,0.008,0.022,0.012c0.008,0.005,0.016,0.01,0.025,0.015c0.004,0.002,0.009,0.004,0.013,0.006
		c0.027,0.016,0.054,0.027,0.082,0.039c0.008,0.003,0.016,0.007,0.025,0.01c0.034,0.014,0.069,0.025,0.105,0.034
		c0.01,0.002,0.02,0.003,0.03,0.006c0.022,0.006,0.044,0.011,0.067,0.014l5.275,0.792c1.704,0.507,2.595,2.229,2.595,3.685v2.591
		c0,0.171-0.237,0.363-0.552,0.363h-3.648c-0.535,0-0.969,0.435-0.969,0.969c0,0.535,0.434,0.971,0.969,0.971h3.648
		c1.373,0,2.49-1.033,2.49-2.303v-2.591C66.032,38.263,64.636,35.646,61.968,34.897"/>
</g>
</svg>
