<?xml version="1.0" encoding="utf-8"?>
<!-- Generator: Adobe Illustrator 16.0.0, SVG Export Plug-In . SVG Version: 6.00 Build 0)  -->
<!DOCTYPE svg PUBLIC "-//W3C//DTD SVG 1.1//EN" "http://www.w3.org/Graphics/SVG/1.1/DTD/svg11.dtd">
<svg version="1.1" id="Layer_1" xmlns="http://www.w3.org/2000/svg" xmlns:xlink="http://www.w3.org/1999/xlink" x="0px" y="0px"
	 width="429.648px" height="512px" viewBox="0 0 429.648 512" enable-background="new 0 0 429.648 512" xml:space="preserve">
<g>
	<path fill="#137074" d="M363.347,0h-53.552c9.381,12.406,14.955,27.842,14.955,44.559v231.782
		c0,40.825-33.213,74.036-74.038,74.036c-2.552,0-5.074-0.13-7.56-0.383c-37.287-3.798-66.479-35.381-66.479-73.654V44.559
		c0-16.717,5.576-32.153,14.956-44.559h-89.44v445.695c0,36.56-29.744,66.305-66.305,66.305h327.46
		c36.561,0,66.305-29.744,66.305-66.305V66.306C429.651,29.744,399.907,0,363.347,0"/>
	<path fill="#137074" d="M0,0v30.417v415.278c0,19.788,16.099,35.887,35.887,35.887c19.788,0,35.887-16.099,35.887-35.887V0H0z"/>
	<path fill="#137074" d="M250.715,0.94c-24.054,0-43.622,19.568-43.622,43.619v231.782c0,23.3,18.364,42.393,41.38,43.563
		c0.742,0.038,1.489,0.057,2.242,0.057s1.499-0.019,2.242-0.057c21.53-1.096,38.99-17.874,41.154-39.109
		c0.148-1.464,0.226-2.951,0.226-4.453V44.559C294.335,20.507,274.767,0.94,250.715,0.94 M250.713,66.515
		c-12.124,0-21.954-9.83-21.954-21.955s9.829-21.955,21.954-21.955s21.954,9.83,21.954,21.955S262.837,66.515,250.713,66.515"/>
</g>
</svg>
