<?xml version="1.0" encoding="utf-8"?>
<!-- Generator: Adobe Illustrator 16.0.0, SVG Export Plug-In . SVG Version: 6.00 Build 0)  -->
<!DOCTYPE svg PUBLIC "-//W3C//DTD SVG 1.1//EN" "http://www.w3.org/Graphics/SVG/1.1/DTD/svg11.dtd">
<svg version="1.1" id="Layer_1" xmlns="http://www.w3.org/2000/svg" xmlns:xlink="http://www.w3.org/1999/xlink" x="0px" y="0px"
	 width="376px" height="376px" viewBox="0 0 376 376" enable-background="new 0 0 376 376" xml:space="preserve">
<g>
	<path d="M320.938,55.062C285.43,19.555,238.219,0,188,0C137.781,0,90.57,19.555,55.062,55.062C19.555,90.574,0,137.781,0,188
		s19.555,97.43,55.062,132.938C90.57,356.445,137.781,376,188,376c50.219,0,97.43-19.555,132.938-55.062
		C356.445,285.43,376,238.219,376,188S356.445,90.574,320.938,55.062 M188,364c-97.047,0-176-78.953-176-176S90.953,12,188,12
		s176,78.953,176,176S285.047,364,188,364"/>
	<path d="M209.668,191.789l77.328-77.328c2.34-2.344,2.34-6.141,0-8.484l-16.973-16.969c-1.125-1.125-2.652-1.758-4.242-1.758
		s-3.117,0.629-4.242,1.758l-60.813,60.812c-2.344,2.344-2.344,6.141,0,8.485c2.344,2.343,6.141,2.343,8.484,0l56.57-56.571
		l8.484,8.485l-67.063,67.062c-3.176-5.668-8.793-9.793-15.414-10.949l-51.875-51.871c-2.34-2.344-6.141-2.344-8.484,0
		l-16.969,16.969c-2.344,2.343-2.344,6.144,0,8.484l51.871,51.875c0.434,2.477,1.277,4.809,2.465,6.93l-62.785,62.785
		c-2.344,2.34-2.344,6.141,0,8.484c1.172,1.172,2.707,1.758,4.242,1.758c1.535,0,3.074-0.586,4.242-1.758l62.785-62.785
		C180.457,208.98,184.109,210,188,210C198.84,210,207.863,202.121,209.668,191.789 M135.676,127.188l41.605,41.609
		c-3.551,1.988-6.496,4.933-8.484,8.484l-41.609-41.605L135.676,127.188z M188,198c-2.746,0-5.238-1.113-7.047-2.914
		c-1.84-1.848-2.953-4.34-2.953-7.086c0-5.516,4.484-10,10-10c5.516,0,10,4.484,10,10C198,193.516,193.516,198,188,198"/>
	<path d="M194,78V54c0-3.312-2.688-6-6-6c-3.312,0-6,2.688-6,6v24c0,3.312,2.688,6,6,6C191.312,84,194,81.312,194,78"/>
	<path d="M328,188c0-3.312-2.688-6-6-6h-24c-3.313,0-6,2.688-6,6c0,3.313,2.688,6,6,6h24C325.312,194,328,191.313,328,188"/>
	<path d="M182,298v24c0,3.312,2.688,6,6,6c3.312,0,6-2.688,6-6v-24c0-3.312-2.688-6-6-6C184.688,292,182,294.688,182,298"/>
	<path d="M54,182c-3.312,0-6,2.688-6,6c0,3.313,2.688,6,6,6h24c3.312,0,6-2.688,6-6c0-3.312-2.688-6-6-6H54z"/>
	<path d="M188,24C97.57,24,24,97.57,24,188c0,90.43,73.57,164,164,164c39.133,0,77.051-14.07,106.773-39.617
		c2.512-2.16,2.797-5.949,0.637-8.461c-2.16-2.516-5.949-2.801-8.461-0.641C259.402,326.961,224.262,340,188,340
		c-83.812,0-152-68.188-152-152c0-83.812,68.188-152,152-152c83.812,0,152,68.188,152,152c0,36.262-13.039,71.402-36.719,98.949
		c-2.16,2.512-1.875,6.301,0.641,8.461c2.512,2.16,6.301,1.875,8.461-0.637C337.93,265.051,352,227.133,352,188
		C352,97.57,278.43,24,188,24"/>
</g>
</svg>
