<?xml version="1.0" encoding="utf-8"?>
<!-- Generator: Adobe Illustrator 16.0.0, SVG Export Plug-In . SVG Version: 6.00 Build 0)  -->
<!DOCTYPE svg PUBLIC "-//W3C//DTD SVG 1.1//EN" "http://www.w3.org/Graphics/SVG/1.1/DTD/svg11.dtd">
<svg version="1.1" id="Layer_1" xmlns="http://www.w3.org/2000/svg" xmlns:xlink="http://www.w3.org/1999/xlink" x="0px" y="0px"
	 width="48px" height="48px" viewBox="0 0 48 48" enable-background="new 0 0 48 48" xml:space="preserve">
<g>
	<path d="M24,20.801c3.09,0,5.602-2.512,5.602-5.602c0-3.086-2.512-5.597-5.602-5.597s-5.602,2.511-5.602,5.597
		C18.398,18.289,20.91,20.801,24,20.801 M24,11.199c2.207,0,4,1.797,4,4c0,2.207-1.793,4-4,4s-4-1.793-4-4
		C20,12.996,21.793,11.199,24,11.199"/>
	<path d="M23.859,43.805l12.274-17.727c4.602-6.137,3.938-16.223-1.426-21.582C31.809,1.598,27.957,0,23.859,0
		c-4.097,0-7.953,1.598-10.847,4.492C7.648,9.855,6.98,19.941,11.566,26.055L23.859,43.805z M14.141,5.625
		c2.597-2.594,6.047-4.023,9.718-4.023c3.668,0,7.122,1.429,9.715,4.023c4.84,4.84,5.438,13.949,1.258,19.52L23.859,40.996
		L12.867,25.121C8.707,19.574,9.301,10.465,14.141,5.625"/>
	<path d="M33.695,34.406c-0.441-0.055-0.84,0.262-0.891,0.699c-0.051,0.441,0.262,0.836,0.703,0.891
		c8.41,0.988,12.891,3.656,12.891,5.203c0,2.172-8.52,5.199-22.398,5.199S1.602,43.371,1.602,41.199c0-1.547,4.48-4.215,12.89-5.203
		c0.442-0.055,0.754-0.453,0.703-0.891c-0.054-0.438-0.449-0.754-0.89-0.699C5.883,35.398,0,38.191,0,41.199
		C0,44.578,8.242,48,24,48s24-3.422,24-6.801C48,38.191,42.117,35.398,33.695,34.406"/>
</g>
</svg>
