<?xml version="1.0" encoding="utf-8"?>
<!-- Generator: Adobe Illustrator 16.0.0, SVG Export Plug-In . SVG Version: 6.00 Build 0)  -->
<!DOCTYPE svg PUBLIC "-//W3C//DTD SVG 1.1//EN" "http://www.w3.org/Graphics/SVG/1.1/DTD/svg11.dtd">
<svg version="1.1" id="Layer_1" xmlns="http://www.w3.org/2000/svg" xmlns:xlink="http://www.w3.org/1999/xlink" x="0px" y="0px"
	 width="454.878px" height="455px" viewBox="0 0 454.878 455" enable-background="new 0 0 454.878 455" xml:space="preserve">
<g>
	<path fill="#137074" d="M416.235,38.642c-51.523-51.523-135.059-51.523-186.581,0c-41.222,41.222-49.458,102.934-24.718,152.35
		L0.122,395.811L0,454.87L114.532,455v-55.705h55.705V343.59h55.705v-55.705l37.943-37.942
		c49.416,24.739,111.128,16.504,152.351-24.718C467.759,173.701,467.759,90.165,416.235,38.642 M374.294,137.001
		c-15.579,15.579-40.838,15.579-56.418,0s-15.579-40.838,0-56.418s40.838-15.579,56.418,0
		C389.874,96.163,389.874,121.422,374.294,137.001"/>
</g>
</svg>
