<?xml version="1.0" encoding="utf-8"?>
<!-- Generator: Adobe Illustrator 16.0.0, SVG Export Plug-In . SVG Version: 6.00 Build 0)  -->
<!DOCTYPE svg PUBLIC "-//W3C//DTD SVG 1.1//EN" "http://www.w3.org/Graphics/SVG/1.1/DTD/svg11.dtd">
<svg version="1.1" id="Layer_1" xmlns="http://www.w3.org/2000/svg" xmlns:xlink="http://www.w3.org/1999/xlink" x="0px" y="0px"
	 width="55.999px" height="54.271px" viewBox="0 0 55.999 54.271" enable-background="new 0 0 55.999 54.271" xml:space="preserve">
<g>
	<path d="M55.125,31.724l-2.85-2.851c-1.164-1.163-3.058-1.161-4.222,0l-15.39,15.392l-2.121,7.779l-0.519,0.519
		c-0.389,0.388-0.39,1.014-0.007,1.405l-0.005,0.02l0.02-0.005c0.193,0.19,0.445,0.288,0.699,0.288c0.256,0,0.512-0.098,0.707-0.293
		l0.52-0.521l7.778-2.12l15.39-15.392C56.29,34.782,56.29,32.888,55.125,31.724 M34.973,44.785l10.243-10.241l4.243,4.241
		L39.216,49.028L34.973,44.785z M34.07,46.71l3.22,3.22l-4.428,1.208L34.07,46.71z M53.711,34.532l-2.839,2.839l-4.243-4.241
		l2.839-2.84c0.385-0.385,1.01-0.384,1.395-0.001l2.85,2.851C54.096,33.522,54.096,34.148,53.711,34.532"/>
	<path d="M27,12.001c-0.552,0-1,0.447-1,1s0.448,1,1,1h18c0.552,0,1-0.447,1-1s-0.448-1-1-1H27z"/>
	<path d="M46,27.001c0-0.553-0.448-1-1-1H27c-0.552,0-1,0.447-1,1s0.448,1,1,1h18C45.552,28.001,46,27.553,46,27.001"/>
	<path d="M20.58,7.242c-0.418-0.36-1.05-0.313-1.41,0.108l-6.248,7.288L9.1,11.772c-0.442-0.33-1.068-0.242-1.4,0.2
		c-0.332,0.441-0.242,1.068,0.2,1.399l4.571,3.429c0.18,0.135,0.39,0.2,0.6,0.2c0.283,0,0.563-0.119,0.76-0.35l6.857-8
		C21.047,8.232,20.999,7.601,20.58,7.242"/>
	<path d="M20.58,21.242c-0.418-0.36-1.05-0.313-1.41,0.108l-6.248,7.288L9.1,25.772c-0.442-0.331-1.068-0.241-1.4,0.2
		c-0.332,0.441-0.242,1.068,0.2,1.398l4.571,3.43c0.18,0.135,0.39,0.199,0.6,0.199c0.283,0,0.563-0.118,0.76-0.35l6.857-8
		C21.047,22.232,20.999,21.601,20.58,21.242"/>
	<path d="M19.169,36.35l-6.248,7.287L9.1,40.771c-0.442-0.331-1.068-0.241-1.4,0.2c-0.332,0.44-0.242,1.067,0.2,1.398l4.571,3.43
		c0.18,0.135,0.39,0.199,0.6,0.199c0.283,0,0.563-0.118,0.76-0.35l6.857-7.999c0.359-0.419,0.311-1.05-0.108-1.409
		C20.161,35.882,19.529,35.93,19.169,36.35"/>
	<path d="M25,52.001H12.176C6.565,52.001,2,47.436,2,41.825V12.176C2,6.565,6.565,2.001,12.176,2.001h29.648
		C47.435,2.001,52,6.565,52,12.176V24c0,0.553,0.448,1,1,1s1-0.447,1-1V12.176C54,5.462,48.538,0,41.824,0H12.176
		C5.462,0.001,0,5.462,0,12.176v29.648C0,48.538,5.462,54,12.176,54H25c0.552,0,1-0.446,1-1C26,52.447,25.552,52.001,25,52.001"/>
</g>
</svg>
