<?xml version="1.0" encoding="utf-8"?>
<!-- Generator: Adobe Illustrator 16.0.0, SVG Export Plug-In . SVG Version: 6.00 Build 0)  -->
<!DOCTYPE svg PUBLIC "-//W3C//DTD SVG 1.1//EN" "http://www.w3.org/Graphics/SVG/1.1/DTD/svg11.dtd">
<svg version="1.1" id="Layer_1" xmlns="http://www.w3.org/2000/svg" xmlns:xlink="http://www.w3.org/1999/xlink" x="0px" y="0px"
	 width="290.676px" height="391.346px" viewBox="0 0 290.676 391.346" enable-background="new 0 0 290.676 391.346"
	 xml:space="preserve">
<g>
	<defs>
		<rect id="SVGID_1_" width="290.676" height="391.346"/>
	</defs>
	<clipPath id="SVGID_2_">
		<use xlink:href="#SVGID_1_"  overflow="visible"/>
	</clipPath>
	<path clip-path="url(#SVGID_2_)" d="M289.707,176.648l-19.121-26.16c-1.198-1.68-1.276-4-0.078-5.68l18.72-26.398
		c1.679-2.399,0.882-5.762-1.681-7.121l-28.559-15.278c-1.84-0.961-2.879-3.043-2.48-5.121l5.359-31.922
		c0.481-2.879-1.679-5.597-4.64-5.679l-32.321-1.36c-2.078-0.078-3.918-1.519-4.479-3.519l-8.957-31.199
		c-0.802-2.801-3.923-4.321-6.642-3.122l-29.762,12.801c-1.918,0.801-4.16,0.321-5.597-1.199L147.867,1.61
		c-2-2.16-5.359-2.16-7.359,0.082l-21.281,24.398c-1.36,1.602-3.598,2.083-5.52,1.282L83.789,15.051
		c-2.723-1.121-5.762,0.399-6.562,3.2L68.668,49.45c-0.559,2-2.32,3.441-4.398,3.601l-32.321,1.84
		c-2.961,0.16-5.043,2.879-4.562,5.758l5.84,31.84c0.402,2.082-0.641,4.16-2.399,5.121l-28.32,15.68
		c-2.559,1.441-3.281,4.8-1.602,7.121l19.121,26.16c1.2,1.68,1.282,4,0.082,5.68L1.387,178.648c-1.68,2.402-0.879,5.762,1.679,7.121
		l28.563,15.281c1.84,0.961,2.879,3.039,2.48,5.122l-5.363,31.917c-0.476,2.879,1.68,5.603,4.641,5.681l32.32,1.359
		c2.082,0.082,3.922,1.52,4.481,3.52l9.039,31.121c0.8,2.801,3.921,4.319,6.64,3.12l29.762-12.801c1.918-0.8,4.16-0.319,5.598,1.2
		l21.601,24.082c2,2.16,5.36,2.16,7.36-0.082l21.281-24.399c1.358-1.601,3.597-2.081,5.519-1.28l29.918,12.319
		c2.723,1.121,5.762-0.397,6.563-3.198l8.558-31.199c0.559-2,2.321-3.442,4.399-3.603l32.319-1.84
		c2.961-0.16,5.043-2.878,4.563-5.757l-5.84-31.844c-0.403-2.078,0.64-4.156,2.397-5.117l28.321-15.68
		C290.746,182.411,291.47,179.051,289.707,176.648 M145.388,236.411c-48.399,0-87.84-39.442-87.84-87.84
		c0-48.398,39.441-87.84,87.84-87.84c48.401,0,87.84,39.442,87.84,87.84C233.228,197.05,193.789,236.411,145.388,236.411"/>
	<path clip-path="url(#SVGID_2_)" d="M224.508,293.211c-4.641,4.718-11.12,7.52-18.081,7.52c-2.478,0-4.957-0.398-7.278-1.039
		l-20.641-6.242l-15.922,14.562c-0.559,0.478-1.039,0.957-1.598,1.36l25.598,79.359c0.884,2.801,4.48,3.441,6.32,1.121
		l18.641-23.923c0.88-1.198,2.48-1.679,3.841-1.28l29.039,8.48c2.801,0.8,5.362-1.84,4.479-4.559L224.508,293.211z"/>
	<path clip-path="url(#SVGID_2_)" d="M112.348,293.45l-20.641,6.242c-2.398,0.719-4.801,1.039-7.281,1.039
		c-6.957,0-13.36-2.802-18.078-7.52l-24.399,75.438c-0.883,2.801,1.68,5.362,4.477,4.563l29.043-8.48
		c1.437-0.398,2.957,0.078,3.84,1.28l18.64,23.918c1.758,2.321,5.438,1.681,6.321-1.12l25.597-79.359
		c-0.558-0.399-1.121-0.879-1.597-1.36L112.348,293.45z"/>
	<path clip-path="url(#SVGID_2_)" d="M197.47,126.73l-33.121-2.398L151.867,93.61c-2.32-5.758-10.558-5.758-12.879,0l-12.48,30.723
		l-33.121,2.398c-6.239,0.481-8.719,8.238-4,12.238l25.359,21.442l-7.918,32.238c-1.519,6.083,5.121,10.883,10.399,7.602
		l28.16-17.52l28.159,17.52c5.281,3.281,11.923-1.52,10.402-7.602l-7.922-32.238l25.36-21.442
		C206.188,134.969,203.707,127.211,197.47,126.73"/>
</g>
</svg>
