<?xml version="1.0" encoding="utf-8"?>
<!-- Generator: Adobe Illustrator 16.0.0, SVG Export Plug-In . SVG Version: 6.00 Build 0)  -->
<!DOCTYPE svg PUBLIC "-//W3C//DTD SVG 1.1//EN" "http://www.w3.org/Graphics/SVG/1.1/DTD/svg11.dtd">
<svg version="1.1" id="Layer_1" xmlns="http://www.w3.org/2000/svg" xmlns:xlink="http://www.w3.org/1999/xlink" x="0px" y="0px"
	 width="364px" height="364px" viewBox="0 0 364 364" enable-background="new 0 0 364 364" xml:space="preserve">
<path d="M34,295h102v24H34V295z M34,239h102v24H34V239z M0,364h170V194H0V364z"/>
<path d="M235.844,111.184L262.031,85l-27.578-27.578l16.969-16.969L279,68.031l26.184-26.188l16.973,16.972L295.969,85
	l27.578,27.578l-16.969,16.969L279,101.969l-26.184,26.188L235.844,111.184z M194,170h169.999V0.001H194V170z"/>
<path d="M34,73h39V35.969h24V73h39v24H97v37.031H73V97H34V73z M0,170h170V0.001H0V170z"/>
<path d="M228,267h102.001v24H228V267z M194,364h169.999V194H194V364z"/>
</svg>
