<?xml version="1.0" encoding="utf-8"?>
<!-- Generator: Adobe Illustrator 16.0.0, SVG Export Plug-In . SVG Version: 6.00 Build 0)  -->
<!DOCTYPE svg PUBLIC "-//W3C//DTD SVG 1.1//EN" "http://www.w3.org/Graphics/SVG/1.1/DTD/svg11.dtd">
<svg version="1.1" id="Layer_1" xmlns="http://www.w3.org/2000/svg" xmlns:xlink="http://www.w3.org/1999/xlink" x="0px" y="0px"
	 width="352.5px" height="424.981px" viewBox="0 0 352.5 424.981" enable-background="new 0 0 352.5 424.981" xml:space="preserve">
<g opacity="0.6">
	<path fill="#151515" d="M198.511,92.467c32.33-27.16,53.93-88.34,40.64-91.02c-17.659-3.56-56.02,12.04-74.56,14.79
		c-26.3,3.18-54.94-28.51-71.01-10.85c-13.08,14.36,9.37,66.59,44.48,89.35c-104.75,51.48-251.99,309.93,4.87,328.69
		C498.341,449.367,320.371,142.637,198.511,92.467 M221.454,280.007c-10.675,10.057-26.48,14.572-44.955,14.572
		c-4.106,0-7.801-0.206-10.674-0.613v10.797h35.884v22.832h-35.884v15.841h-30.997v-15.841h-16.509v-22.832h16.509v-11.216h-16.509
		v-22.83h16.509v-63.79c9.648-1.642,23.196-2.874,42.288-2.874c19.295,0,33.049,3.695,42.285,11.085
		c8.827,6.979,14.78,18.475,14.78,32.022S229.665,272.205,221.454,280.007"/>
	<path fill="#151515" d="M178.757,227.661c-6.364,0-10.674,0.616-12.932,1.232v40.849c2.668,0.616,5.953,0.82,10.469,0.82
		c16.627,0,26.891-8.415,26.891-22.579C203.185,235.256,194.357,227.661,178.757,227.661"/>
</g>
</svg>
