<?xml version="1.0" encoding="utf-8"?>
<!-- Generator: Adobe Illustrator 16.0.0, SVG Export Plug-In . SVG Version: 6.00 Build 0)  -->
<!DOCTYPE svg PUBLIC "-//W3C//DTD SVG 1.1//EN" "http://www.w3.org/Graphics/SVG/1.1/DTD/svg11.dtd">
<svg version="1.1" id="Layer_1" xmlns="http://www.w3.org/2000/svg" xmlns:xlink="http://www.w3.org/1999/xlink" x="0px" y="0px"
	 width="512.003px" height="448.877px" viewBox="0 0 512.003 448.877" enable-background="new 0 0 512.003 448.877"
	 xml:space="preserve">
<g>
	<path fill="#004F5F" d="M512,393.979V84.922H0v309.058h240.792v24.48h-65.383v30.417h161.183V418.46h-65.383v-24.48H512z
		 M121.312,334.363c-40.843-6.521-73.183-38.86-79.703-79.704h79.703V334.363z M121.312,224.242H41.609
		c6.521-40.843,38.86-73.183,79.703-79.703V224.242 M151.729,334.363V144.539c45.799,7.311,80.911,47.086,80.911,94.912
		C232.64,287.276,197.527,327.051,151.729,334.363 M416.45,158.54h53.94v34.244h-53.94V158.54z M416.45,223.201h53.94v97.162h-53.94
		V223.201z M342.231,188.025h53.94v34.243h-53.94V188.025z M342.231,252.685h53.94v67.678h-53.94V252.685z M268.012,217.51h53.941
		v34.243h-53.941V217.51z M268.012,282.169h53.941v38.193h-53.941V282.169z"/>
	<rect fill="#004F5F" width="512.003" height="54.508"/>
</g>
</svg>
