<?xml version="1.0" encoding="utf-8"?>
<!-- Generator: Adobe Illustrator 16.0.0, SVG Export Plug-In . SVG Version: 6.00 Build 0)  -->
<!DOCTYPE svg PUBLIC "-//W3C//DTD SVG 1.1//EN" "http://www.w3.org/Graphics/SVG/1.1/DTD/svg11.dtd">
<svg version="1.1" id="Layer_1" xmlns="http://www.w3.org/2000/svg" xmlns:xlink="http://www.w3.org/1999/xlink" x="0px" y="0px"
	 width="351px" height="463px" viewBox="0 0 351 463" enable-background="new 0 0 351 463" xml:space="preserve">
<g>
	<path d="M348.803,90.197l-88-88C259.397,0.79,257.489,0,255.5,0h-232C10.542,0,0,10.542,0,23.5v416C0,452.458,10.542,463,23.5,463
		h304c12.958,0,23.5-10.542,23.5-23.5v-344C351,93.511,350.21,91.603,348.803,90.197 M263,25.606L325.394,88H271.5
		c-4.688,0-8.5-3.813-8.5-8.5V25.606z M327.5,448h-304c-4.687,0-8.5-3.813-8.5-8.5v-416c0-4.687,3.813-8.5,8.5-8.5H248v64.5
		c0,12.958,10.542,23.5,23.5,23.5H336v336.5C336,444.187,332.187,448,327.5,448"/>
	<path d="M79.5,208h-16c-8.547,0-15.5,6.953-15.5,15.5v16c0,8.547,6.953,15.5,15.5,15.5h16c8.547,0,15.5-6.953,15.5-15.5v-16
		C95,214.953,88.047,208,79.5,208 M80,239.5c0,0.276-0.224,0.5-0.5,0.5h-16c-0.276,0-0.5-0.224-0.5-0.5v-16
		c0-0.276,0.224-0.5,0.5-0.5h16c0.276,0,0.5,0.224,0.5,0.5V239.5z"/>
	<path d="M119.5,223h72c4.142,0,7.5-3.358,7.5-7.5s-3.358-7.5-7.5-7.5h-72c-4.142,0-7.5,3.358-7.5,7.5S115.358,223,119.5,223"/>
	<path d="M119.5,255h104c4.142,0,7.5-3.358,7.5-7.5s-3.358-7.5-7.5-7.5h-104c-4.142,0-7.5,3.358-7.5,7.5S115.358,255,119.5,255"/>
	<path d="M79.5,136h-16c-8.547,0-15.5,6.953-15.5,15.5v16c0,8.547,6.953,15.5,15.5,15.5h16c8.547,0,15.5-6.953,15.5-15.5v-16
		C95,142.953,88.047,136,79.5,136 M80,167.5c0,0.276-0.224,0.5-0.5,0.5h-16c-0.276,0-0.5-0.224-0.5-0.5v-16
		c0-0.276,0.224-0.5,0.5-0.5h16c0.276,0,0.5,0.224,0.5,0.5V167.5z"/>
	<path d="M119.5,151h104c4.142,0,7.5-3.358,7.5-7.5s-3.358-7.5-7.5-7.5h-104c-4.142,0-7.5,3.358-7.5,7.5S115.358,151,119.5,151"/>
	<path d="M295.5,168h-176c-4.142,0-7.5,3.358-7.5,7.5s3.358,7.5,7.5,7.5h176c4.142,0,7.5-3.358,7.5-7.5S299.642,168,295.5,168"/>
	<path d="M79.5,64h-16C54.953,64,48,70.953,48,79.5v16c0,8.547,6.953,15.5,15.5,15.5h16c8.547,0,15.5-6.953,15.5-15.5v-16
		C95,70.953,88.047,64,79.5,64 M80,95.5c0,0.276-0.224,0.5-0.5,0.5h-16c-0.276,0-0.5-0.224-0.5-0.5v-16c0-0.276,0.224-0.5,0.5-0.5
		h16c0.276,0,0.5,0.224,0.5,0.5V95.5z"/>
	<path d="M119.5,79h72c4.142,0,7.5-3.358,7.5-7.5s-3.358-7.5-7.5-7.5h-72c-4.142,0-7.5,3.358-7.5,7.5S115.358,79,119.5,79"/>
	<path d="M119.5,111h104c4.142,0,7.5-3.358,7.5-7.5s-3.358-7.5-7.5-7.5h-104c-4.142,0-7.5,3.358-7.5,7.5S115.358,111,119.5,111"/>
	<path d="M79.5,352h-16c-8.547,0-15.5,6.953-15.5,15.5v16c0,8.547,6.953,15.5,15.5,15.5h16c8.547,0,15.5-6.953,15.5-15.5v-16
		C95,358.953,88.047,352,79.5,352 M80,383.5c0,0.276-0.224,0.5-0.5,0.5h-16c-0.276,0-0.5-0.224-0.5-0.5v-16
		c0-0.276,0.224-0.5,0.5-0.5h16c0.276,0,0.5,0.224,0.5,0.5V383.5z"/>
	<path d="M119.5,367h72c4.142,0,7.5-3.358,7.5-7.5s-3.358-7.5-7.5-7.5h-72c-4.142,0-7.5,3.358-7.5,7.5S115.358,367,119.5,367"/>
	<path d="M223.5,384h-104c-4.142,0-7.5,3.358-7.5,7.5s3.358,7.5,7.5,7.5h104c4.142,0,7.5-3.358,7.5-7.5S227.642,384,223.5,384"/>
	<path d="M79.5,280h-16c-8.547,0-15.5,6.953-15.5,15.5v16c0,8.547,6.953,15.5,15.5,15.5h16c8.547,0,15.5-6.953,15.5-15.5v-16
		C95,286.953,88.047,280,79.5,280 M80,311.5c0,0.276-0.224,0.5-0.5,0.5h-16c-0.276,0-0.5-0.224-0.5-0.5v-16
		c0-0.276,0.224-0.5,0.5-0.5h16c0.276,0,0.5,0.224,0.5,0.5V311.5z"/>
	<path d="M119.5,295h104c4.142,0,7.5-3.358,7.5-7.5s-3.358-7.5-7.5-7.5h-104c-4.142,0-7.5,3.358-7.5,7.5S115.358,295,119.5,295"/>
	<path d="M295.5,312h-176c-4.142,0-7.5,3.358-7.5,7.5s3.358,7.5,7.5,7.5h176c4.142,0,7.5-3.358,7.5-7.5S299.642,312,295.5,312"/>
</g>
</svg>
