<?xml version="1.0" encoding="utf-8"?>
<!-- Generator: Adobe Illustrator 16.0.0, SVG Export Plug-In . SVG Version: 6.00 Build 0)  -->
<!DOCTYPE svg PUBLIC "-//W3C//DTD SVG 1.1//EN" "http://www.w3.org/Graphics/SVG/1.1/DTD/svg11.dtd">
<svg version="1.1" id="Layer_1" xmlns="http://www.w3.org/2000/svg" xmlns:xlink="http://www.w3.org/1999/xlink" x="0px" y="0px"
	 width="529.655px" height="476.692px" viewBox="0 0 529.655 476.692" enable-background="new 0 0 529.655 476.692"
	 xml:space="preserve">
<g>
	<path d="M123.586,70.62C54.285,70.62,0,101.64,0,141.241v52.966v52.966v52.966v52.966v52.966
		c0,39.602,54.285,70.621,123.586,70.621c69.301,0,123.586-31.019,123.586-70.621v-52.966v-52.966v-52.966v-52.966v-52.966
		C247.172,101.64,192.887,70.62,123.586,70.62 M229.517,406.069c0,28.711-48.511,52.966-105.931,52.966
		S17.655,434.78,17.655,406.069v-16.075c22.069,20.373,60.457,33.731,105.931,33.731s86.069-13.358,105.931-33.731V406.069z
		 M229.517,353.103c0,28.711-48.511,52.966-105.931,52.966S17.655,381.814,17.655,353.103v-16.075
		c22.069,20.373,60.457,33.731,105.931,33.731s86.069-13.358,105.931-33.731V353.103z M229.517,300.138
		c0,28.711-48.511,52.966-105.931,52.966S17.655,328.849,17.655,300.138v-16.075c22.069,20.373,60.457,33.73,105.931,33.73
		s86.069-13.357,105.931-33.73V300.138z M229.517,247.172c0,28.711-48.511,52.966-105.931,52.966S17.655,275.883,17.655,247.172
		v-16.076c22.069,20.374,60.457,33.731,105.931,33.731s86.069-13.357,105.931-33.731V247.172z M229.517,194.207
		c0,28.711-48.511,52.966-105.931,52.966S17.655,222.918,17.655,194.207v-16.076c22.069,20.373,60.457,33.731,105.931,33.731
		s86.069-13.358,105.931-33.731V194.207z M124.69,194.207c-57.42,0-105.931-24.254-105.931-52.966
		c0-28.712,48.511-52.966,105.931-52.966s105.931,24.254,105.931,52.966C230.621,169.953,182.11,194.207,124.69,194.207"/>
	<path d="M406.069,0c-69.302,0-123.586,31.019-123.586,70.621v52.966v52.966v52.964v52.966v52.966v52.966
		c0,39.602,54.284,70.621,123.586,70.621c69.301,0,123.586-31.019,123.586-70.621v-52.966v-52.966v-52.966v-52.966v-52.966V70.62
		C529.655,31.019,475.37,0,406.069,0 M512,388.414c0,28.711-48.511,52.967-105.931,52.967s-105.932-24.255-105.932-52.967v-16.075
		c22.069,20.372,60.457,33.73,105.932,33.73c45.474,0,86.068-13.358,105.931-33.73V388.414z M512,335.448
		c0,28.711-48.511,52.966-105.931,52.966s-105.932-24.254-105.932-52.966v-16.076c22.069,20.373,60.457,33.731,105.932,33.731
		c45.474,0,86.068-13.358,105.931-33.731V335.448z M512,282.483c0,28.711-48.511,52.966-105.931,52.966
		s-105.932-24.254-105.932-52.966v-16.076c22.069,20.373,60.457,33.731,105.932,33.731c45.474,0,86.068-13.358,105.931-33.731
		V282.483z M512,229.517c0,28.711-48.511,52.966-105.931,52.966s-105.932-24.254-105.932-52.966v-16.076
		c22.069,20.373,60.457,33.731,105.932,33.731c45.474,0,86.068-13.358,105.931-33.731V229.517z M512,176.551
		c0,28.712-48.511,52.966-105.931,52.966s-105.932-24.254-105.932-52.966v-16.076c22.069,20.373,60.457,33.731,105.932,33.731
		c45.474,0,86.068-13.358,105.931-33.731V176.551z M512,123.586c0,28.711-48.511,52.966-105.931,52.966
		s-105.932-24.254-105.932-52.966V107.51c22.069,20.373,60.457,33.731,105.932,33.731c45.474,0,86.068-13.358,105.931-33.731
		V123.586z M407.172,123.586c-57.42,0-105.931-24.254-105.931-52.966c0-28.711,48.511-52.966,105.931-52.966
		S513.103,41.908,513.103,70.62C513.103,99.332,464.593,123.586,407.172,123.586"/>
</g>
</svg>
