<?xml version="1.0" encoding="utf-8"?>
<!-- Generator: Adobe Illustrator 16.0.0, SVG Export Plug-In . SVG Version: 6.00 Build 0)  -->
<!DOCTYPE svg PUBLIC "-//W3C//DTD SVG 1.1//EN" "http://www.w3.org/Graphics/SVG/1.1/DTD/svg11.dtd">
<svg version="1.1" id="Layer_1" xmlns="http://www.w3.org/2000/svg" xmlns:xlink="http://www.w3.org/1999/xlink" x="0px" y="0px"
	 width="308.325px" height="320.648px" viewBox="0 0 308.325 320.648" enable-background="new 0 0 308.325 320.648"
	 xml:space="preserve">
<g opacity="0.6">
	<path fill="#161616" d="M133.058,124.494c12.369-13.416,19.184-31.412,19.184-50.678C152.242,37.134,126.041,0,75.955,0
		C52.646,0,32.982,8.006,19.086,23.152C6.777,36.57,0,54.562,0,73.816c0,36.686,26.09,73.818,75.955,73.818
		C99.351,147.635,119.101,139.635,133.058,124.494 M75.955,34.322c27.443,0,39.941,20.486,39.941,39.52
		c0,10.354-3.484,19.939-9.816,26.986c-7.064,7.871-17.33,12.033-29.68,12.033c-28.137,0-40.955-20.484-40.955-39.516
		C35.445,53.924,47.973,34.322,75.955,34.322"/>
	<path fill="#161616" d="M258.113,28.476c-4.539,0.082-10.736,2.912-13.772,6.287L19.025,285.275
		c-3.035,3.377-0.885,8.111,3.654,8.111h29.49c4.539,0,10.73-2.769,13.76-6.148L289.852,36.777c3.029-3.383,2.828-8.887-4.672-8.885
		L258.113,28.476z"/>
	<path fill="#161616" d="M233.486,175.822c-22.859,0-42.15,7.858-55.783,22.715c-12.074,13.158-18.727,30.812-18.727,49.699
		c0,35.984,25.595,72.412,74.511,72.412c22.957,0,42.325-7.85,56.02-22.701c12.135-13.162,18.818-30.815,18.818-49.711
		C308.324,212.251,282.619,175.822,233.486,175.822 M233.928,287.417c-27.375,0-39.848-20.557-39.848-39.647
		c0-10.397,3.481-20.019,9.809-27.092c7.054-7.895,17.287-12.066,29.599-12.066c27.377,0,39.844,20.553,39.844,39.65
		c0,10.395-3.483,20.018-9.805,27.092C256.471,283.246,246.236,287.417,233.928,287.417"/>
</g>
</svg>
