<?xml version="1.0" encoding="utf-8"?>
<!-- Generator: Adobe Illustrator 16.0.0, SVG Export Plug-In . SVG Version: 6.00 Build 0)  -->
<!DOCTYPE svg PUBLIC "-//W3C//DTD SVG 1.1//EN" "http://www.w3.org/Graphics/SVG/1.1/DTD/svg11.dtd">
<svg version="1.1" id="Layer_1" xmlns="http://www.w3.org/2000/svg" xmlns:xlink="http://www.w3.org/1999/xlink" x="0px" y="0px"
	 width="478.4px" height="489.4px" viewBox="0 0 478.4 489.4" enable-background="new 0 0 478.4 489.4" xml:space="preserve">
<polygon fill="#004F5F" points="275.7,30.7 275.7,99.8 344.8,99.8 "/>
<g>
	<path fill="#004F5F" d="M218.2,447.4L258.6,314.2l116.9-116.9v-72.2H262.9c-7,0-12.801-5.8-12.801-12.8V0H0v489.4h376V382.6
		l-39.2,39.2L218.2,447.4z M57,72.3h156.9c7,0,12.8,5.8,12.8,12.8s-5.8,12.8-12.8,12.8H57c-7,0-12.8-5.8-12.8-12.8
		S50.1,72.3,57,72.3 M57,149.5h156.9c7,0,12.8,5.8,12.8,12.8s-5.8,12.8-12.8,12.8H57c-7,0-12.8-5.8-12.8-12.8
		C44.2,155,50.1,149.5,57,149.5 M57,251.7c-7,0-12.8-5.8-12.8-12.8S50,226.1,57,226.1h156.9c7,0,12.8,5.8,12.8,12.8
		s-5.8,12.8-12.8,12.8H57z"/>
	<polygon fill="#004F5F" points="422.1,186.8 290.1,318.9 346.8,375.6 478.4,243.5 	"/>
	<polygon fill="#004F5F" points="323.9,388.4 276.9,341.4 256.3,409.4 	"/>
</g>
</svg>
