<?xml version="1.0" encoding="utf-8"?>
<!-- Generator: Adobe Illustrator 16.0.0, SVG Export Plug-In . SVG Version: 6.00 Build 0)  -->
<!DOCTYPE svg PUBLIC "-//W3C//DTD SVG 1.1//EN" "http://www.w3.org/Graphics/SVG/1.1/DTD/svg11.dtd">
<svg version="1.1" id="Layer_1" xmlns="http://www.w3.org/2000/svg" xmlns:xlink="http://www.w3.org/1999/xlink" x="0px" y="0px"
	 width="266.215px" height="328.809px" viewBox="0 0 266.215 328.809" enable-background="new 0 0 266.215 328.809"
	 xml:space="preserve">
<g>
	<defs>
		<rect id="SVGID_1_" width="266.215" height="328.809"/>
	</defs>
	<clipPath id="SVGID_2_">
		<use xlink:href="#SVGID_1_"  overflow="visible"/>
	</clipPath>
	<path clip-path="url(#SVGID_2_)" d="M262.734,60.09h-56.613V3.477c0-1.918-1.555-3.477-3.477-3.477H92.105
		c-1.917,0-3.476,1.559-3.476,3.477v55.75c0,1.918,1.559,3.476,3.476,3.476h53.352l58.055,58.016v115.983
		c0,1.919,1.555,3.478,3.477,3.478h55.746c1.922,0,3.48-1.559,3.48-3.478V63.57C266.211,61.648,264.656,60.09,262.734,60.09"/>
	<path clip-path="url(#SVGID_2_)" d="M227.062,42.082h36.216c1.188,0,2.258-0.715,2.711-1.812c0.457-1.094,0.207-2.356-0.633-3.196
		L229.137,0.859c-0.836-0.839-2.098-1.089-3.195-0.636s-1.809,1.523-1.809,2.711v36.214
		C224.133,40.77,225.445,42.082,227.062,42.082"/>
	<path clip-path="url(#SVGID_2_)" d="M174.105,148.723h-56.613V92.105c0-1.918-1.558-3.476-3.48-3.476H3.477
		C1.559,88.629,0,90.187,0,92.105v233.228c0,1.918,1.555,3.477,3.477,3.477h170.628c1.922,0,3.477-1.559,3.477-3.477V152.199
		C177.582,150.277,176.027,148.723,174.105,148.723 M134.457,285.598c0,2.547-2.066,4.617-4.617,4.617H47.742
		c-2.551,0-4.617-2.07-4.617-4.617v-9.524c0-2.551,2.066-4.616,4.617-4.616h82.098c2.551,0,4.617,2.065,4.617,4.616V285.598z
		 M134.457,244.941c0,2.547-2.066,4.618-4.617,4.618H47.742c-2.551,0-4.617-2.067-4.617-4.618v-9.522
		c0-2.552,2.066-4.617,4.617-4.617h82.098c2.551,0,4.617,2.065,4.617,4.617V244.941z M134.457,204.285
		c0,2.548-2.066,4.617-4.617,4.617H47.742c-2.551,0-4.617-2.065-4.617-4.617v-9.522c0-2.551,2.066-4.617,4.617-4.617h82.098
		c2.551,0,4.617,2.066,4.617,4.617V204.285z"/>
	<path clip-path="url(#SVGID_2_)" d="M140.918,89.355c-0.84-0.839-2.102-1.089-3.195-0.636c-1.098,0.453-1.813,1.523-1.813,2.711
		v36.215c0,1.621,1.313,2.933,2.934,2.933h36.215c1.188,0,2.253-0.715,2.711-1.812c0.453-1.094,0.203-2.356-0.637-3.196
		L140.918,89.355z"/>
</g>
</svg>
