<?xml version="1.0" encoding="utf-8"?>
<!-- Generator: Adobe Illustrator 16.0.0, SVG Export Plug-In . SVG Version: 6.00 Build 0)  -->
<!DOCTYPE svg PUBLIC "-//W3C//DTD SVG 1.1//EN" "http://www.w3.org/Graphics/SVG/1.1/DTD/svg11.dtd">
<svg version="1.1" id="Layer_1" xmlns="http://www.w3.org/2000/svg" xmlns:xlink="http://www.w3.org/1999/xlink" x="0px" y="0px"
	 width="101.68px" height="71.215px" viewBox="0 0 101.68 71.215" enable-background="new 0 0 101.68 71.215" xml:space="preserve">
<polygon fill="#FFFFFF" points="30.502,27.723 26.413,27.723 26.413,28.416 30.155,28.416 30.155,57.802 0.7,57.802 0.7,28.416 
	11.997,28.416 11.997,27.723 0.423,27.723 0.077,27.723 0.077,28.07 0.077,58.148 0.077,58.495 0.423,58.495 30.502,58.495 
	30.849,58.495 30.849,58.148 30.849,28.07 30.849,27.723 "/>
<g>
	<path fill-rule="evenodd" clip-rule="evenodd" fill="#FFFFFF" d="M1.947,56.762l0.139-5.752c0.555-0.208,1.109-0.416,1.733-0.624
		l0.138,6.376H1.947z M6.729,56.762H4.582l0.347-6.792c0.554-0.208,1.109-0.416,1.594-0.693L6.729,56.762z M9.502,56.762H7.354
		l0.416-8.04c0.485-0.208,1.04-0.485,1.525-0.693L9.502,56.762z M12.345,56.693h-2.149l0.485-9.426
		c0.485-0.277,0.97-0.484,1.386-0.762L12.345,56.693z M15.117,56.693h-2.148l0.623-11.09c0.416-0.276,0.832-0.554,1.248-0.831
		L15.117,56.693z M17.958,56.693H15.81l0.693-13.029c0.346-0.277,0.762-0.555,1.109-0.832L17.958,56.693z M20.73,56.624h-2.149
		l0.832-15.387c0.346-0.276,0.624-0.554,0.901-0.832L20.73,56.624z M23.571,56.624h-2.148l1.039-18.297
		c0.208-0.277,0.485-0.485,0.694-0.763L23.571,56.624z M26.345,56.624h-2.149l1.248-22.109c0.138-0.207,0.277-0.346,0.416-0.554
		L26.345,56.624z M29.186,56.554h-2.148l1.386-27.099h0.069L29.186,56.554z"/>
	<path fill-rule="evenodd" clip-rule="evenodd" fill="#FFFFFF" d="M14.839,41.654l-0.971,0.623l-1.316,0.832
		c0.069-1.178,0.207-3.466,0.277-5.406l0.97-17.673c0.139,0.277,0.347,0.485,0.485,0.693L14.839,41.654z M17.542,39.436
		c-0.692,0.623-1.455,1.178-2.148,1.731l1.04-18.782c0.207,0.139,0.485,0.208,0.693,0.347L17.542,39.436z M20.314,36.802
		c-0.624,0.624-1.248,1.316-1.941,1.871l0.832-15.386c0.277,0.069,0.485,0.069,0.762,0.069L20.314,36.802z M23.018,33.544
		c-0.554,0.694-1.109,1.456-1.663,2.08l0.693-12.268c0.277,0,0.485-0.069,0.762-0.069L23.018,33.544z M25.512,29.386
		c-0.416,0.832-0.901,1.732-1.386,2.495l0.485-9.079c0.208-0.069,0.485-0.208,0.693-0.277L25.512,29.386z"/>
	<path fill-rule="evenodd" clip-rule="evenodd" fill="#FFFFFF" d="M15.533,19.336c-0.555-0.416-1.109-0.901-1.594-1.386L14.77,0
		h0.07L15.533,19.336z M17.958,20.515c-0.554-0.138-1.178-0.415-1.732-0.693l0.693-14.97c0.138,0.277,0.277,0.485,0.485,0.693
		L17.958,20.515z M19.69,7.139l0.624,11.366l0.069,2.149c-0.555,0.138-1.109,0.138-1.733,0l0.624-13.515
		C19.414,7.208,19.552,7.208,19.69,7.139"/>
	<path fill-rule="evenodd" clip-rule="evenodd" fill="#FFFFFF" d="M48.799,27.723v2.772h-1.386v-1.663h-6.03v11.782h3.881
		c3.05,0.208,4.228-6.861-1.663-6.584v1.663h-1.109V32.92h1.802c4.089-0.139,5.822,2.564,5.891,4.645
		c-0.069,2.425-2.287,4.227-4.99,4.227l-7.554,0.001v-1.109h1.386V28.9h-1.386v-1.109h11.158V27.723z"/>
	<path fill-rule="evenodd" clip-rule="evenodd" fill="#FFFFFF" d="M59.473,35.277l-2.425-5.336l-2.08,5.267L59.473,35.277z
		 M50.186,40.614h1.248l6.028-14.832l6.861,14.832h1.387v1.108h-5.197v-1.108h1.386l-1.941-4.229h-5.475l-1.663,4.229h1.247v1.108
		h-3.95v-1.108H50.186z"/>
	<polygon fill-rule="evenodd" clip-rule="evenodd" fill="#FFFFFF" points="70.908,40.614 72.294,40.614 72.294,41.722 
		67.096,41.722 67.096,40.614 68.482,40.614 68.482,28.832 67.096,28.832 67.096,27.723 72.294,27.723 72.294,28.832 70.908,28.832 
		70.908,32.852 77.839,32.852 77.839,28.832 76.453,28.832 76.453,27.723 81.651,27.723 81.651,28.832 80.265,28.832 80.265,40.614 
		81.651,40.614 81.651,41.722 76.453,41.722 76.453,40.614 77.839,40.614 77.839,34.03 70.908,34.03 	"/>
	<polygon fill-rule="evenodd" clip-rule="evenodd" fill="#FFFFFF" points="94.403,40.614 93.018,40.614 93.018,41.722 
		98.562,41.722 98.562,40.614 97.175,40.614 90.383,32.92 95.65,28.832 97.037,28.832 97.037,27.723 92.255,27.723 92.255,28.832 
		93.71,28.832 87.958,33.336 	"/>
	<polygon fill-rule="evenodd" clip-rule="evenodd" fill="#FFFFFF" points="86.849,40.614 88.234,40.614 88.234,41.722 
		83.037,41.722 83.037,40.614 84.423,40.614 84.423,28.832 83.037,28.832 83.037,27.723 88.234,27.723 88.234,28.832 86.849,28.832 
			"/>
	<path fill-rule="evenodd" clip-rule="evenodd" fill="#FFFFFF" d="M40.275,50.802c3.95,0,4.089,6.584,0.208,6.584h-4.575v-1.663
		h-1.386v2.771h5.961c2.703,0,5.267-1.248,5.267-4.228c0-2.495-1.455-3.604-3.95-4.089c-0.208-0.069-0.208-0.139,0-0.207
		c2.148-0.348,2.98-1.179,2.98-2.703c0-1.871-2.079-2.772-5.753-2.772l-0.138-0.001h-4.367v2.772h1.386v-1.663h2.911
		c2.426,0,3.466,0.416,3.466,1.663c0,1.248-0.901,2.287-2.634,2.356h-2.356v2.842h1.108v-1.663H40.275z"/>
	<polygon fill-rule="evenodd" clip-rule="evenodd" fill="#FFFFFF" points="57.74,58.495 57.74,55.723 56.631,55.723 56.631,57.386 
		50.324,57.386 50.324,50.802 53.512,50.802 53.512,52.466 54.621,52.466 54.621,49.693 50.324,49.693 50.324,45.604 55.8,45.604 
		55.8,47.267 56.908,47.267 56.908,44.495 46.512,44.495 46.512,45.604 47.968,45.604 47.968,57.386 46.512,57.386 46.512,58.495 	
		"/>
	<polygon fill-rule="evenodd" clip-rule="evenodd" fill="#FFFFFF" points="62.591,57.386 64.047,57.386 64.047,58.495 
		58.849,58.495 58.849,57.386 60.235,57.386 60.235,45.604 58.849,45.604 58.849,44.495 64.047,44.495 64.047,45.604 62.591,45.604 
		62.591,49.693 69.591,49.693 69.591,45.604 68.205,45.604 68.205,44.495 73.403,44.495 73.403,45.604 72.018,45.604 72.018,57.386 
		73.403,57.386 73.403,58.495 68.205,58.495 68.205,57.386 69.591,57.386 69.591,50.802 62.591,50.802 	"/>
	<polygon fill-rule="evenodd" clip-rule="evenodd" fill="#FFFFFF" points="88.512,43.109 88.512,57.385 89.898,57.385 
		89.898,58.495 84.7,58.495 84.7,57.385 86.156,57.385 86.156,47.96 75.898,59.88 75.898,45.604 74.512,45.604 74.512,44.495 
		79.71,44.495 79.71,45.604 78.324,45.604 78.324,54.96 	"/>
	<polygon fill-rule="evenodd" clip-rule="evenodd" fill="#FFFFFF" points="101.681,44.495 101.681,47.267 100.571,47.267 
		100.571,45.604 96.968,45.604 96.968,57.386 98.354,57.386 98.354,58.495 93.226,58.495 93.226,57.386 94.611,57.386 
		94.611,45.604 91.008,45.604 91.008,47.267 89.898,47.267 89.898,44.495 	"/>
	<path fill-rule="evenodd" clip-rule="evenodd" fill="#FFFFFF" d="M82.76,66.049c1.178,0,1.248,2.01,0.069,2.01h-1.387v-0.554
		h-0.416v0.83h1.803c0.832,0,1.594-0.415,1.594-1.315c0-0.763-0.485-1.109-1.178-1.248c-0.069,0-0.069-0.069,0-0.069
		c0.624-0.139,0.9-0.347,0.9-0.832c0-0.554-0.624-0.832-1.732-0.832h-0.069h-1.317v0.832h0.416v-0.484h0.901
		c0.762,0,1.04,0.138,1.04,0.484c0,0.416-0.278,0.693-0.832,0.763H81.79v0.832h0.346V65.98h0.624V66.049z"/>
	<polygon fill-rule="evenodd" clip-rule="evenodd" fill="#FFFFFF" points="88.165,68.406 88.165,67.504 87.819,67.504 
		87.819,68.059 85.878,68.059 85.878,66.049 86.849,66.049 86.849,66.535 87.195,66.535 87.195,65.703 85.878,65.703 85.878,64.456 
		87.541,64.456 87.541,64.94 87.889,64.94 87.889,64.108 84.7,64.108 84.7,64.456 85.116,64.456 85.116,68.059 84.7,68.059 
		84.7,68.406 	"/>
	<polygon fill-rule="evenodd" clip-rule="evenodd" fill="#FFFFFF" points="89.621,68.059 90.106,68.059 90.106,68.405 
		88.512,68.405 88.512,68.059 88.928,68.059 88.928,64.455 88.512,64.455 88.512,64.108 90.106,64.108 90.106,64.455 89.621,64.455 
		89.621,65.703 91.769,65.703 91.769,64.455 91.354,64.455 91.354,64.108 92.948,64.108 92.948,64.455 92.532,64.455 92.532,68.059 
		92.948,68.059 92.948,68.405 91.354,68.405 91.354,68.059 91.769,68.059 91.769,66.049 89.621,66.049 	"/>
	<polygon fill-rule="evenodd" clip-rule="evenodd" fill="#FFFFFF" points="97.591,63.693 97.591,68.059 98.007,68.059 
		98.007,68.406 96.413,68.406 96.413,68.059 96.829,68.059 96.829,65.148 93.71,68.822 93.71,64.456 93.294,64.456 93.294,64.109 
		94.889,64.109 94.889,64.456 94.473,64.456 94.473,67.296 	"/>
	<polygon fill-rule="evenodd" clip-rule="evenodd" fill="#FFFFFF" points="101.611,64.108 101.611,64.94 101.265,64.94 
		101.265,64.456 100.156,64.456 100.156,68.059 100.641,68.059 100.641,68.406 99.047,68.406 99.047,68.059 99.463,68.059 
		99.463,64.456 98.354,64.456 98.354,64.94 98.007,64.94 98.007,64.108 	"/>
	<path fill-rule="evenodd" clip-rule="evenodd" fill="#FFFFFF" d="M3.473,64.108v0.832H3.057v-0.484H1.186v3.604h1.178
		c0.97,0.069,1.317-2.08-0.485-2.01v0.485H1.532v-0.832h0.555c1.247-0.069,1.802,0.762,1.802,1.386c0,0.763-0.693,1.317-1.525,1.317
		H0.008v-0.347h0.416v-3.604H0.008v-0.348H3.473z"/>
	<path fill-rule="evenodd" clip-rule="evenodd" fill="#FFFFFF" d="M6.938,66.465l-0.763-1.663l-0.623,1.593L6.938,66.465z
		 M4.096,68.059h0.416l1.871-4.574l2.079,4.574h0.416v0.346H7.284v-0.346H7.7l-0.624-1.317H5.414l-0.485,1.317h0.415v0.346H4.166
		v-0.346H4.096z"/>
	<path fill-rule="evenodd" clip-rule="evenodd" fill="#FFFFFF" d="M39.305,66.465l-0.762-1.663l-0.624,1.593L39.305,66.465z
		 M36.462,68.059h0.416l1.871-4.574l2.079,4.574h0.416v0.346H39.65v-0.346h0.416l-0.624-1.317H37.78l-0.485,1.317h0.416v0.346
		h-1.178v-0.346H36.462z"/>
	<polygon fill-rule="evenodd" clip-rule="evenodd" fill="#FFFFFF" points="10.403,68.059 10.889,68.059 10.889,68.405 9.294,68.405 
		9.294,68.059 9.71,68.059 9.71,64.455 9.294,64.455 9.294,64.108 10.889,64.108 10.889,64.455 10.403,64.455 10.403,65.703 
		12.551,65.703 12.551,64.455 12.136,64.455 12.136,64.108 13.73,64.108 13.73,64.455 13.314,64.455 13.314,68.059 13.73,68.059 
		13.73,68.405 12.136,68.405 12.136,68.059 12.551,68.059 12.551,66.049 10.403,66.049 	"/>
	<polygon fill-rule="evenodd" clip-rule="evenodd" fill="#FFFFFF" points="17.75,68.059 17.334,68.059 17.334,68.405 18.997,68.405 
		18.997,68.059 18.582,68.059 16.503,65.703 18.096,64.455 18.582,64.455 18.582,64.108 17.126,64.108 17.126,64.455 17.542,64.455 
		15.74,65.841 	"/>
	<polygon fill-rule="evenodd" clip-rule="evenodd" fill="#FFFFFF" points="15.394,68.059 15.878,68.059 15.878,68.405 
		14.285,68.405 14.285,68.059 14.701,68.059 14.701,64.455 14.285,64.455 14.285,64.108 15.878,64.108 15.878,64.455 15.394,64.455 
			"/>
	<polygon fill-rule="evenodd" clip-rule="evenodd" fill="#FFFFFF" points="34.799,68.059 34.383,68.059 34.383,68.405 
		36.116,68.405 36.116,68.059 35.7,68.059 33.621,65.703 35.215,64.455 35.631,64.455 35.631,64.108 34.175,64.108 34.175,64.455 
		34.591,64.455 32.858,65.841 	"/>
	<polygon fill-rule="evenodd" clip-rule="evenodd" fill="#FFFFFF" points="32.512,68.059 32.928,68.059 32.928,68.405 
		31.334,68.405 31.334,68.059 31.75,68.059 31.75,64.455 31.334,64.455 31.334,64.108 32.928,64.108 32.928,64.455 32.512,64.455 	
		"/>
	<path fill-rule="evenodd" clip-rule="evenodd" fill="#FFFFFF" d="M21.007,64.108c-1.178,0-2.148,0.971-2.148,2.149
		c0,1.178,0.97,2.147,2.148,2.147c1.178,0,2.148-0.97,2.148-2.147C23.156,65.079,22.255,64.108,21.007,64.108 M21.007,68.059
		c-0.762,0-1.317-0.832-1.317-1.802c0-0.971,0.624-1.803,1.317-1.803c0.762,0,1.317,0.832,1.317,1.803
		C22.393,67.227,21.771,68.059,21.007,68.059"/>
	<path fill-rule="evenodd" clip-rule="evenodd" fill="#FFFFFF" d="M26.206,65.841C26.136,65.841,26.136,65.841,26.206,65.841
		c0.485-0.139,0.693-0.416,0.693-0.693c0-0.485-0.416-1.039-1.663-1.039l-1.872-0.001v0.347h0.416v3.604h-0.416v0.346h2.218
		c1.178,0,1.594-0.415,1.594-1.315C27.245,66.881,27.038,65.98,26.206,65.841 M25.582,68.059h-1.039v-3.604h0.693
		c0.415,0,0.97,0.14,0.97,0.693c0,0.485-0.346,0.555-0.555,0.555h-0.693v0.831h0.347v-0.484h0.416c0.207,0,0.9-0.069,0.9,1.108
		C26.482,68.059,25.582,68.059,25.582,68.059"/>
	<path fill-rule="evenodd" clip-rule="evenodd" fill="#FFFFFF" d="M28.493,66.257c0-0.832,0.416-2.148,2.01-1.803v0.485h0.346
		v-0.832h-0.831c-1.941,0-2.357,1.317-2.357,2.149c0,0.831,0.416,2.147,2.149,2.147h1.039v-0.899h-0.346v0.484
		C28.909,68.405,28.493,67.089,28.493,66.257"/>
	<path fill-rule="evenodd" clip-rule="evenodd" fill="#FFFFFF" d="M44.294,66.742l-1.455,1.317h0.415v0.346h-1.663v-0.346h0.416
		l1.386-1.317c-1.109,0-1.525-0.692-1.525-1.386c0-0.762,0.624-1.316,1.525-1.316h2.287v0.415h-0.416v3.535h0.416v0.346h-1.594
		V67.99h0.416v-3.604h-1.04c-0.623,0-0.97,0.484-0.97,0.97c0,0.416,0.069,1.178,1.386,0.97v-0.484h0.347v0.692v0.069v0.139H44.294z"
		/>
	<path fill-rule="evenodd" clip-rule="evenodd" fill="#FFFFFF" d="M75.482,66.465l-0.763-1.663l-0.623,1.593L75.482,66.465z
		 M72.641,68.059h0.416l1.871-4.574l2.079,4.574h0.416v0.346h-1.594v-0.346h0.416l-0.624-1.317h-1.663l-0.485,1.317h0.416v0.346
		H72.71v-0.346H72.641z"/>
	<polygon fill-rule="evenodd" clip-rule="evenodd" fill="#FFFFFF" points="63.908,64.455 63.908,68.059 64.394,68.059 
		64.394,68.405 62.799,68.405 62.799,68.059 63.215,68.059 63.215,64.455 62.799,64.455 62.799,64.108 67.235,64.108 67.235,64.455 
		66.819,64.455 66.819,68.059 67.235,68.059 67.235,68.405 65.642,68.405 65.642,68.059 66.057,68.059 66.057,64.455 	"/>
	<polygon fill-rule="evenodd" clip-rule="evenodd" fill="#FFFFFF" points="68.898,64.455 68.898,68.059 69.384,68.059 
		69.384,68.405 67.789,68.405 67.789,68.059 68.205,68.059 68.205,64.455 67.789,64.455 67.789,64.108 72.226,64.108 72.226,64.455 
		71.81,64.455 71.81,68.059 72.226,68.059 72.226,68.405 70.631,68.405 70.631,68.059 71.047,68.059 71.047,64.455 	"/>
	<path fill-rule="evenodd" clip-rule="evenodd" fill="#FFFFFF" d="M60.027,67.643l-1.941-3.188h-0.415v-0.348h1.594v0.348h-0.416
		l1.595,2.426l1.108-2.426h-0.416v-0.348h1.317v0.348h-0.416l-1.664,3.533c-0.346,0.624-1.178,0.485-1.663-0.068l-0.346-0.416
		l0.554-0.623l0.347,0.346l-0.347,0.347c0.208,0.415,0.97,0.693,1.178,0.139C59.958,67.712,60.027,67.643,60.027,67.643"/>
	<path fill-rule="evenodd" clip-rule="evenodd" fill="#FFFFFF" d="M55.245,68.406v-0.347h-0.416v-3.604h1.178
		c0.97-0.07,1.317,2.079-0.484,2.009v-0.554h-0.347v0.832h0.555c1.246,0.068,1.802-0.764,1.802-1.387
		c0-0.763-0.693-1.316-1.525-1.316h-2.355v0.346h0.416v3.604h-0.416v0.347h1.594V68.406z"/>
	<polygon fill-rule="evenodd" clip-rule="evenodd" fill="#FFFFFF" points="53.235,64.108 53.235,64.94 52.889,64.94 52.889,64.456 
		50.948,64.456 50.948,68.059 51.433,68.059 51.433,68.406 49.839,68.406 49.839,68.059 50.255,68.059 50.255,64.456 49.839,64.456 
		49.839,64.108 	"/>
	<rect x="0.077" y="61.543" fill-rule="evenodd" clip-rule="evenodd" fill="#FFFFFF" width="101.604" height="0.624"/>
	<rect y="70.591" fill-rule="evenodd" clip-rule="evenodd" fill="#FFFFFF" width="101.604" height="0.624"/>
</g>
</svg>
