<svg xmlns="http://www.w3.org/2000/svg" width="100" height="98" viewBox="0 0 100 98">
  <defs>
    <style>
      .cls-1 {
        fill: #fff;
        fill-rule: evenodd;
      }
    </style>
  </defs>
  <path id="_1" data-name="1" class="cls-1" d="M845.862,1144.62a0.205,0.205,0,0,1-.1-0.07l-6.328-5.71a1.516,1.516,0,0,0-2.132.1,1.5,1.5,0,0,0,.1,2.12l0.868,0.78-10.356,9.41a2.456,2.456,0,0,1-.141-0.79v-5.04a1.509,1.509,0,0,0-3.017,0v5.04a5.524,5.524,0,0,0,5.532,5.5h30.784a5.524,5.524,0,0,0,5.531-5.5v-17.58a5.524,5.524,0,0,0-5.531-5.5H838.644a1.5,1.5,0,1,0,0,3h22.431a1.68,1.68,0,0,1,.225.02l-15.353,14.16A0.238,0.238,0,0,1,845.862,1144.62Zm17.727-11.74v17.58a2.525,2.525,0,0,1-.077.59l-10.14-9.25,10.171-9.38A2.562,2.562,0,0,1,863.589,1132.88Zm-12.436,10.97,9.988,9.1c-0.023,0-.044.01-0.066,0.01H830.508l10.008-9.09,3.207,2.89a3.116,3.116,0,0,0,4.278,0Zm48.29,42.38-6.587-6.54a4.686,4.686,0,0,0-6.566-.34l-1.582,1.57c-1.023-1.2-1.948-2.35-2.841-3.46-4.54-5.67-8.127-10.14-17.83-11.42a28.9,28.9,0,0,0-17.145,3.11H831.2l-8.211-8.16a6.308,6.308,0,0,0-8.783-.06l-1.377-1.37a6.979,6.979,0,0,0-9.8,0,6.861,6.861,0,0,0,0,9.73l13.641,13.55a0.5,0.5,0,0,0,.087.08c1.5,1.28,14.868,12.46,21.08,12.46,7.658,0,26.192-2.45,30.063-2.97l2.795,2.44-0.564.56a4.611,4.611,0,0,0,.343,6.52l6.587,6.55a5.136,5.136,0,0,0,3.6,1.52,4.177,4.177,0,0,0,2.969-1.18l16.165-16.06A4.624,4.624,0,0,0,899.443,1186.23Zm-78.592-23.12,6.078,6.04h-2.242a5.969,5.969,0,0,0-1.9.31l-6.451-6.41A3.362,3.362,0,0,1,820.851,1163.11Zm48.519,26.59a1.555,1.555,0,0,0-1.205-.36c-0.221.03-22.152,3.05-30.334,3.05-3.832,0-13.712-7.17-19.076-11.71l-13.6-13.51a3.875,3.875,0,0,1,0-5.49,4.042,4.042,0,0,1,5.533,0l9.52,9.45a5.99,5.99,0,0,0,4.477,10.03h22.556a1.5,1.5,0,1,0,0-3H824.687a3.005,3.005,0,1,1,0-6.01h22.556c0.014,0,.028-0.01.042-0.01,0.058,0,.116-0.01.174-0.01l0.127-.03a0.734,0.734,0,0,0,.144-0.04c0.05-.02.1-0.03,0.145-0.05,0.015-.01.03-0.01,0.044-0.02a26.2,26.2,0,0,1,15.722-2.97c8.5,1.11,11.429,4.77,15.866,10.3,0.954,1.19,1.944,2.42,3.061,3.73l-9.741,9.67Zm28.282,0.94-16.165,16.06a1.233,1.233,0,0,1-.963.3,2.211,2.211,0,0,1-1.336-.64l-6.588-6.55a1.681,1.681,0,0,1-.342-2.28l16.166-16.06a1.157,1.157,0,0,1,.837-0.31,0.487,0.487,0,0,1,.125.01,2.16,2.16,0,0,1,1.337.64l6.586,6.54A1.7,1.7,0,0,1,897.652,1190.64Zm-50.674-65.59a1.5,1.5,0,0,0,1.508-1.5v-6.59l8.527,7.7a1.511,1.511,0,0,0,1.014.39,1.53,1.53,0,0,0,1.117-.49,1.5,1.5,0,0,0-.1-2.12L850.8,1115h22.913l-8.993,8.29a1.5,1.5,0,0,0,1.026,2.6,1.58,1.58,0,0,0,.752-0.23l7.07,6.44h-3.1a1.5,1.5,0,1,0,0,3h4.021a4.519,4.519,0,0,0,4.526-4.5v-14.11a4.517,4.517,0,0,0-4.526-4.49H850a4.517,4.517,0,0,0-4.526,4.49v7.06A1.5,1.5,0,0,0,846.978,1125.05Zm29.012,5.2-7.232-6.6,7.232-6.67v13.27Zm-69.466,11.03h24.5a3.514,3.514,0,0,0,3.52-3.5v-14.79a3.512,3.512,0,0,0-3.52-3.49h-24.5a3.512,3.512,0,0,0-3.52,3.49v14.79A3.514,3.514,0,0,0,806.524,1141.28Zm25-4.86-6.513-5.93,6.513-6.01v11.94Zm-14.463-2a2.666,2.666,0,0,0,3.687,0l2.044-1.89,6.31,5.75H808.658l6.321-5.74Zm1.839-2.39-10.565-9.54h20.906Zm-6.164-1.51-6.716,6.1v-12.17Z" transform="translate(-801 -1112)"/>
</svg>
