<svg xmlns="http://www.w3.org/2000/svg" width="118" height="70" viewBox="0 0 118 70">
  <defs>
    <style>
      .cls-1 {
        fill: #fff;
        fill-rule: evenodd;
      }
    </style>
  </defs>
  <path id="_2" data-name="2" class="cls-1" d="M1263.5,1128.99h-68.52a6.487,6.487,0,0,0-6.5,6.47v8.95a1.5,1.5,0,1,0,3,0v-8.95a3.24,3.24,0,0,1,.11-0.82l24.43,22.13-24.22,22.06a3.5,3.5,0,0,1-.32-1.45v-8.53a1.5,1.5,0,0,0-3,0v8.53a6.5,6.5,0,0,0,6.5,6.48h68.52a6.5,6.5,0,0,0,6.5-6.48v-41.92A6.493,6.493,0,0,0,1263.5,1128.99Zm-20.43,27.7,23.82-22.04a3.163,3.163,0,0,1,.11.81v41.92a3.527,3.527,0,0,1-.17,1.03Zm20.43-24.71a3.446,3.446,0,0,1,1.5.35l-34.04,31.48a1.842,1.842,0,0,1-2.7,0l-34.77-31.49a3.5,3.5,0,0,1,1.49-.34h68.52Zm-68.52,48.89a3.864,3.864,0,0,1-.84-0.11l24.11-21.98,7.98,7.23a4.841,4.841,0,0,0,6.78-.01l7.85-7.26,23.93,21.87a3.452,3.452,0,0,1-1.29.26h-68.52Zm3.56-20.18v-7.91c0-2.49-1.53-3.97-4.1-3.97h-10.33v-10.37c0-2.59-1.47-4.13-3.95-4.13h-9.47a3.778,3.778,0,0,0-4.1,4.13v10.37h-10.64a3.634,3.634,0,0,0-3.95,3.97v7.91a3.638,3.638,0,0,0,3.95,3.97h10.64v11.61a3.783,3.783,0,0,0,4.1,4.13h9.63c2.37,0,3.79-1.55,3.79-4.13v-11.61h10.33C1197.01,1164.66,1198.54,1163.17,1198.54,1160.69Zm-15.93.98a1.5,1.5,0,0,0-1.5,1.49v13.11c0,1.14-.3,1.14-0.79,1.14h-9.63c-0.86,0-1.1-.15-1.1-1.14v-13.11a1.5,1.5,0,0,0-1.5-1.49h-12.14c-0.76,0-.95-0.12-0.95-0.98v-7.91c0-.87.19-0.98,0.95-0.98h12.14a1.5,1.5,0,0,0,1.5-1.5v-11.86c0-.99.24-1.14,1.1-1.14h9.47c0.59,0,.95,0,0.95,1.14v11.86a1.5,1.5,0,0,0,1.5,1.5h11.83c1.01,0,1.1.25,1.1,0.98v7.91c0,0.73-.09.98-1.1,0.98h-11.83Zm81.7,24.1a1.5,1.5,0,0,0-1.5,1.49,1.786,1.786,0,0,1-1.79,1.78h-63.64a1.784,1.784,0,0,1-1.78-1.78,1.5,1.5,0,0,0-3,0,4.778,4.778,0,0,0,4.78,4.77h63.64a4.786,4.786,0,0,0,4.79-4.77A1.5,1.5,0,0,0,1264.31,1185.77Zm-3.89,8.05a1.5,1.5,0,0,0-1.5,1.5,0.691,0.691,0,0,1-.69.69h-58.05a0.7,0.7,0,0,1-.7-0.69,1.5,1.5,0,0,0-3,0,3.692,3.692,0,0,0,3.7,3.67h58.05a3.69,3.69,0,0,0,3.69-3.67A1.5,1.5,0,0,0,1260.42,1193.82Z" transform="translate(-1152 -1129)"/>
</svg>
