<svg xmlns="http://www.w3.org/2000/svg" width="98" height="83" viewBox="0 0 98 83">
  <defs>
    <style>
      .cls-1 {
        fill: #fff;
        fill-rule: evenodd;
      }
    </style>
  </defs>
  <path id="_3" data-name="3" class="cls-1" d="M1608.64,1191.01a1.5,1.5,0,0,0-1.51,1.49,7.511,7.511,0,0,1-7.51,7.5h-17.36v-6a1.505,1.505,0,0,0-3.01,0v6h-15.02v-38.85h2.92a1.5,1.5,0,1,0,0-3h-7.09v-19.16h23.37v11.9a1.5,1.5,0,0,0,3,0v-11.9h16.2a11.517,11.517,0,0,1,11.51,11.5,1.505,1.505,0,0,0,3.01,0,14.534,14.534,0,0,0-14.52-14.5h-62.11a14.534,14.534,0,0,0-14.52,14.5v5.16a5.512,5.512,0,0,0,5.51,5.5h1.5v31.35a10.522,10.522,0,0,0,10.52,10.5h56.09a10.522,10.522,0,0,0,10.52-10.5A1.5,1.5,0,0,0,1608.64,1191.01ZM1529,1155.65v-5.16a11.525,11.525,0,0,1,11.52-11.5h16.53v19.16h-25.54A2.509,2.509,0,0,1,1529,1155.65Zm7.02,36.85v-31.35h25.2V1200h-17.69A7.511,7.511,0,0,1,1536.02,1192.5Zm6.34-58.47a1.477,1.477,0,0,0,.35-0.05,1.492,1.492,0,0,0,1.11-1.8c-0.24-1.02-.58-4.04.76-5.74a4.537,4.537,0,0,1,3.81-1.44,16.528,16.528,0,0,1,11.67,5.33v2.2a1.5,1.5,0,1,0,3,0v-4.03c0-4.57,1.8-5.5,4.51-5.5h8.34c2.71,0,4.51.93,4.51,5.5v4.03a1.505,1.505,0,0,0,3.01,0v-2.2a16.326,16.326,0,0,1,11.67-5.33,4.55,4.55,0,0,1,3.81,1.44c1.34,1.7,1,4.72.75,5.73a1.513,1.513,0,0,0,1.11,1.82,2.21,2.21,0,0,0,.35.04,1.5,1.5,0,0,0,1.46-1.15c0.05-.2,1.21-5.08-1.3-8.28a7.407,7.407,0,0,0-6.18-2.6,18.743,18.743,0,0,0-11.82,4.36c-0.59-4.22-3.06-6.36-7.37-6.36h-8.34c-4.31,0-6.78,2.14-7.37,6.36a18.736,18.736,0,0,0-11.81-4.36c-2.75,0-4.83.87-6.18,2.6-2.52,3.2-1.36,8.08-1.31,8.28A1.5,1.5,0,0,0,1542.36,1134.03Zm76.13,20.33h-39.74a5.51,5.51,0,0,0-5.51,5.49v23.6a5.474,5.474,0,0,0,1.68,3.94h0l0.03,0.03a5.517,5.517,0,0,0,3.8,1.53h39.74a5.518,5.518,0,0,0,5.51-5.5v-23.6A5.51,5.51,0,0,0,1618.49,1154.36Zm-10.59,17.46,13.08-12.12c0,0.05.01,0.1,0.01,0.15v23.6a3.163,3.163,0,0,1-.03.32Zm10.59-14.46a2.483,2.483,0,0,1,.54.06l-19.76,18.3a0.547,0.547,0,0,1-.85,0l-20.18-18.31a2.844,2.844,0,0,1,.51-0.05h39.74Zm-42.15,26.71a2.113,2.113,0,0,1-.09-0.62v-23.6a0.985,0.985,0,0,1,.02-0.17l13.44,12.18Zm2.41,1.88h-0.02l13.21-12.06,4.45,4.04a3.513,3.513,0,0,0,4.92-.01l4.38-4.06,13.16,12.05a2.2,2.2,0,0,1-.36.04h-39.74Z" transform="translate(-1526 -1120)"/>
</svg>
