<svg xmlns="http://www.w3.org/2000/svg" xmlns:xlink="http://www.w3.org/1999/xlink" preserveAspectRatio="xMidYMid" width="76.62" height="76.62" viewBox="0 0 76.62 76.62">
  <defs>
    <style>
      .cls-1 {
        fill: #fff;
        fill-rule: evenodd;
      }
    </style>
  </defs>
  <path d="M38.302,-0.016 C17.166,-0.016 -0.016,17.169 -0.016,38.310 C-0.016,59.450 17.166,76.636 38.302,76.636 C45.920,76.636 53.277,74.412 59.576,70.182 C60.496,69.568 60.757,68.311 60.128,67.376 C59.515,66.441 58.258,66.196 57.339,66.824 C51.698,70.595 45.123,72.589 38.302,72.589 C19.404,72.604 4.015,57.212 4.015,38.310 C4.015,19.408 19.404,4.016 38.302,4.016 C57.201,4.016 72.589,19.408 72.589,38.310 C72.589,44.611 70.872,50.789 67.593,56.139 C66.995,57.120 66.075,57.473 65.416,57.595 C64.297,57.810 63.071,57.519 62.136,56.813 C62.029,56.737 61.906,56.707 61.799,56.645 C63.409,53.824 62.259,49.992 59.147,47.876 C57.385,46.680 55.622,45.423 53.921,44.105 C50.871,41.775 47.146,41.576 45.322,43.722 L44.264,44.979 C43.851,45.484 42.901,45.531 42.287,45.009 C40.571,43.568 38.869,42.004 37.229,40.380 C35.605,38.755 34.057,37.053 32.601,35.321 C32.325,34.999 32.187,34.569 32.233,34.171 C32.264,33.834 32.401,33.542 32.647,33.343 L33.735,32.439 C35.973,30.538 35.881,26.781 33.520,23.700 C32.233,22.014 30.961,20.251 29.750,18.457 C27.696,15.407 23.665,14.165 20.845,15.866 L18.071,17.568 C16.721,18.365 15.772,19.760 15.327,21.615 C14.530,24.958 15.511,29.342 17.886,33.036 C21.290,38.356 25.305,43.338 29.796,47.830 C34.302,52.322 39.268,56.338 44.571,59.726 C47.407,61.551 50.595,62.562 53.538,62.562 L53.538,62.562 C56.296,62.562 58.519,61.627 59.730,60.002 L59.730,60.002 C61.585,61.397 63.945,61.965 66.198,61.520 C68.267,61.121 69.999,59.941 71.057,58.193 C74.705,52.199 76.635,45.316 76.635,38.264 C76.620,17.169 59.439,-0.016 38.302,-0.016 ZM58.289,54.683 L56.542,57.534 C56.174,58.163 54.978,58.561 53.507,58.561 L53.507,58.561 C51.361,58.561 48.893,57.764 46.732,56.354 C41.659,53.119 36.923,49.287 32.616,44.994 C28.324,40.717 24.508,35.964 21.258,30.875 C19.097,27.518 18.822,24.298 19.236,22.566 C19.404,21.830 19.726,21.278 20.140,21.048 L22.929,19.331 C23.159,19.193 23.435,19.117 23.742,19.117 C24.677,19.117 25.718,19.745 26.393,20.742 C27.650,22.596 28.953,24.421 30.302,26.169 C31.466,27.701 31.390,29.143 31.129,29.373 L30.056,30.262 C28.999,31.151 28.339,32.408 28.202,33.818 C28.064,35.290 28.539,36.792 29.504,37.927 C31.037,39.751 32.677,41.545 34.379,43.246 C36.095,44.963 37.873,46.604 39.682,48.106 C41.920,49.992 45.567,49.731 47.361,47.570 L48.388,46.343 C48.480,46.236 48.771,46.220 48.847,46.220 C49.415,46.220 50.396,46.512 51.453,47.324 C53.231,48.673 55.039,49.992 56.879,51.233 C58.228,52.138 58.872,53.717 58.289,54.683 Z" class="cls-1"/>
</svg>
