<svg xmlns="http://www.w3.org/2000/svg" xmlns:xlink="http://www.w3.org/1999/xlink" preserveAspectRatio="xMidYMid" width="66" height="40" viewBox="0 0 66 40">
  <defs>
    <style>
      .cls-1 {
        fill: #1cc252;
        fill-rule: evenodd;
      }
    </style>
  </defs>
  <path d="M33.001,25.290 L63.011,0.729 C62.186,0.272 61.238,0.011 60.227,0.011 L2.112,0.011 L33.001,25.290 ZM66.002,39.115 L66.002,5.809 C66.002,4.452 65.535,3.207 64.757,2.220 L41.218,21.485 L66.002,39.115 ZM24.784,21.485 L-0.001,1.200 L-0.001,34.202 C-0.001,35.687 0.560,37.039 1.475,38.064 L24.784,21.485 ZM40.412,22.142 L33.001,28.209 L25.587,22.142 L2.219,38.765 C3.199,39.536 4.431,39.999 5.771,39.999 L65.516,39.999 L40.412,22.142 Z" class="cls-1"/>
</svg>
