<svg xmlns="http://www.w3.org/2000/svg" xmlns:xlink="http://www.w3.org/1999/xlink" preserveAspectRatio="xMidYMid" width="157" height="36" viewBox="0 0 157 36">
  <defs>
    <style>
      .cls-1 {
        fill: #1cc252;
        fill-rule: evenodd;
      }
    </style>
  </defs>
  <path d="M66.322,6.105 C66.322,3.946 66.891,2.389 68.027,1.434 C69.165,0.479 70.973,0.002 73.458,0.002 L84.508,0.002 C88.773,0.002 91.207,1.506 91.809,4.516 L89.685,6.120 C89.685,4.826 89.285,3.867 88.485,3.240 C87.580,2.530 86.097,2.176 84.034,2.176 L73.490,2.176 C71.531,2.176 70.205,2.498 69.512,3.143 C68.901,3.704 68.596,4.691 68.596,6.106 C68.596,7.353 68.932,8.195 69.606,8.632 C70.406,9.151 71.943,9.411 74.214,9.411 L84.003,9.411 C86.844,9.411 88.912,9.862 90.207,10.762 C91.501,11.662 92.146,13.097 92.146,15.062 L92.146,15.498 C92.146,17.733 91.590,19.307 90.474,20.218 C89.361,21.129 87.519,21.584 84.948,21.584 L73.647,21.584 C71.395,21.584 69.659,21.087 68.437,20.093 C67.153,19.038 66.511,17.485 66.511,15.436 L68.786,13.710 C68.786,15.015 68.577,17.458 69.953,18.323 C70.937,18.942 72.343,19.410 74.405,19.410 L84.762,19.410 C86.486,19.410 87.769,19.095 88.612,18.463 C89.454,17.832 89.874,16.823 89.874,15.436 C89.874,14.028 89.501,13.034 88.753,12.454 C88.007,11.875 86.624,11.585 84.602,11.585 L73.584,11.585 C70.764,11.585 68.816,11.128 67.743,10.214 C66.796,9.406 66.322,8.035 66.322,6.105 ZM127.446,21.584 L125.170,21.584 L125.170,1.741 L123.909,1.741 L112.101,21.584 L110.934,21.584 L99.126,1.741 L97.831,1.741 L97.831,21.584 L95.558,21.584 L95.558,0.002 L100.418,0.002 L111.533,18.417 L122.583,0.002 L127.446,0.002 L127.446,21.584 ZM131.044,6.105 C131.044,3.946 131.613,2.389 132.748,1.434 C133.885,0.479 135.695,0.002 138.180,0.002 L149.230,0.002 C154.197,0.002 156.680,2.041 156.680,6.120 L154.407,7.413 C154.407,6.120 154.618,4.630 153.209,3.240 C152.390,2.433 150.818,2.176 148.755,2.176 L138.212,2.176 C136.254,2.176 134.927,2.498 134.234,3.143 C133.621,3.704 133.317,4.691 133.317,6.106 C133.317,7.353 133.652,8.195 134.328,8.632 C135.127,9.151 136.663,9.411 138.937,9.411 L148.724,9.411 C151.567,9.411 153.633,9.862 154.927,10.762 C156.222,11.662 156.870,13.097 156.870,15.062 L156.870,15.498 C156.870,17.733 156.311,19.307 155.197,20.218 C154.081,21.129 152.238,21.584 149.672,21.584 L138.370,21.584 C136.115,21.584 134.380,21.087 133.160,20.093 C132.241,19.339 131.651,18.331 131.391,17.067 L133.507,15.436 C133.507,16.739 133.896,17.702 134.675,18.323 C135.578,19.048 137.064,19.410 139.126,19.410 L149.482,19.410 C151.210,19.410 152.491,19.095 153.335,18.463 C154.175,17.832 154.595,16.823 154.595,15.436 C154.595,14.028 154.224,13.034 153.475,12.454 C152.730,11.875 151.345,11.585 149.323,11.585 L138.305,11.585 C135.485,11.585 133.538,11.128 132.465,10.214 C131.519,9.406 131.044,8.035 131.044,6.105 ZM67.862,30.009 L66.570,30.009 C66.570,28.982 66.837,28.323 67.364,28.038 C67.897,27.752 68.731,27.609 69.872,27.609 C70.730,27.609 71.413,27.676 71.924,27.810 C72.435,27.945 72.823,28.221 73.094,28.639 C73.365,29.055 73.498,29.677 73.498,30.505 L73.498,35.866 L72.312,35.866 L72.391,35.002 C72.071,35.408 71.687,35.677 71.238,35.806 C70.788,35.936 70.228,36.001 69.557,36.001 C68.809,36.001 68.199,35.935 67.734,35.804 C67.266,35.671 66.907,35.417 66.654,35.039 C66.404,34.662 66.279,34.112 66.279,33.389 C66.279,32.702 66.412,32.176 66.680,31.812 C66.945,31.447 67.312,31.206 67.774,31.087 C68.236,30.968 68.824,30.908 69.538,30.908 C70.198,30.908 70.740,30.956 71.172,31.049 C71.602,31.143 71.948,31.372 72.212,31.735 L72.212,30.779 C72.212,30.087 72.153,29.584 72.031,29.270 C71.911,28.957 71.688,28.748 71.364,28.645 C71.040,28.541 70.517,28.490 69.791,28.490 C69.003,28.490 68.470,28.599 68.190,28.818 C67.940,28.987 67.819,29.287 67.819,29.720 C67.819,29.753 67.826,29.799 67.839,29.856 C67.854,29.914 67.862,29.966 67.862,30.009 ZM67.585,33.254 C67.585,33.944 67.726,34.408 68.005,34.645 C68.289,34.883 68.786,35.002 69.499,35.002 C70.049,35.002 70.514,34.976 70.891,34.923 C71.268,34.868 71.594,34.730 71.873,34.504 C72.150,34.280 72.288,33.928 72.288,33.445 C72.288,32.774 72.096,32.343 71.712,32.155 C71.330,31.965 70.745,31.870 69.968,31.870 L69.652,31.870 C68.743,31.870 68.153,31.992 67.881,32.237 C67.683,32.389 67.585,32.728 67.585,33.254 ZM82.850,32.851 L84.101,32.851 C84.101,33.694 83.982,34.336 83.749,34.774 C83.518,35.215 83.151,35.515 82.652,35.677 C82.153,35.840 81.457,35.922 80.567,35.922 C79.698,35.922 79.012,35.835 78.514,35.666 C78.015,35.495 77.650,35.232 77.415,34.878 C77.183,34.523 77.032,34.094 76.972,33.591 C76.909,33.088 76.879,32.379 76.879,31.467 C76.879,30.498 76.984,29.733 77.189,29.172 C77.396,28.611 77.766,28.196 78.304,27.931 C78.839,27.662 79.594,27.529 80.567,27.529 C81.643,27.529 82.471,27.698 83.054,28.038 C83.639,28.377 83.929,29.046 83.929,30.045 L83.929,30.314 L82.719,30.314 C82.719,29.817 82.652,29.443 82.519,29.188 C82.388,28.935 82.179,28.763 81.895,28.668 C81.611,28.574 81.216,28.527 80.707,28.527 C79.948,28.527 79.395,28.599 79.048,28.744 C78.701,28.888 78.472,29.149 78.356,29.529 C78.243,29.909 78.185,30.508 78.185,31.333 L78.185,32.157 C78.185,32.884 78.228,33.433 78.311,33.802 C78.395,34.171 78.601,34.452 78.929,34.647 C79.255,34.843 79.770,34.942 80.473,34.942 C81.144,34.942 81.639,34.898 81.956,34.812 C82.273,34.726 82.502,34.535 82.643,34.241 C82.782,33.944 82.850,33.481 82.850,32.851 ZM93.330,32.851 L94.578,32.851 C94.578,33.694 94.462,34.336 94.227,34.774 C93.996,35.215 93.627,35.515 93.131,35.677 C92.632,35.840 91.937,35.922 91.049,35.922 C90.177,35.922 89.491,35.835 88.993,35.666 C88.494,35.495 88.127,35.232 87.895,34.878 C87.660,34.523 87.512,34.094 87.449,33.591 C87.389,33.088 87.359,32.379 87.359,31.467 C87.359,30.498 87.463,29.733 87.669,29.172 C87.873,28.611 88.246,28.196 88.780,27.931 C89.316,27.662 90.071,27.529 91.049,27.529 C92.122,27.529 92.950,27.698 93.534,28.038 C94.117,28.377 94.408,29.046 94.408,30.045 L94.408,30.314 L93.196,30.314 C93.196,29.817 93.131,29.443 92.999,29.188 C92.867,28.935 92.659,28.763 92.375,28.668 C92.091,28.574 91.693,28.527 91.184,28.527 C90.427,28.527 89.872,28.599 89.528,28.744 C89.181,28.888 88.951,29.149 88.836,29.529 C88.720,29.909 88.665,30.508 88.665,31.333 L88.665,32.157 C88.665,32.884 88.706,33.433 88.789,33.802 C88.875,34.171 89.079,34.452 89.406,34.647 C89.735,34.843 90.247,34.942 90.953,34.942 C91.621,34.942 92.118,34.898 92.435,34.812 C92.750,34.726 92.979,34.535 93.122,34.241 C93.261,33.944 93.330,33.481 93.330,32.851 ZM114.651,32.851 L115.897,32.851 C115.897,33.694 115.783,34.336 115.548,34.774 C115.316,35.215 114.949,35.515 114.449,35.677 C113.951,35.840 113.255,35.922 112.367,35.922 C111.497,35.922 110.811,35.835 110.312,35.666 C109.815,35.495 109.448,35.232 109.213,34.878 C108.981,34.523 108.832,34.094 108.770,33.591 C108.708,33.088 108.678,32.379 108.678,31.467 C108.678,30.498 108.781,29.733 108.987,29.172 C109.193,28.611 109.565,28.196 110.101,27.931 C110.636,27.662 111.390,27.529 112.367,27.529 C113.441,27.529 114.268,27.698 114.852,28.038 C115.436,28.377 115.727,29.046 115.727,30.045 L115.727,30.314 L114.517,30.314 C114.517,29.817 114.449,29.443 114.318,29.188 C114.186,28.935 113.978,28.763 113.693,28.668 C113.410,28.574 113.014,28.527 112.504,28.527 C111.745,28.527 111.193,28.599 110.846,28.744 C110.500,28.888 110.270,29.149 110.155,29.529 C110.041,29.909 109.983,30.508 109.983,31.333 L109.983,32.157 C109.983,32.884 110.026,33.433 110.109,33.802 C110.193,34.171 110.401,34.452 110.726,34.647 C111.055,34.843 111.568,34.942 112.271,34.942 C112.942,34.942 113.437,34.898 113.752,34.812 C114.070,34.726 114.300,34.535 114.440,34.241 C114.580,33.944 114.651,33.481 114.651,32.851 ZM134.543,33.346 L135.853,33.346 C135.853,34.117 135.710,34.692 135.426,35.069 C135.142,35.447 134.755,35.688 134.268,35.795 C133.778,35.904 133.115,35.958 132.278,35.958 C131.493,35.958 130.857,35.888 130.371,35.752 C129.881,35.616 129.506,35.391 129.242,35.083 C128.975,34.775 128.790,34.371 128.687,33.869 C128.583,33.368 128.532,32.720 128.532,31.926 C128.532,30.838 128.606,29.994 128.755,29.393 C128.898,28.791 129.225,28.326 129.735,28.001 C130.246,27.674 131.029,27.511 132.082,27.511 C133.136,27.511 133.925,27.617 134.452,27.832 C134.981,28.045 135.342,28.415 135.535,28.941 C135.732,29.469 135.838,30.266 135.853,31.333 L135.853,31.969 L129.838,31.969 C129.838,32.726 129.875,33.300 129.946,33.692 C130.015,34.082 130.215,34.394 130.537,34.627 C130.858,34.862 131.375,34.978 132.082,34.978 L132.416,34.978 C133.115,34.978 133.644,34.897 134.004,34.733 C134.361,34.569 134.543,34.196 134.543,33.616 L134.543,33.346 ZM134.567,31.008 C134.567,30.268 134.518,29.725 134.422,29.382 C134.326,29.038 134.109,28.796 133.778,28.659 C133.447,28.521 132.914,28.452 132.183,28.452 C131.541,28.452 131.053,28.527 130.720,28.680 C130.387,28.831 130.156,29.088 130.029,29.446 C129.901,29.806 129.838,30.325 129.838,31.008 L134.567,31.008 ZM145.074,30.871 L145.074,27.609 L146.301,27.609 L146.301,35.866 L145.035,35.866 L145.035,31.965 L140.506,31.965 L140.506,35.866 L139.258,35.866 L139.258,27.628 L140.506,27.628 L140.506,30.871 L145.074,30.871 ZM122.893,35.841 L121.663,35.841 L121.663,28.569 L118.604,28.569 L118.604,27.563 L122.893,27.563 L125.920,27.563 L125.920,28.569 L122.893,28.569 L122.893,35.841 ZM153.974,35.876 L152.743,35.876 L152.743,28.604 L149.683,28.604 L149.683,27.597 L153.974,27.597 L157.000,27.597 L157.000,28.604 L153.974,28.604 L153.974,35.876 ZM97.960,35.856 L97.960,27.578 L99.188,27.578 L99.188,34.917 L103.268,27.578 L105.317,27.578 L105.317,35.856 L104.089,35.856 L104.089,28.520 L100.059,35.856 L97.960,35.856 ZM29.204,22.669 L55.761,0.775 C55.031,0.368 54.192,0.135 53.298,0.135 L1.869,0.135 L29.204,22.669 ZM58.408,34.993 L58.408,5.303 C58.408,4.093 57.995,2.984 57.306,2.104 L36.475,19.277 L58.408,34.993 ZM21.932,19.277 L-0.001,1.196 L-0.001,30.613 C-0.001,31.937 0.495,33.141 1.306,34.055 L21.932,19.277 ZM35.762,19.863 L29.204,25.271 L22.643,19.863 L1.964,34.680 C2.831,35.368 3.921,35.781 5.107,35.781 L57.979,35.781 L35.762,19.863 Z" class="cls-1"/>
</svg>
