<svg xmlns="http://www.w3.org/2000/svg" width="22" height="20" viewBox="0 0 22 20">
  <defs>
    <style>
      .cls-1 {
        fill: #fff;
        fill-rule: evenodd;
      }
    </style>
  </defs>
  <path id="Shape_24_copy" data-name="Shape 24 copy" class="cls-1" d="M4623.66,3825.39a8.543,8.543,0,0,1-2.87,1.2,4.19,4.19,0,0,0-6.49-.1,5.161,5.161,0,0,0-1.33,3.56,5.544,5.544,0,0,0,.12,1.15,11.327,11.327,0,0,1-5.17-1.53,12.893,12.893,0,0,1-4.11-3.75,5.1,5.1,0,0,0-.64,2.54,4.9,4.9,0,0,0,2.02,4.19,3.569,3.569,0,0,1-2.02-.63v0.1a5.233,5.233,0,0,0,1.01,3.17,4.425,4.425,0,0,0,2.6,1.78,5.53,5.53,0,0,1-1.2.14,3.548,3.548,0,0,1-.86-0.1,5.291,5.291,0,0,0,1.61,2.53,3.881,3.881,0,0,0,2.6.98,8.244,8.244,0,0,1-5.59,2.17c-0.34,0-.7-0.02-1.07-0.05a11.922,11.922,0,0,0,16.47-2.43,16.274,16.274,0,0,0,2.43-4.61,15.431,15.431,0,0,0,.86-5.07V3830a10.036,10.036,0,0,0,2.24-2.64,8.624,8.624,0,0,1-2.58.82A4.992,4.992,0,0,0,4623.66,3825.39Z" transform="translate(-4602.28 -3825)"/>
</svg>
