<svg xmlns="http://www.w3.org/2000/svg" width="27.91" height="15.37" viewBox="0 0 27.91 15.37">
  <defs>
    <style>
      .cls-1 {
        fill: #fff;
        fill-rule: evenodd;
      }
    </style>
  </defs>
  <path id="vk.com_copy_2" data-name="vk.com copy 2" class="cls-1" d="M4411.87,3841.79h1.67a1.457,1.457,0,0,0,.76-0.31,1.119,1.119,0,0,0,.23-0.7s-0.04-2.15,1-2.46,2.34,2.07,3.74,2.98a2.667,2.667,0,0,0,1.85.54l3.73-.05s1.95-.11,1.02-1.58a11.791,11.791,0,0,0-2.77-3.07c-2.33-2.07-2.02-1.74.79-5.33,1.72-2.18,2.4-3.52,2.19-4.09-0.2-.54-1.47-0.4-1.47-0.4l-4.19.02a0.948,0.948,0,0,0-.54.1,1.025,1.025,0,0,0-.37.43,23.683,23.683,0,0,1-1.55,3.13c-1.87,3.03-2.62,3.19-2.93,3.01-0.7-.44-0.53-1.77-0.53-2.71,0-2.94.47-4.17-.91-4.49a7.7,7.7,0,0,0-1.95-.18,9.293,9.293,0,0,0-3.49.34c-0.47.22-.84,0.72-0.62,0.75a1.89,1.89,0,0,1,1.24.59,3.767,3.767,0,0,1,.42,1.82s0.24,3.46-.58,3.89c-0.57.3-1.34-.3-3.01-3.06a25.909,25.909,0,0,1-1.5-2.97,1.2,1.2,0,0,0-.34-0.45,2.027,2.027,0,0,0-.65-0.25l-3.99.03a1.417,1.417,0,0,0-.81.26,0.786,0.786,0,0,0-.02.68s3.12,6.99,6.66,10.52a9.776,9.776,0,0,0,6.92,3.01h0Z" transform="translate(-4398.22 -3826.63)"/>
</svg>
