<svg xmlns="http://www.w3.org/2000/svg"><symbol id="icon_cam" viewBox="0 0 440 319.66"><path d="M256.74 581.72h-95.4c-4.39 0-8.94 0-13.53-.25a72.76 72.76 0 0 1-48-22.25c-13.19-13.5-20.53-30.78-20.66-48.65-.43-58.51-.43-118 0-176.68A71.73 71.73 0 0 1 100.12 284a70.48 70.48 0 0 1 49.58-21.54c42-.52 84.58-.43 125.81-.34q25.93.05 51.85.06c.84 0 1.57.06 2.15.1h.48c35.45 2.13 65.33 31.26 68 66.32.62 8 .69 16 .69 23.88l23-21.74q30.09-28.47 60.19-56.94c6.82-6.45 13.69-9 20.41-7.73s11.92 6.17 15.69 14.46l.9 2v269.59l-1 2c-2 4.12-6.05 12.69-17 14.1-9.67 1.25-15.88-4.53-18.87-7.31q-41.62-38.7-83.28-77.35c0 6.61 0 13.07-.08 19.56a97.1 97.1 0 0 1-1.32 17.55c-7 36.37-36.92 60.86-74.52 60.94-21.89.09-44.04.11-66.06.11zm-95.4-20h161.48c28.17-.06 49.73-17.61 54.92-44.71a80.11 80.11 0 0 0 1-14c.11-9.58.09-19.15.07-29.28V438.8l16.6 14.6 2.28 2c1.31 1.14 2.44 2.12 3.56 3.16q47.26 43.86 94.49 87.75a13.68 13.68 0 0 0 2.6 2.1 7.94 7.94 0 0 0 .59-.94V287.09c-.21-.35-.39-.64-.55-.86a17 17 0 0 0-2.7 2.15l-60.18 56.93L400.84 378c-.92.87-1.87 1.73-3.05 2.81l-17.67 16.21-1.06-21.26c0-.85-.09-1.61-.13-2.3-.08-1.46-.16-2.72-.18-4.07-.06-4.31-.05-8.66 0-12.87 0-9.13 0-17.76-.62-26.39-1.91-24.89-24-46.37-49.28-47.89l-.82-.06h-.62q-25.94 0-51.9-.07c-41.15-.08-83.71-.17-125.52.34-27.29.34-50.52 23.94-50.73 51.54-.44 58.63-.45 118 0 176.38.19 26.21 23 49.6 49.72 51.08 3.97.23 8.02.23 12.35.23z" transform="translate(-78.87 -262.05)"/></symbol><symbol id="icon_camera" viewBox="0 0 53.96 47.25"><path d="M33.79 47.25H7.29A7.3 7.3 0 0 1 0 40v-9.69A7.3 7.3 0 0 1 7.29 23h26.5a7.3 7.3 0 0 1 7.29 7.29V40a7.3 7.3 0 0 1-7.29 7.25zM7.29 25A5.3 5.3 0 0 0 2 30.31V40a5.3 5.3 0 0 0 5.29 5.29h26.5A5.3 5.3 0 0 0 39.08 40v-9.69A5.3 5.3 0 0 0 33.79 25H7.29z"/><path d="M10.83 23.75a10.63 10.63 0 1 1 10.63-10.63 10.64 10.64 0 0 1-10.63 10.63zm0-19.26a8.63 8.63 0 1 0 8.63 8.63 8.64 8.64 0 0 0-8.63-8.63z"/><path d="M32.72 23.75A11.88 11.88 0 1 1 44.6 11.88a11.89 11.89 0 0 1-11.88 11.87zm0-21.75a9.88 9.88 0 1 0 9.88 9.88A9.89 9.89 0 0 0 32.72 2zm18.16 44.36a3.06 3.06 0 0 1-1.88-.68L39.46 38a1 1 0 0 1-.37-.78v-6.91a1 1 0 0 1 .46-.84l9.67-6.24A3.08 3.08 0 0 1 54 25.81v17.47a3.05 3.05 0 0 1-1.75 2.78 3.09 3.09 0 0 1-1.37.3zm-9.79-9.59l9.12 7.35a1.08 1.08 0 0 0 1.79-.84V25.81a1.08 1.08 0 0 0-1.66-.91l-9.21 5.94v5.92z"/></symbol><symbol id="icon_change" viewBox="0 0 24 33.01"><path d="M2.9 7H22v2H2.9z"/><path d="M1.46 6.5l8.55 8.12-1.46 1.39L0 7.89 1.46 6.5z"/><path d="M0 7.9L8.31 0l1.44 1.37-8.31 7.9L0 7.9zM2 24h19.23v2H2z"/><path d="M22.54 23.5l-8.55 8.12 1.46 1.39L24 24.89l-1.46-1.39z"/><path d="M24 24.9L15.69 17l-1.44 1.37 8.32 7.9L24 24.9z"/></symbol><symbol id="icon_fb" viewBox="0 0 14 27"><path d="M9 0a5.1 5.1 0 0 0-5 5.19v3.12H0v4.15h4V27h4V12.46h4.5l1-4.15H8V5.19a1 1 0 0 1 1-1h5V0H9z" fill-rule="evenodd"/></symbol><symbol id="icon_film" viewBox="0 0 41.58 40.29"><path d="M41.58 40.29H0V0h41.58v40.29zM2 38.29h37.58V2H2v36.29z"/><path d="M8.33 8.24H0V.91h8.33v7.33zM2 6.24h4.33V2.91H2v3.33z"/><path d="M8.33 13.57H0V6.24h8.33v7.33zm-6.33-2h4.33V8.24H2v3.33z"/><path d="M8.33 18.91H0v-7.34h8.33v7.33zm-6.33-2h4.33v-3.34H2v3.33z"/><path d="M8.33 24.24H0v-7.33h8.33v7.33zm-6.33-2h4.33v-3.33H2v3.33z"/><path d="M8.33 29.57H0v-7.33h8.33v7.33zm-6.33-2h4.33v-3.33H2v3.33z"/><path d="M8.33 34.91H0v-7.34h8.33v7.33zm-6.33-2h4.33v-3.34H2v3.33z"/><path d="M8.33 40.24H0v-7.33h8.33v7.33zm-6.33-2h4.33v-3.33H2v3.33zm39.58-30h-8.33V.91h8.33v7.33zm-6.33-2h4.33V2.91h-4.33v3.33z"/><path d="M41.58 13.57h-8.33V6.24h8.33v7.33zm-6.33-2h4.33V8.24h-4.33v3.33z"/><path d="M41.58 18.91h-8.33v-7.34h8.33v7.33zm-6.33-2h4.33v-3.34h-4.33v3.33z"/><path d="M41.58 24.24h-8.33v-7.33h8.33v7.33zm-6.33-2h4.33v-3.33h-4.33v3.33z"/><path d="M41.58 29.57h-8.33v-7.33h8.33v7.33zm-6.33-2h4.33v-3.33h-4.33v3.33z"/><path d="M41.58 34.91h-8.33v-7.34h8.33v7.33zm-6.33-2h4.33v-3.34h-4.33v3.33z"/><path d="M41.58 40.24h-8.33v-7.33h8.33v7.33zm-6.33-2h4.33v-3.33h-4.33v3.33zM1 22.15h39.58v2H1z"/></symbol><symbol id="icon_hand" viewBox="0 0 498.29 406"><path d="M339 218.89h9c4.52 1.47 9.24 2.5 13.52 4.49 15.56 7.2 24.24 20.29 29.46 36 7.11 21.37 6.5 43.24 3.51 65.17-1 7.36-2.49 14.65-3.85 22.53h5.87c25.8 0 51.61-.08 77.41 0 11.14.05 22.31 0 33.41.88 22.28 1.67 35.26 13.45 39.81 35.23a7.3 7.3 0 0 0 .85 1.69v21l-7.91 20.88c11.37 19.18 7.54 43.64-4.76 58.34-2.44 2.92-2.76 5.24-2.07 8.87 4.59 24.24-.53 45.23-21.21 60.81-1.35 1-2.1 3.6-2.13 5.47-.41 29.47-19.85 54.41-48.38 61.66-4.79 1.22-9.7 2-14.55 3H261c-9.16-2.37-18-5.18-25.08-12.08-10.24-10-23-10.45-37-9.38 0 4.37 1 8.86-.3 12.5-1.26 3.45-5 6-7.6 9H58c-6.41-3.16-8.31-8.31-8.29-15.37.2-68.16.12-136.33.12-204.49v-4c.36-7 4.43-11.1 11.47-11.11q63.25-.08 126.5 0c6.93 0 11 4.26 11.28 11.31.12 3.12 0 6.25 0 9.74 12.84.3 23.3-3.77 32.14-12.26 4.19-4 8.36-8.11 12.82-11.84 19-15.94 36.06-33.62 48.23-55.49 8.77-15.76 15.17-32.06 13.66-50.77-.86-10.6.1-21.33-.26-32a17.87 17.87 0 0 1 5-13.62c2.85-3 5.69-6.39 9.25-8.25 6.08-3.23 12.7-5.34 19.08-7.91zm149 342c-1.56-.07-3.18-.21-4.81-.21h-46a26.42 26.42 0 0 1-5.94-.52 10.46 10.46 0 0 1-.18-20.36 25 25 0 0 1 5.93-.57c18 0 36-.16 54 .06a16.86 16.86 0 0 0 13.25-5.68c8.57-9.12 10.23-20.1 9-32-.4-3.7-1.71-5-5.61-5-23.49.18-47 .11-70.48.06a25.05 25.05 0 0 1-6.42-.68 10.45 10.45 0 0 1 0-20.09 25.05 25.05 0 0 1 6.42-.67c24.66 0 49.32-.09 74 0 3.53 0 6.08-1 8-3.85 7-10.32 8.27-21.18 3-32.6-2-4.29-5.13-6.29-10.25-6.24-24.66.24-49.32.11-74 .11-9.57 0-14.93-4-14.78-10.94.14-6.81 5.33-10.53 14.67-10.55 27.16-.06 54.32-.19 81.48-.13 3.87 0 6.45-1.39 6.58-5.1.24-7.27.49-14.63-.4-21.81-.85-6.82-5.59-11.44-12.26-13a78.85 78.85 0 0 0-16.74-2.23c-14.66-.3-29.32-.1-44-.1h-72.48c-8 0-12.54-2.58-13.53-8.34-.51-3 .19-6.27 1-9.27 5.45-21.22 9.23-42.62 7.58-64.65-.87-11.58-3.3-22.77-9.89-32.58-5.59-8.33-12.95-13.81-23.66-13.12-9.38.61-14.43 5.84-14.43 15.06 0 13.16.15 26.33-.08 39.49a50 50 0 0 1-1.81 12.76c-8.89 31.07-26.47 56.82-49.47 79-9 8.67-18.84 16.4-27.69 25.18-8.63 8.56-18.35 14.86-30.1 17.75-5.94 1.46-12.07 2.12-18.27 3.17v148.65c2.23 0 4.07.09 5.88 0 17.65-1 33.17 4 46.2 16.23 4.26 4 9.57 5 15.25 5 58.65 0 117.31.11 176-.21a58.72 58.72 0 0 0 20.33-4.14c15.2-5.94 25.97-22.91 24.71-37.91zM71.54 411.34V602.6h105.9V411.34H71.54z" transform="translate(-49.71 -218.89)"/></symbol><symbol id="icon_list" viewBox="0 0 49.67 42"><path d="M48.67 42H1a1 1 0 0 1-1-1V1a1 1 0 0 1 1-1h47.67a1 1 0 0 1 1 1v40a1 1 0 0 1-1 1zM2 40h45.67V2H2v38z"/><path d="M28.17 12.58H8.83a1 1 0 0 1 0-2h19.34a1 1 0 0 1 0 2zm0 9.42H8.83a1 1 0 0 1 0-2h19.34a1 1 0 1 1 0 2zm0 9.42H8.83a1 1 0 1 1 0-2h19.34a1 1 0 0 1 0 2zm9.41-15.84a1 1 0 0 1-.67-.26l-4-3.58a1 1 0 1 1 1.33-1.49L37.37 13l3.12-5a1 1 0 1 1 1.7 1.06l-3.75 6a1 1 0 0 1-.71.46h-.15zm0 10.09a1 1 0 0 1-.67-.25l-4-3.58a1 1 0 1 1 1.33-1.49l3.12 2.79 3.12-5a1 1 0 1 1 1.7 1.06l-3.75 6a1 1 0 0 1-.71.46h-.14zm0 10.08a1 1 0 0 1-.67-.25l-4-3.58a1 1 0 0 1 1.33-1.49l3.12 2.79 3.12-5a1 1 0 1 1 1.7 1.06l-3.75 6a1 1 0 0 1-.71.46h-.14z"/></symbol><symbol id="icon_logout" viewBox="0 0 435.49 392.14"><path d="M116 618.89a28.47 28.47 0 0 0-3.3-.92 38.43 38.43 0 0 1-32.77-37.78c-.18-26.66-.06-53.33-.06-80v-233c0-20.54 12.3-35.94 31.62-39.77a49.07 49.07 0 0 1 9.44-.66q103.24-.05 206.48 0c23.62 0 40.34 16.65 40.41 40.21.08 29 0 58 0 87v4.37h-18v-89.93c0-15.07-8.5-23.65-23.42-23.66h-205c-15.22 0-23.58 8.28-23.58 23.36v310c0 14.41 8.54 22.89 23 22.89h206c14.27 0 22.95-8.75 23-23.12v-90.6h18v89.47c0 22.85-12.43 37.53-35 41.49a11.52 11.52 0 0 0-1.87.67H116z" transform="translate(-79.83 -226.75)"/><path d="M482 412.86l-69.65-69.59 12.75-12L515.32 423 425 515l-12.06-12.21 69.57-69.34-.73-1.35H199.45v-18h282z" transform="translate(-79.83 -226.75)"/></symbol><symbol id="icon_medal" viewBox="0 0 37.25 55.83"><path d="M18.63 55.83a18.63 18.63 0 1 1 18.62-18.62 18.65 18.65 0 0 1-18.62 18.62zm0-35.25a16.62 16.62 0 1 0 16.62 16.63 16.64 16.64 0 0 0-16.62-16.63z"/><path d="M18.62 50.64A13.37 13.37 0 1 1 32 37.27a13.39 13.39 0 0 1-13.38 13.37zm0-24.74A11.37 11.37 0 1 0 30 37.27 11.38 11.38 0 0 0 18.62 25.9z"/><path d="M14.93 31.33h6.83v2h-6.83zm0 9.59h6.83v2h-6.83z"/><path d="M17.35 32.33h2v9.58h-2zm-5.58-10.89h-2v-4.56a2.14 2.14 0 0 1 2.14-2.14h12.63a2.14 2.14 0 0 1 2.14 2.14v4.17h-2v-4.17a.14.14 0 0 0-.14-.14H11.9a.14.14 0 0 0-.14.14v4.55z"/><path d="M13 15.88a1 1 0 0 1-.85-.47L3.46 1.53A1 1 0 0 1 5.15.47l8.71 13.88a1 1 0 0 1-.86 1.53zm11.55.87a1 1 0 0 1-.86-1.51l8-13.58a1 1 0 1 1 1.72 1l-8 13.58a1 1 0 0 1-.86.51z"/><path d="M13.05 16.58a1 1 0 0 1-.87-1.5L20 1.5a1 1 0 1 1 1.73 1l-7.81 13.58a1 1 0 0 1-.87.5z"/><path d="M18.22 6.92a1 1 0 0 1-.84-.46l-2.54-3.92a1 1 0 0 1 1.68-1.09l2.54 3.92a1 1 0 0 1-.84 1.55z"/></symbol><symbol id="icon_ok" viewBox="0 0 21 35"><path d="M10.5 0a9.21 9.21 0 0 0-9.36 9 9.21 9.21 0 0 0 9.36 9 9.21 9.21 0 0 0 9.35-9 9.21 9.21 0 0 0-9.35-9zm0 5.29A3.81 3.81 0 0 1 14.37 9a3.81 3.81 0 0 1-3.87 3.74A3.81 3.81 0 0 1 6.63 9a3.81 3.81 0 0 1 3.87-3.71zM2.79 18.37a2.77 2.77 0 0 0-2.37 1.24 2.59 2.59 0 0 0 .86 3.65 17.91 17.91 0 0 0 5.43 2.17l-5.23 5.05a2.59 2.59 0 0 0 0 3.74 2.81 2.81 0 0 0 3.88 0l5.14-5 5.14 5a2.81 2.81 0 0 0 3.87 0 2.58 2.58 0 0 0 0-3.74l-5.23-5a17.9 17.9 0 0 0 5.43-2.17 2.59 2.59 0 0 0 .86-3.65 2.8 2.8 0 0 0-3.78-.83 12.24 12.24 0 0 1-12.6 0 2.8 2.8 0 0 0-1.41-.41z" fill-rule="evenodd"/></symbol><symbol id="icon_play" viewBox="0 0 22.99 28.99"><path d="M1 29a1 1 0 0 1-1-1V1A1 1 0 0 1 1.54.16l21 13.5a1 1 0 0 1 0 1.68l-21 13.49A1 1 0 0 1 1 29zM2 2.83v23.33L20.14 14.5z"/></symbol><symbol id="icon_refresh" viewBox="0 0 612.035 612.035"><path d="M323.128 56.236l5.646-9.57 40.17-40.169C271.247-13.921 165.482 13.786 89.65 89.646-16.421 195.717-28.355 360.261 53.875 479.49L10.98 522.386l137.7 19.667-19.667-137.7-34.968 34.967c-60.978-96.724-49.322-226.078 34.94-310.34 53.244-53.243 124.486-77.501 194.143-72.744zm258.264 13.743l-137.7-19.667 19.668 137.7 38.25-38.25c78.726 98.31 72.521 242.186-18.583 333.317-61.116 61.117-145.989 84.039-224.882 68.739l-45.65 45.649c105.654 33.799 226.05 8.791 309.895-75.054 112.858-112.858 119.146-291.979 18.805-412.209l40.197-40.225z"/></symbol><symbol id="icon_remove" viewBox="0 0 27.01 27.01"><path d="M1.46 0L27 25.56 25.55 27 0 1.44zM.12 25.45L25.43.12l1.44 1.43L1.55 26.88z" transform="translate(0 .01)"/></symbol><symbol id="icon_star" viewBox="0 0 39 37"><path fill-rule="evenodd" d="M19.5 2.501l5.603 10.056 11.395 2.166-7.933 8.382 1.44 11.394L19.5 29.623 8.995 34.499l1.439-11.394-7.932-8.382 11.395-2.166L19.5 2.501"/></symbol><symbol id="icon_user" viewBox="0 0 229.6 264.1"><path d="M232.43 407.4c-21.39-40.48-6.44-81.22 20-101.27 30.19-22.85 71-21.69 99.47 2.89 25.86 22.34 37.2 63.54 14.87 100.92 8.12 7.19 16.57 13.93 24.17 21.54 14.82 14.85 24 32.75 22.57 54.06-1.55 22.66-7.91 43.72-28.74 57-12.3 7.83-26.14 10.84-40.4 11q-43.47.58-86.95 0c-15.75-.23-31.12-2.81-44.33-12.66-14.26-10.63-21.17-25.72-25.87-42.13-9.46-33.08 3-58.45 28.22-79.23 2.69-2.22 5.56-4.23 8.4-6.27s5.52-3.74 8.59-5.85zm126.69 12c-1.59 1.5-2.65 2.56-3.76 3.55-19.41 17.27-41.62 26.18-67.85 21.66-16.1-2.77-30-10.71-42.75-20.6-8-6.22-8.15-6.35-16.32-.11A127.29 127.29 0 0 0 214 436.23c-20.45 21.17-23.61 43.36-11.54 72.12 9.25 22 25.89 33.08 49.16 33.51 32.31.6 64.65.49 97 0 13.94-.2 27.42-4.1 37.15-14.7 16.12-17.57 20.49-38.73 13.7-61.27-6.34-21.01-22.87-34.09-40.35-46.49zM233.55 368c0 37 29.72 67 66.45 67 37.41 0 67.21-29.51 67.22-66.65 0-37.37-29.51-67.25-66.59-67.4A67 67 0 0 0 233.55 368z" transform="translate(-184.11 -289.76)"/></symbol><symbol id="icon_vk" viewBox="0 0 41 23"><path d="M40.78 20.77a2.45 2.45 0 0 0-.14-.26 20.93 20.93 0 0 0-4.08-4.64 24.25 24.25 0 0 1-1.73-1.72 1.59 1.59 0 0 1-.3-1.7 15.82 15.82 0 0 1 1.92-2.75q.87-1.11 1.39-1.78 3.7-4.83 3.2-6.17l-.13-.21a1.25 1.25 0 0 0-.66-.35 3.39 3.39 0 0 0-1.37-.05h-6.15a.81.81 0 0 0-.43 0l-.28.06-.11.05-.09.06a1 1 0 0 0-.23.22 1.46 1.46 0 0 0-.21.37A33.75 33.75 0 0 1 29 6.59q-.79 1.3-1.45 2.26a10.85 10.85 0 0 1-1.11 1.41 7.7 7.7 0 0 1-.81.72.79.79 0 0 1-.55.23l-.36-.08a1.39 1.39 0 0 1-.48-.51A2.27 2.27 0 0 1 24 9.8c0-.33-.07-.61-.07-.85V5.34c0-.62 0-1.12.06-1.48s0-.75 0-1.15a4.64 4.64 0 0 0-.07-1 3.14 3.14 0 0 0-.22-.67 1.14 1.14 0 0 0-.44-.5 2.48 2.48 0 0 0-.65-.26A14.35 14.35 0 0 0 19.73 0q-4 0-5.1.5a2.86 2.86 0 0 0-.81.63c-.26.31-.29.48-.11.5a2.63 2.63 0 0 1 1.81.9l.13.25a3.89 3.89 0 0 1 .3 1 9.43 9.43 0 0 1 .19 1.53 15.72 15.72 0 0 1 0 2.62Q16 9 15.93 9.62a3.33 3.33 0 0 1-.29 1 4 4 0 0 1-.26.46.38.38 0 0 1-.11.1 1.64 1.64 0 0 1-.58.1A1.36 1.36 0 0 1 14 11a5.17 5.17 0 0 1-.89-.81 10.94 10.94 0 0 1-1-1.44q-.58-.92-1.19-2.18l-.34-.61q-.38-.6-.93-1.73t-1-2.17a1.39 1.39 0 0 0-.51-.67L8 1.32a1.51 1.51 0 0 0-.34-.18A2.21 2.21 0 0 0 7.22 1H1.37a1.5 1.5 0 0 0-1.22.4l-.08.13a.65.65 0 0 0-.07.38 1.63 1.63 0 0 0 .13.57q1.28 3 2.79 5.71t2.62 4.43q1.11 1.68 2.26 3.17t1.52 1.91c.25.28.45.49.59.63l.53.5a12.69 12.69 0 0 0 1.5 1.17q1 .7 2.2 1.39a12 12 0 0 0 2.81 1.11 9.83 9.83 0 0 0 3.12.35h2.46a1.72 1.72 0 0 0 1.13-.46l.08-.11a1.33 1.33 0 0 0 .16-.39 2 2 0 0 0 .1-.54 6.75 6.75 0 0 1 .14-1.63 4.25 4.25 0 0 1 .36-1.09 2.66 2.66 0 0 1 .43-.63 1.82 1.82 0 0 1 .36-.3l.17-.07a1.37 1.37 0 0 1 1.21.33A7.08 7.08 0 0 1 28 19.18q.61.72 1.46 1.63a9.94 9.94 0 0 0 1.49 1.34l.43.25a5.27 5.27 0 0 0 1.11.46 2.43 2.43 0 0 0 1.2.1l5.46-.08a2.52 2.52 0 0 0 1.26-.26 1 1 0 0 0 .51-.62 1.62 1.62 0 0 0 0-.71 2.64 2.64 0 0 0-.14-.52z" fill-rule="evenodd"/></symbol></svg>