<svg width="112" height="20" viewBox="0 0 112 20" xmlns="http://www.w3.org/2000/svg"><title>11</title><g fill="none"><path fill="#FFF" d="M0 0h108.7v19.2H0z"/><path fill="#231F20" d="M19.5.5h88.7v18.3H19.5z"/><path d="M26.9 4.7c.3-.1.7-.1 1-.1.4 0 .8.1 1.2.3.4.2.6.5.8.9.2.4.3.9.3 1.4 0 .6-.2 1.3-.6 1.7-.4.4-.9.7-1.4.7h-.6c-.2 0-.4-.1-.7-.1V4.7zm3.4-.9c-.8-.3-1.7-.4-2.6-.3h-4.5v.7h.6c.3 0 .7.1.9.3.1.1.2.4.2 1.3v7.7c0 .4 0 .8-.1 1.2-.2.3-.6.5-.9.4h-.6v.7h5.4v-.7H28c-.3 0-.7-.1-.9-.3-.1-.1-.2-.4-.2-1.3v-3.3c.3.1.6.1.9.1.3 0 .6.1 1 .1 1 0 2-.3 2.8-1 .7-.7 1-1.6 1-2.5 0-.7-.2-1.4-.7-2-.4-.5-1-.9-1.6-1.1zm13.3-.4v.7h.6c.3 0 .6.1.9.3.1.1.2.4.2 1.3v4.8c.1.9 0 1.8-.3 2.6-.2.5-.7 1-1.2 1.2-.6.3-1.3.5-2 .5-.5 0-1-.1-1.5-.3-.4-.2-.7-.4-.9-.8-.2-.4-.4-.9-.4-1.3-.1-.5-.1-1-.1-1.6V5.7c-.1-.4 0-.8.1-1.2.2-.3.5-.4.9-.4h.6v-.7h-5.4v.7h.6c.3 0 .6.1.8.3.2.4.3.9.3 1.3v4.7c-.1 1 .1 2 .3 3 .3.8.8 1.4 1.5 1.9.9.5 2 .8 3.1.7 1 0 2.1-.2 2.9-.7.7-.4 1.2-1 1.4-1.8.3-.9.4-1.9.4-2.8V5.8c0-.4 0-.8.2-1.2.2-.3.5-.5.9-.5h.6v-.7h-4.5zm11.3 1.3c.4-.1.8-.1 1.2-.2.6 0 1.3.2 1.7.7.4.4.7 1.1.6 1.7 0 .7-.3 1.3-.8 1.8-.7.5-1.6.8-2.4.7h-.3V4.7zm6.8 10c-.6-.4-1-.9-1.4-1.5L58 9.9c.8-.2 1.5-.6 2-1.1.5-.6.8-1.3.8-2s-.2-1.4-.7-1.9c-.4-.5-1-.9-1.6-1.1-.9-.2-1.9-.3-2.9-.3h-4.5v.7h.6c.3 0 .7.1.9.3.1.1.2.4.2 1.3v7.7c.1.4 0 .8-.2 1.2-.2.3-.6.5-.9.4h-.6v.7h5.4v-.7h-.6c-.3 0-.6-.1-.9-.3-.1-.1-.2-.4-.2-1.3v-3.3h1l4 5.6h3.5v-.6h-.2c-.4-.1-.9-.3-1.4-.5zm4.7-11.2v.7h.6c.3 0 .5.1.7.2l.3.3c.1.4.1.8.1 1.1v7.7c0 .9-.1 1.2-.2 1.3-.2.3-.6.4-.9.4h-.6v.7h5.4v-.7h-.6c-.2 0-.5-.1-.7-.2l-.3-.3c-.1-.4-.1-.8-.1-1.1V5.8c0-.9.1-1.2.2-1.2.2-.3.6-.4.9-.4h.6v-.7h-5.4zm22.9 0h-4.5v.7h.6c.3 0 .7.1.9.3.1.1.2.4.2 1.3v6.4l-7.1-8.6h-3.5v.7h.2c.2 0 .5 0 .7.1.3.1.5.2.7.3.3.1.5.3.7.6v8.2c0 .4 0 .8-.2 1.2-.2.3-.6.4-1 .4h-.6v.7H81v-.7h-.6c-.3 0-.7-.1-.9-.3-.1-.1-.2-.4-.2-1.3V6.7L87 16h.6V5.8c0-.8.1-1.1.2-1.2.2-.3.6-.4.9-.4h.6v-.7zm8.3 3.1l1.7 4.2h-3.6l1.9-4.2zm6.8 8.5c-.4 0-.7-.1-1-.4-.4-.4-.7-.9-.9-1.5l-4.1-10h-.6l-4.4 9.9c-.2.6-.6 1.2-1 1.7-.3.2-.6.3-.9.3h-.1v.6h4.1V15h-.2c-.3 0-.7-.1-1-.2-.1-.1-.2-.2-.2-.3 0-.3.1-.7.3-1l.8-1.8h4.4l.7 1.6c.2.4.3.7.3 1.1 0 .1-.1.3-.2.4-.3.1-.6.2-.9.2h-.2v.7h5.1v-.6z" fill="#FFF"/><path fill="#EB2227" d="M.5.5h18.3v18.3H.5z"/><path fill="#FFF" d="M1.2 1.1h17v17h-17z"/><path fill="#EB2227" d="M1.8 12.2H7v5.2H1.8zm10.5 0h5.2v5.2h-5.2zM7.1 7h5.2v5.2H7.1zM1.8 1.8H7V7H1.8zm10.5 0h5.2V7h-5.2z"/><path d="M110.4 1.4c.2 0 .3 0 .3-.2s-.1-.2-.2-.2h-.1v.4zm0 .6h-.2V.9h.4c.1 0 .3 0 .4.1.1.1.1.1.1.2s-.1.2-.2.3c.1 0 .2.1.2.3 0 .1 0 .2.1.3h-.3c0-.1-.1-.2-.1-.3 0-.1-.1-.2-.2-.2h-.1l-.1.4zm-.6-.6c-.1.5.3.9.7.9.5.1.9-.3.9-.7v-.2c.1-.5-.3-.9-.7-.9-.4 0-.9.3-.9.7-.1.1-.1.2 0 .2zm2 0c-.1.6-.6 1.1-1.2 1-.5-.1-1-.5-1-1 .1-.6.6-1.1 1.2-1 .5.1.9.5 1 1z" fill="#FFF"/></g></svg>