<svg width="298" height="18" xmlns="http://www.w3.org/2000/svg"><g fill="none"><path fill="#FFF" d="M0 0h100.25v17.271H0z"/><path fill="#231F20" d="M18 .414h81.862v16.47H18z"/><path d="M24.827 4.212c.302-.073.612-.116.923-.126.391 0 .776.1 1.116.288.333.187.596.474.747.819.184.386.278.807.277 1.233a2.172 2.172 0 0 1-.563 1.557 1.75 1.75 0 0 1-1.319.594h-.535a4.872 4.872 0 0 1-.618-.09l-.028-4.275zm3.1-.756a7.28 7.28 0 0 0-2.371-.306h-4.18v.594h.573a1.03 1.03 0 0 1 .82.297c.065.072.176.333.176 1.161v6.957a2.47 2.47 0 0 1-.13 1.071.932.932 0 0 1-.866.378h-.572v.594h5.019v-.594h-.563a.935.935 0 0 1-.803-.297c-.083-.072-.194-.324-.194-1.152V9.216c.277.054.554.108.803.135.29.044.583.065.877.063a3.747 3.747 0 0 0 2.601-.9 2.961 2.961 0 0 0 .923-2.259 2.658 2.658 0 0 0-.618-1.8 3.365 3.365 0 0 0-1.495-1.053v.054zm12.298-.378v.603h.572c.302-.02.598.089.812.297.074.072.185.333.185 1.152v4.347a6.418 6.418 0 0 1-.277 2.367c-.224.48-.612.867-1.098 1.098a3.85 3.85 0 0 1-1.845.441 2.93 2.93 0 0 1-1.356-.279 2.054 2.054 0 0 1-.83-.693 2.859 2.859 0 0 1-.407-1.188c-.072-.468-.112-.94-.12-1.413V5.13a2.04 2.04 0 0 1 .12-1.098.933.933 0 0 1 .822-.351h.572v-.603h-5.01v.603h.563a.937.937 0 0 1 .765.252c.212.363.297.783.24 1.197v4.194a8.885 8.885 0 0 0 .277 2.7c.257.7.74 1.3 1.375 1.71a5.215 5.215 0 0 0 2.823.639 4.92 4.92 0 0 0 2.712-.666c.6-.383 1.062-.94 1.32-1.593.248-.826.36-1.686.332-2.547V5.211a2.1 2.1 0 0 1 .147-1.062.928.928 0 0 1 .858-.468h.563v-.603h-4.115zm10.389 1.116c.363-.08.734-.126 1.107-.135a2.161 2.161 0 0 1 1.578.585c.405.405.619.956.59 1.521a1.95 1.95 0 0 1-.729 1.575 3.39 3.39 0 0 1-2.25.63h-.296V4.194zm6.292 9a5.344 5.344 0 0 1-1.3-1.377L53.51 8.91a3.816 3.816 0 0 0 1.845-1.026 2.663 2.663 0 0 0 .701-1.8 2.57 2.57 0 0 0-.618-1.701 3.09 3.09 0 0 0-1.467-.981 10.034 10.034 0 0 0-2.639-.261h-4.17v.603h.572c.303-.023.6.086.812.297.065.072.185.324.185 1.152v6.957c.047.366 0 .737-.139 1.08a.932.932 0 0 1-.858.378h-.572v.594h5.02v-.594H51.6a1.03 1.03 0 0 1-.803-.297c-.064-.072-.184-.333-.184-1.161V9.18h.922l3.737 5.031h3.192v-.585h-.138a3.297 3.297 0 0 1-1.393-.423l-.028-.009zM61.28 3.15v.594h.534c.236.001.467.06.674.171.11.06.2.151.258.261.081.336.112.681.092 1.026v6.948c0 .801-.101 1.053-.166 1.134a1.02 1.02 0 0 1-.858.324h-.544v.603h5.019v-.603h-.554a1.298 1.298 0 0 1-.655-.171.62.62 0 0 1-.267-.261 3.515 3.515 0 0 1-.093-1.026V5.202c0-.792.102-1.053.167-1.125a1 1 0 0 1 .848-.333h.554V3.15h-5.01zm21.108 0h-4.151v.594h.544c.31-.031.618.074.84.288.064.072.184.324.184 1.143v5.76l-6.56-7.785h-3.229v.594h.157c.227-.008.454.017.674.072.239.071.468.17.682.297.24.202.459.425.655.666v7.398c.044.366-.006.738-.147 1.08a1 1 0 0 1-.923.351h-.535v.594h4.152v-.594h-.554a1.096 1.096 0 0 1-.84-.288c-.064-.072-.175-.315-.175-1.143V5.985l7.104 8.415h.517V5.175c0-.756.092-.999.157-1.08a.99.99 0 0 1 .867-.351h.544l.037-.594zm7.621 2.763l1.596 3.789h-3.284l1.688-3.789zm6.329 7.695a1.63 1.63 0 0 1-.923-.324 3.715 3.715 0 0 1-.802-1.341l-3.792-9h-.535l-4.023 8.892a4.677 4.677 0 0 1-.922 1.494c-.24.164-.52.26-.812.279h-.13v.576h3.774v-.594h-.148a1.883 1.883 0 0 1-.922-.216.377.377 0 0 1-.185-.306c.028-.314.12-.62.268-.9l.71-1.584h4.087l.61 1.449c.167.324.274.674.313 1.035a.402.402 0 0 1-.166.324 1.478 1.478 0 0 1-.803.18h-.147v.594h4.696v-.594l-.148.036z" fill="#FFF"/><path fill="#EB2227" d="M.498.414h16.893v16.47H.498z"/><path fill="#FFF" d="M1.098.999h15.675v15.3H1.098z"/><path fill="#EB2227" d="M1.698 10.998h4.825v4.707H1.698zm9.65 0h4.825v4.707h-4.825zM6.523 6.291h4.825v4.707H6.523zM1.698 1.584h4.825v4.707H1.698zm9.65 0h4.825v4.707h-4.825z"/><path d="M101.874 1.251h.11c.13 0 .23 0 .23-.144s-.064-.153-.211-.153a.312.312 0 0 0-.13 0v.297zm0 .549h-.231V.819a2.78 2.78 0 0 1 .387 0 .565.565 0 0 1 .379.081.285.285 0 0 1 .101.216.263.263 0 0 1-.203.234c.092 0 .139.108.175.234.01.084.036.167.074.243h-.249a.813.813 0 0 1-.074-.243c0-.099-.083-.144-.212-.144h-.11l-.037.36zm-.61-.504a.748.748 0 0 0 .308.703.791.791 0 0 0 .78.082.757.757 0 0 0 .453-.623.474.474 0 0 0 0-.162.748.748 0 0 0-.307-.703.791.791 0 0 0-.78-.082.757.757 0 0 0-.453.623.474.474 0 0 0 0 .162zm1.846 0c-.05.518-.496.913-1.029.913-.533 0-.978-.395-1.029-.913.05-.518.496-.913 1.03-.913.532 0 .978.395 1.028.913zm185.055 10.269c0 .639-.11.729-.738.774v.369h2.51v-.369c-.628-.045-.776-.135-.776-.774V8.28c0-.63.148-.729.775-.774v-.369h-1.845a1.26 1.26 0 0 1-.129.657l-1.845 2.916c-.219.3-.381.635-.48.99h-.055c.081-.482.121-.97.12-1.458V8.28c0-.63.11-.729.747-.774v-.369h-2.519v.369c.637.045.775.144.775.774v3.285c0 .639-.138.729-.775.774v.369h1.846a1.176 1.176 0 0 1 .138-.657l1.845-2.916c.22-.285.388-.605.498-.945h.056a11.752 11.752 0 0 0-.12 1.71l-.028 1.665zM257.35 8.28v1.377h-2.472V8.28c0-.63.11-.729.747-.774v-.369h-2.528v.369c.627.045.775.144.775.774v3.285c0 .639-.148.729-.775.774v.369h2.528v-.369c-.637-.045-.747-.135-.747-.774v-1.386h2.472v1.386c0 .639-.11.729-.738.774v.369h2.528v-.369c-.637-.045-.775-.135-.775-.774V8.28c0-.63.138-.729.775-.774v-.369h-2.528v.369c.628.045.738.144.738.774zm-7.99 2.106l.923 1.395a.89.89 0 0 1 .157.342c0 .144-.166.198-.554.216v.369h2.464v-.369c-.517-.045-.6-.153-.923-.675l-1.218-1.8.923-1.683c.332-.513.489-.63.969-.684v-.36h-1.956v.369c.433 0 .507.117.507.225a.647.647 0 0 1-.129.333l-.692 1.116-.729-1.08a.888.888 0 0 1-.147-.351c0-.135.138-.189.498-.207v-.405h-2.473v.369c.526.054.637.126 1.024.684l1.006 1.71-1.19 1.8c-.36.504-.47.63-.923.675v.369h2.02v-.369c-.378 0-.544-.108-.544-.27a.532.532 0 0 1 .111-.288l.876-1.431zm-14.18 1.746a4.55 4.55 0 0 0 .581-1.206 8.66 8.66 0 0 0 .37-3.258h1.845v4.5h-2.824l.028-.036zm-.922 2.448c0-1.17.286-1.872.765-1.872h3.792c.443 0 .443.432.443 1.872h.544l.268-1.872v-.504h-.194c-.71 0-.849-.072-.849-.648V8.325c0-.585.139-.765.85-.783V7.2h-5.232v.378c.71 0 .849.198.849.783a5.29 5.29 0 0 1-.683 3.168 1.82 1.82 0 0 1-.692.711h-.443v2.34h.582zm-23.24-1.872h8.56v-.36c-.636 0-.783-.135-.783-.774V8.28c0-.63.147-.729.784-.774v-.369h-2.528v.369c.627.045.738.144.738.774v3.906h-1.983V8.244c0-.639.101-.747.682-.774v-.369h-2.39v.369c.591 0 .683.135.683.774v3.942h-1.983V8.244c0-.639.11-.729.747-.774v-.369h-2.528v.369c.628 0 .775.135.775.774v3.33c0 .639-.147.738-.775.774v.36zm-8.304-1.188c0 .612-.092.801-.84.819v.369h2.703v-.369c-.738 0-.84-.207-.84-.819V8.289c0-.612.102-.801.84-.819v-.378h-2.703v.378c.748 0 .84.207.84.819V9.63h-2.657V8.289c0-.612.101-.801.84-.819v-.378h-2.722v.378c.747 0 .84.207.84.819v3.231c0 .612-.093.801-.84.819v.369h2.703v-.369c-.738 0-.84-.207-.84-.819v-1.395h2.657l.019 1.395zm-8.045-2.088h-5.333v.549h5.333v-.549zm-8.793 4.887l.268-1.611v-.504h-.295c-.646 0-.738-.261-.738-.801V8.361c0-.621.101-.801.848-.819V7.2h-2.767v.378c.738 0 .82.198.82.819v3.843h-2.536V8.361c0-.621.073-.801.82-.819V7.2h-2.684v.378c.747 0 .84.198.84.819v3.123c0 .612-.093.801-.84.819v.369h5.231c.443 0 .443.171.443 1.611h.59zm-19.374-1.611h2.094v-.369c-.544 0-.683-.117-.683-.603v-.567l.102-2.124v-.9h.064c.045.55.15 1.093.314 1.62l1.153 2.943h.582l1.18-3.429c.15-.36.249-.739.296-1.125v.9l.092 2.106v.585c0 .486-.138.576-.683.603v.369h2.436v-.369c-.637-.045-.747-.135-.784-.774l-.139-2.979v-.432c0-.522.194-.603.785-.648v-.378h-1.947l-1.07 3.141c-.166.381-.287.78-.36 1.188h-.065a5.006 5.006 0 0 0-.341-1.206l-1.061-3.123h-1.845v.369c.59.045.775.126.775.648v.297l-.157 3.114c0 .639-.148.729-.775.774l.037.369zm-9.134-5.049h.637c.627 0 .811.279.987 1.197h.498l-.166-1.656h-5.102l-.092 1.692h.498c.184-.9.369-1.197.987-1.197h.646v3.825c0 .612-.102.801-.84.819v.369h2.704v-.369c-.748 0-.84-.207-.84-.819l.083-3.861zm-8.257 5.049a1.13 1.13 0 0 1 .212-.747l1.292-2.061c.396-.503.765-1.026 1.107-1.566h.064a9.785 9.785 0 0 0-.12 1.8v1.422c0 .576-.11.765-.738.783v.369h2.593v-.369c-.71 0-.84-.207-.84-.783V8.325c0-.585.13-.765.84-.783V7.2h-1.845a1.15 1.15 0 0 1-.213.747l-1.374 1.8c-.42.569-.79 1.17-1.107 1.8h-.056c.083-.663.12-1.33.11-1.998V8.325c0-.585.112-.765.748-.783V7.2h-2.63v.378c.711 0 .85.198.85.783v3.231c0 .576-.139.765-.85.783v.369l1.957-.036zm-4.669-1.188c0 .612-.073.801-.812.819v.369h2.676v-.369c-.738 0-.84-.207-.84-.819V8.361c0-.621.102-.801.84-.819V7.2h-6.292v.378c.738 0 .84.198.84.819v3.123c0 .612-.102.801-.84.819v.369h2.685v-.369c-.748 0-.821-.207-.821-.819V7.668h2.564v3.852zm-7.897 1.188v-.369c-.738 0-.84-.207-.84-.819V8.361c0-.621.102-.801.84-.819V7.2h-2.574v.378c.664 0 .71.198.71.819v3.843h-2.066V8.361c0-.621 0-.801.7-.819V7.2H130.9v.378c.673 0 .71.198.71.819v3.843h-2.067V8.361c0-.621 0-.801.702-.819V7.2h-2.547v.378c.747 0 .84.198.84.819v3.123c0 .612-.093.801-.84.819v.369h8.848zm-19.458-4.14V5.787h1.098c1.07 0 1.467.378 1.467 1.431 0 .9-.35 1.35-1.42 1.35h-1.145zm0 3.6V9.09h1.218c1.329 0 1.688.405 1.688 1.512s-.313 1.575-1.494 1.575l-1.412-.009zm-1.937.531h3.275c1.43 0 2.676-.603 2.676-2.043.036-1.007-.759-1.859-1.79-1.917.833-.085 1.451-.795 1.402-1.611 0-1.188-.803-1.8-2.768-1.8h-2.768v.342c.739 0 .923.207.923.819v5.058c0 .612-.148.801-.923.819l-.027.333zm10.056-2.718v1.359a1.45 1.45 0 0 1-1.208.783c-.637 0-.923-.234-.923-1.008s.544-1.152 1.845-1.152h.388m.987 1.179c0-.981.046-1.908.046-2.232 0-1.269-.692-1.8-1.938-1.8a4.863 4.863 0 0 0-2.066.549v.963h.692c.03-.29.177-.557.41-.74a1.14 1.14 0 0 1 .826-.241h.055c.785 0 1.006.405 1.006 1.341v.477h-.387c-1.735 0-2.907.45-2.907 1.746-.01.406.146.799.434 1.093.287.293.682.464 1.098.473h.258a1.74 1.74 0 0 0 1.513-.9c.056.45.222.765 1.015.765.26.001.519-.038.766-.117v-.36c-.72-.054-.821-.198-.821-1.008m50.3-3.519c.84 0 1.18.513 1.18 1.8h-2.48c.073-1.386.534-1.8 1.29-1.8m.444 4.437c-1.172 0-1.726-.504-1.744-2.079h3.533v-.288c0-1.647-.82-2.583-2.214-2.583-1.393 0-2.38 1.026-2.38 2.79s.923 2.808 2.537 2.808a3.277 3.277 0 0 0 1.974-.729l-.24-.369a3.136 3.136 0 0 1-1.466.45m-14.245-4.446c1.217 0 1.66.9 1.66 2.196 0 1.584-.498 2.43-1.66 2.43-1.163 0-1.652-.846-1.652-2.43 0-1.26.425-2.196 1.652-2.196m0 5.085c1.418.103 2.655-.93 2.767-2.313a2.854 2.854 0 0 0 0-.486c.255-1.471-.76-2.865-2.27-3.114-1.507-.249-2.937.743-3.191 2.214a2.828 2.828 0 0 0 0 .9c-.163 1.382.853 2.63 2.27 2.79.165.013.332.013.497 0m45.558-2.718v1.35a1.477 1.477 0 0 1-1.208.792c-.646 0-.923-.243-.923-1.008s.545-1.161 1.845-1.161h.379m.922 1.206c0-.99.046-1.917.046-2.241 0-1.269-.682-1.8-1.928-1.8a5.042 5.042 0 0 0-2.076.549v.945h.702c.028-.288.172-.553.4-.737.229-.184.523-.272.817-.244h.065c.793 0 1.015.414 1.015 1.341v.477h-.388c-1.743 0-2.906.441-2.906 1.737-.015.843.668 1.541 1.532 1.566h.249a1.76 1.76 0 0 0 1.522-.9c.055.45.221.765 1.006.765.26.001.518-.038.765-.117v-.36c-.72-.054-.82-.189-.82-.999m34.136-3.519c1.217 0 1.66.9 1.66 2.196 0 1.584-.498 2.421-1.66 2.421-1.163 0-1.652-.837-1.652-2.421 0-1.269.415-2.196 1.652-2.196m0 5.076c1.413.109 2.65-.917 2.767-2.295a2.3 2.3 0 0 0 0-.504c.182-1.433-.825-2.752-2.285-2.993-1.46-.241-2.855.681-3.167 2.093a2.635 2.635 0 0 0 0 .9c-.162 1.377.85 2.621 2.26 2.781.169.013.339.013.508 0m18.618-5.04c1.218 0 1.66.9 1.66 2.196 0 1.584-.498 2.421-1.66 2.421-1.163 0-1.652-.837-1.652-2.421 0-1.269.425-2.196 1.652-2.196m0 5.076c1.413.109 2.65-.917 2.767-2.295a2.96 2.96 0 0 0 0-.495 2.667 2.667 0 0 0-.965-2.532 2.825 2.825 0 0 0-2.731-.45 2.72 2.72 0 0 0-1.765 2.082 2.828 2.828 0 0 0 0 .9c-.163 1.377.85 2.621 2.26 2.781a3.3 3.3 0 0 0 .507 0m6.053-5.103c.922 0 1.3.261 1.3.963s-.35 1.008-1.263 1.008h-.683V7.605h.646zm.055 2.502c1.163 0 1.485.261 1.485 1.044s-.322 1.026-1.347 1.026h-.84v-2.07h.702zm-1.716-1.8v3.204c0 .675-.138.783-.775.828v.387h2.611c1.365 0 2.426-.18 2.426-1.566 0-.792-.48-1.242-1.466-1.377V9.72c.674-.015 1.21-.557 1.199-1.215 0-1.044-.572-1.422-2.463-1.422h-2.307v.387c.637.054.775.153.775.828v.009zm14.827 3.132c0 .621-.13.9-.868.9v.369h2.703v-.369c-.738 0-.812-.288-.812-.9v-3.15c0-.621.102-.801.84-.828v-.378h-2.703v.378c.747 0 .84.207.84.828v1.269h-2.658V8.289c0-.621.102-.801.84-.828v-.378h-2.703v.378c.747 0 .84.207.84.828v3.15c0 .621-.13.9-.868.9v.369h2.703v-.369c-.738 0-.812-.288-.812-.9v-1.395h2.657v1.395zm-58.835-3.816c.84 0 1.19.513 1.19 1.8h-2.49c.073-1.377.525-1.8 1.282-1.8m.442 4.437c-1.162 0-1.716-.504-1.743-2.079h3.542v-.288c0-1.647-.82-2.583-2.214-2.583-1.393 0-2.37.99-2.37 2.79s.922 2.808 2.536 2.808a3.21 3.21 0 0 0 1.975-.738l-.231-.36c-.445.27-.953.424-1.476.45m7.538-4.437c.922 0 1.31.261 1.31.954s-.351 1.008-1.264 1.008h-.683V7.623h.637zm.055 2.493c1.162 0 1.485.261 1.485 1.035 0 .774-.323 1.035-1.338 1.035h-.84v-2.07h.693zm-1.707-1.8v3.195c0 .675-.138.774-.775.819v.387h2.602c1.365 0 2.435-.18 2.435-1.566 0-.783-.48-1.233-1.466-1.368.667-.029 1.195-.563 1.199-1.215 0-1.044-.554-1.368-2.463-1.368h-2.307v.387c.637 0 .775.144.775.819v-.09zm45.005-.684c.848 0 1.19.513 1.19 1.8h-2.473c.083-1.386.535-1.8 1.283-1.8m.452 4.437c-1.172 0-1.726-.504-1.744-2.079h3.533v-.288c0-1.647-.82-2.583-2.214-2.583-1.393 0-2.39 1.026-2.39 2.79s.923 2.808 2.547 2.808a3.277 3.277 0 0 0 1.974-.729l-.24-.369a3.136 3.136 0 0 1-1.466.45m17.833-4.41c.84 0 1.19.504 1.19 1.8h-2.481c.083-1.386.535-1.8 1.291-1.8m.443 4.437c-1.162 0-1.716-.513-1.743-2.079h3.542V9.72c0-1.638-.82-2.583-2.223-2.583-1.402 0-2.38 1.026-2.38 2.79s.922 2.817 2.537 2.817a3.342 3.342 0 0 0 1.974-.738l-.23-.369a3.051 3.051 0 0 1-1.477.459m4.42-.18a.785.785 0 0 0-.809-.756.783.783 0 0 0-.778.786.785.785 0 0 0 .802.762.775.775 0 0 0 .785-.747" fill="#FFF"/></g></svg>