<?xml version="1.0" standalone="no"?>
<!DOCTYPE svg PUBLIC "-//W3C//DTD SVG 20010904//EN"
 "http://www.w3.org/TR/2001/REC-SVG-20010904/DTD/svg10.dtd">
<svg version="1.0" xmlns="http://www.w3.org/2000/svg"
 width="500.000000pt" height="500.000000pt" viewBox="0 0 500.000000 500.000000"
 preserveAspectRatio="xMidYMid meet">
<metadata>
Created by potrace 1.11, written by Peter Selinger 2001-2013
</metadata>
<g transform="translate(0.000000,500.000000) scale(0.100000,-0.100000)"
fill="#000000" stroke="none">
<path d="M2441 4954 c0 -11 3 -14 6 -6 3 7 2 16 -1 19 -3 4 -6 -2 -5 -13z"/>
<path d="M2439 4929 c-1 -7 -19 -374 -24 -504 -9 -194 -18 -396 -20 -445 -2
-30 -6 -120 -9 -200 -4 -80 -9 -183 -11 -230 -3 -59 -1 -90 8 -100 20 -25 109
-100 118 -100 5 0 7 30 4 68 -2 37 -7 153 -10 257 -4 105 -8 224 -10 265 -2
41 -6 154 -10 250 -3 96 -8 211 -10 255 -2 44 -7 170 -10 280 -4 110 -9 202
-11 204 -2 2 -4 2 -5 0z"/>
<path d="M2624 4517 c-1 -47 -9 -241 -19 -462 -2 -44 -7 -134 -10 -200 -3 -66
-8 -163 -10 -215 -3 -52 -7 -150 -10 -217 l-6 -122 38 -17 c21 -9 54 -22 74
-29 l35 -13 -2 77 c-3 91 -12 349 -19 516 -3 66 -7 174 -10 240 -16 415 -18
441 -31 468 -21 40 -29 33 -30 -26z"/>
<path d="M2823 4368 c-1 -42 -19 -464 -27 -623 -3 -49 -8 -157 -11 -240 -3
-82 -8 -178 -10 -212 -3 -45 -1 -63 8 -65 54 -6 128 -4 133 4 7 11 6 80 -1
213 -2 39 -7 122 -10 185 -3 63 -8 151 -11 195 -2 44 -6 121 -9 170 -2 50 -7
142 -11 205 -3 63 -7 129 -8 145 -1 22 -7 31 -22 33 -12 2 -21 -3 -21 -10z"/>
<path d="M2359 3279 c-3 -10 -7 -75 -13 -179 -4 -63 -8 -146 -10 -185 -3 -38
-7 -122 -11 -185 -3 -63 -8 -146 -10 -185 -2 -38 -7 -119 -10 -180 -13 -249
-15 -284 -20 -370 -5 -91 -9 -165 -20 -380 -3 -66 -8 -151 -10 -188 l-3 -68
46 7 c52 7 127 45 140 72 5 9 8 46 7 82 -2 36 -6 193 -9 350 -4 157 -9 346
-11 420 -2 74 -7 248 -10 385 -14 582 -12 553 -34 582 -12 14 -21 24 -22 22z"/>
<path d="M2589 3078 c-5 -18 -7 -55 -13 -178 -4 -80 -9 -170 -11 -200 -4 -67
-14 -243 -20 -365 -3 -49 -7 -124 -10 -165 -3 -41 -7 -129 -11 -195 -3 -66 -7
-140 -9 -165 -2 -25 -7 -110 -10 -189 -8 -165 -20 -158 104 -56 l73 60 -6 255
c-6 246 -15 597 -21 825 -2 61 -4 163 -5 228 l-2 117 -29 15 c-16 9 -29 14
-30 13z"/>
<path d="M3318 3058 c-19 -6 -28 -17 -29 -31 0 -12 -2 -38 -4 -57 -1 -19 -6
-98 -10 -175 -4 -77 -9 -162 -10 -190 -2 -27 -6 -113 -10 -190 -8 -160 -9
-160 68 -15 l45 85 -4 110 c-2 61 -5 190 -8 288 -2 98 -6 180 -8 181 -2 2 -15
-1 -30 -6z"/>
<path d="M3100 3002 c-14 -2 -28 -7 -32 -10 -6 -6 -11 -79 -23 -322 -7 -137
-16 -294 -20 -350 -2 -30 -7 -120 -11 -200 -3 -80 -8 -148 -11 -152 -2 -5 1
-8 6 -8 6 0 41 37 77 83 l65 82 -6 255 c-7 333 -16 625 -18 625 -1 1 -13 -1
-27 -3z"/>
<path d="M2819 2953 c0 -27 -2 -66 -4 -88 -2 -22 -6 -98 -9 -170 -4 -71 -8
-150 -10 -175 -3 -25 -7 -103 -11 -175 -3 -71 -8 -164 -10 -205 -3 -41 -7
-120 -10 -175 -3 -55 -8 -140 -11 -190 l-6 -90 42 40 c23 22 61 58 83 80 l42
40 -1 95 c-1 89 -13 597 -19 810 -2 52 -3 130 -4 173 l-1 77 -35 0 c-35 0 -35
0 -36 -47z"/>
<path d="M1180 1315 l0 -1315 1320 0 1320 0 0 1315 0 1315 -189 0 c-171 0
-189 -2 -193 -17 -11 -41 -2 -43 163 -43 158 0 159 0 160 -22 4 -134 0 -2480
-4 -2485 -4 -3 -570 -6 -1259 -6 l-1253 0 -3 1257 -2 1256 479 0 479 0 4 25
c3 13 3 27 0 30 -3 3 -234 5 -514 5 l-508 0 0 -1315z"/>
<path d="M3613 2405 c0 -8 4 -12 9 -9 5 3 6 10 3 15 -9 13 -12 11 -12 -6z"/>
<path d="M3611 2318 c-1 -35 -4 -85 -6 -113 -2 -27 -6 -102 -9 -165 -3 -63 -8
-149 -11 -190 -5 -90 -14 -240 -20 -370 -3 -52 -7 -129 -10 -170 -4 -69 -9
-160 -20 -375 -3 -44 -7 -127 -11 -185 -3 -58 -7 -130 -9 -160 -1 -30 -6 -120
-10 -200 -4 -80 -8 -163 -9 -185 l-1 -40 90 0 90 0 -1 125 c-1 123 -10 492
-20 845 -5 194 -10 388 -20 810 -9 389 -10 424 -16 430 -3 3 -6 -23 -7 -57z"/>
<path d="M3370 2070 c-16 -30 -17 -39 -25 -199 -3 -79 -8 -162 -10 -185 -2
-22 -7 -99 -10 -171 -4 -71 -8 -155 -10 -185 -1 -30 -6 -118 -10 -195 -4 -77
-8 -160 -10 -185 -2 -25 -6 -101 -10 -170 -3 -69 -8 -150 -10 -180 -2 -30 -6
-113 -10 -185 -3 -72 -8 -158 -11 -192 l-5 -63 94 0 94 0 -2 103 c-2 56 -6
230 -10 387 -3 157 -8 353 -10 435 -3 83 -7 251 -10 375 -8 365 -17 625 -20
628 -2 2 -9 -6 -15 -18z"/>
<path d="M3118 1750 c-12 -17 -23 -47 -24 -68 -1 -20 -5 -91 -8 -157 -8 -126
-12 -194 -21 -365 -3 -58 -7 -139 -10 -180 -2 -41 -7 -124 -10 -185 -8 -154
-14 -267 -20 -360 -3 -44 -7 -124 -10 -177 l-6 -97 33 -3 c18 -2 61 -2 94 0
l61 4 -2 101 c-2 56 -6 210 -9 342 -4 132 -9 334 -12 450 -7 279 -12 466 -14
603 -1 61 -6 114 -11 117 -4 3 -18 -8 -31 -25z"/>
<path d="M2878 1506 c-40 -35 -35 -3 -53 -336 -3 -58 -8 -130 -10 -160 -2 -30
-7 -118 -10 -195 -4 -77 -9 -162 -11 -190 -7 -105 -17 -313 -18 -390 l-1 -79
80 1 c44 0 85 1 91 2 8 1 11 22 9 63 -2 35 -6 185 -9 333 -4 149 -9 356 -11
460 -3 105 -7 263 -9 353 -2 90 -6 165 -8 167 -1 2 -19 -11 -40 -29z"/>
<path d="M2628 1297 c-42 -36 -41 -26 -53 -282 -4 -71 -8 -152 -10 -180 -2
-27 -6 -111 -10 -185 -4 -74 -8 -155 -10 -180 -2 -25 -7 -106 -10 -181 l-7
-135 89 2 c48 1 90 2 94 3 3 1 4 22 3 47 -1 25 -5 177 -9 337 -4 161 -8 346
-10 412 -2 66 -4 177 -6 248 -1 83 -6 127 -13 127 -6 0 -28 -15 -48 -33z"/>
<path d="M2393 1133 c-29 -18 -53 -37 -54 -41 -1 -9 -5 -78 -13 -222 -4 -63
-9 -155 -12 -205 -3 -49 -7 -121 -9 -160 -1 -38 -6 -134 -10 -213 l-8 -142 92
2 c73 2 91 6 92 18 0 24 -3 236 -6 350 -1 58 -6 226 -10 375 -3 148 -7 270 -8
271 -1 1 -26 -14 -54 -33z"/>
<path d="M2147 988 c-46 -25 -57 -36 -58 -57 0 -14 -2 -42 -4 -61 -1 -19 -6
-102 -10 -185 -4 -82 -9 -168 -10 -190 -2 -22 -6 -103 -10 -180 -4 -77 -8
-144 -9 -150 0 -6 38 -11 93 -13 l93 -3 -7 298 c-9 411 -14 565 -17 569 -2 1
-29 -11 -61 -28z"/>
<path d="M1898 862 c-58 -26 -58 -27 -59 -72 0 -25 -2 -63 -4 -85 -3 -43 -11
-186 -20 -380 -4 -66 -8 -132 -10 -147 l-3 -28 95 0 95 0 -7 283 c-4 155 -8
320 -9 366 -1 47 -6 86 -12 87 -5 1 -35 -10 -66 -24z"/>
<path d="M1665 759 c-27 -11 -55 -25 -61 -30 -6 -5 -12 -39 -14 -76 -6 -151
-20 -398 -25 -460 -3 -29 0 -43 8 -44 12 -1 81 -1 145 0 l33 1 -7 263 c-3 144
-7 286 -7 315 0 30 -5 52 -11 51 -6 0 -33 -9 -61 -20z"/>
<path d="M1420 666 l-65 -23 -5 -44 c-3 -24 -5 -136 -5 -249 l0 -205 80 0 80
0 -2 180 c-3 316 -5 365 -12 364 -3 0 -35 -11 -71 -23z"/>
</g>
</svg>
