<svg xmlns="http://www.w3.org/2000/svg"><symbol id="icon_arrow" viewBox="0 0 16.7 31.7"><path d="M1.19 31.19l-.7-.7 15-15 .7.7zm0-30.7l-.7.7 15 15 .7-.7z" transform="translate(.01 .01)"/><path d="M1.19 31.19l-.7-.7 15-15 .7.7zm0-30.7l-.7.7 15 15 .7-.7z" transform="translate(.01 .01)" stroke-linejoin="round"/></symbol><symbol id="icon_logo" viewBox="0 0 365 26"><g id="Symbols" fill-rule="evenodd"><g id="nav_desktop" transform="translate(-32 -27)"><g id="Nav" transform="translate(32 27)"><g id="electrolux-grand-cuisine-logo"><path d="M54.846 14.052h7.699a7.242 7.242 0 0 1-7.168 6.174c-4.006 0-7.254-3.238-7.254-7.233 0-3.995 3.248-7.233 7.254-7.233a7.247 7.247 0 0 1 6.115 3.351H63.9a9.373 9.373 0 0 0-8.523-5.47C50.2 3.642 46 7.83 46 12.994s4.199 9.35 9.377 9.35c5.179 0 9.377-4.186 9.377-9.35v-1.059h-9.908v2.118zm32.991-2.118H80.06V6.288h7.785a2.827 2.827 0 0 1 2.83 2.823 2.827 2.827 0 0 1-2.83 2.824h-.007zm4.96-2.823a4.947 4.947 0 0 0-4.953-4.939v-.001h-9.908v17.643h2.123v-7.762h7.479l3.466 7.762h2.324l-3.627-8.125a4.939 4.939 0 0 0 3.097-4.578zm17.948 5.647l3.372-7.553 3.372 7.553h-6.744zm-5.474 7.056h2.324l2.205-4.94h8.634l2.206 4.94h2.323L114.117 2l-8.846 19.814zm43.17-4.33L135.348 2.987v18.829h2.123V8.5L150.564 23V4.171h-2.123v13.314zm23.708 2.213h-5.308V6.288h5.308c3.713 0 6.723 3.002 6.723 6.705 0 3.703-3.01 6.704-6.723 6.704zm0-15.525h-7.431v17.643h7.431c4.886 0 8.846-3.95 8.846-8.82 0-4.873-3.96-8.823-8.846-8.823zm39.102 1.588a7.247 7.247 0 0 1 6.114 3.351h2.409a9.374 9.374 0 0 0-8.523-5.47c-5.179 0-9.377 4.188-9.377 9.352 0 5.164 4.198 9.35 9.377 9.35a9.371 9.371 0 0 0 8.523-5.469h-2.41a7.244 7.244 0 0 1-6.113 3.352c-4.007 0-7.255-3.238-7.255-7.233 0-3.995 3.248-7.233 7.255-7.233zm34.146 8.644c0 3.215-2.614 5.823-5.838 5.823-3.225 0-5.839-2.608-5.839-5.823V4.17h-2.123v10.233c0 4.385 3.565 7.94 7.962 7.94 4.396 0 7.961-3.555 7.961-7.94V4.17h-2.123v10.233zm16.278 7.41h2.122V4.17h-2.122v17.643zm23.413-9.87c-3.649-.51-5.368-.958-5.368-2.833 0-2.036 1.945-3.351 4.955-3.351s4.954 1.315 4.954 3.351h2.123c0-2.722-2.189-5.47-7.077-5.47s-7.077 2.748-7.077 5.47c0 3.92 3.989 4.48 7.194 4.93 3.649.513 5.367.96 5.367 2.833 0 1.625-1.922 3.352-5.484 3.352-3.562 0-5.485-1.727-5.485-3.352h-2.124c0 2.652 2.668 5.47 7.609 5.47s7.608-2.818 7.608-5.47c0-3.919-3.99-4.48-7.195-4.93zm20.111 9.87h2.122V4.17H305.2v17.643zm29.37-4.33L321.475 2.987v18.829h2.123V8.5L336.692 23V4.171h-2.124v13.314zM365 6.289V4.171h-14.155v17.644H365v-2.118h-12.03v-5.645h10.968v-2.118H352.97V6.288H365z" id="Fill-1"/><path d="M17 2a11.587 11.587 0 0 1 8 10.999c.013 5.056-3.271 9.398-8 11.001V2zm-2 22.738c-.734.151-1.66.262-2.444.262C6.386 24.993 1.233 20.018 1 14h2.456C9.32 14 15 18.848 15 24.738zm0-23.48C15 7.15 9.317 12 3.453 12L1 11.996C1.403 5.955 6.386 1 12.555 1c.828 0 1.71.11 2.445.258zM0 26h26V0H0v26z" id="Fill-3"/></g></g></g></g></symbol><symbol id="icon_refresh" viewBox="0 0 612.035 612.035"><path d="M323.128 56.236l5.646-9.57 40.17-40.169C271.247-13.921 165.482 13.786 89.65 89.646-16.421 195.717-28.355 360.261 53.875 479.49L10.98 522.386l137.7 19.667-19.667-137.7-34.968 34.967c-60.978-96.724-49.322-226.078 34.94-310.34 53.244-53.243 124.486-77.501 194.143-72.744zm258.264 13.743l-137.7-19.667 19.668 137.7 38.25-38.25c78.726 98.31 72.521 242.186-18.583 333.317-61.116 61.117-145.989 84.039-224.882 68.739l-45.65 45.649c105.654 33.799 226.05 8.791 309.895-75.054 112.858-112.858 119.146-291.979 18.805-412.209l40.197-40.225z"/></symbol></svg>