<svg xmlns="http://www.w3.org/2000/svg" viewBox="0 0 511.09 147.64"><title>Grand Cuisine Logo White_original</title><path d="M154.28 144.2a4.41 4.41 0 0 1-.82 1.27 3.76 3.76 0 0 1-1.21.86 3.82 3.82 0 0 1-1.58.31 4.51 4.51 0 0 1-2.13-.47 4.22 4.22 0 0 1-1.46-1.25 5.35 5.35 0 0 1-.84-1.77 7.56 7.56 0 0 1 0-4 5.39 5.39 0 0 1 .84-1.76 4.22 4.22 0 0 1 1.46-1.25 4.51 4.51 0 0 1 2.13-.47 4.24 4.24 0 0 1 1.3.2 3.93 3.93 0 0 1 1.14.59 3.55 3.55 0 0 1 .88 1 4 4 0 0 1 .51 1.19h1.19a4.27 4.27 0 0 0-.59-1.73 4.52 4.52 0 0 0-1.15-1.27 5 5 0 0 0-1.54-.78 5.83 5.83 0 0 0-1.74-.26 5.9 5.9 0 0 0-2.58.54 5.32 5.32 0 0 0-1.85 1.43 6.17 6.17 0 0 0-1.1 2.07 8.47 8.47 0 0 0 0 4.94 6 6 0 0 0 1.1 2.06 5.34 5.34 0 0 0 1.85 1.43 5.87 5.87 0 0 0 2.58.54 5.47 5.47 0 0 0 2-.35 4.6 4.6 0 0 0 1.57-1 5.11 5.11 0 0 0 1.08-1.58 6.72 6.72 0 0 0 .54-2.08h-1.19a5.28 5.28 0 0 1-.39 1.59zm6.64-8.29h4.34v11.48h1.19v-11.48h4.36v-1h-9.89v1zm-29.74 5.53h7v-1h-7v-4.52h7.44v-1h-8.63v12.49h8.72v-1h-7.52v-4.94zm296.76-6.54l-5 12.49h1.26l1.51-3.88h5.69l1.52 3.88h1.28l-4.9-12.49h-1.33zm-1.89 7.59l2.5-6.4 2.42 6.4h-4.92zm-308.43-7.59h-1.19v12.49h8.19v-1h-7V134.9zm69 11c0-.31-.06-.62-.07-.92s0-.56 0-.77a6.25 6.25 0 0 0-.15-1 2.48 2.48 0 0 0-.37-.85 2 2 0 0 0-.66-.6 2.77 2.77 0 0 0-1-.32 2.79 2.79 0 0 0 1.82-1.12 3.51 3.51 0 0 0 .61-2.07 3.27 3.27 0 0 0-.31-1.46 2.81 2.81 0 0 0-.82-1 3.53 3.53 0 0 0-1.21-.59 5.48 5.48 0 0 0-1.46-.19h-5.72v12.49h1.19v-5.65h4.51a2.23 2.23 0 0 1 1.32.28 2.08 2.08 0 0 1 .74.83 3.61 3.61 0 0 1 .33 1.17q.08.66.11 1.32v.99a3.77 3.77 0 0 0 .09.53 1.52 1.52 0 0 0 .17.43h1.31a1.65 1.65 0 0 1-.31-.64 5.61 5.61 0 0 1-.15-.88zm-2.74-5.25a3.18 3.18 0 0 1-1 .17h-4.48v-4.92h4.44a2.76 2.76 0 0 1 2 .67 2.46 2.46 0 0 1 .66 1.82 2.29 2.29 0 0 1-.22 1 2.38 2.38 0 0 1-.59.76 2.6 2.6 0 0 1-.81.5zm257.86 5.71V134.9h-1.24v12.49h8.19v-1h-7zm-85.57-4.53a4.2 4.2 0 0 0-1-.63 8.74 8.74 0 0 0-1.25-.43l-3-.75a4.73 4.73 0 0 1-.73-.23 2.14 2.14 0 0 1-.6-.37 1.58 1.58 0 0 1-.41-.55 1.8 1.8 0 0 1-.15-.76 2.4 2.4 0 0 1 .26-1.17 2.2 2.2 0 0 1 .69-.76 3 3 0 0 1 1-.42 5.21 5.21 0 0 1 1.18-.13 4.31 4.31 0 0 1 1.27.18 3.32 3.32 0 0 1 1.07.54 2.78 2.78 0 0 1 .75.89 2.88 2.88 0 0 1 .32 1.25h1.19a3.54 3.54 0 0 0-1.46-2.84 4.39 4.39 0 0 0-1.47-.73 6.27 6.27 0 0 0-1.77-.25 5.31 5.31 0 0 0-2.15.38 3.84 3.84 0 0 0-1.32.92 3 3 0 0 0-.66 1.16 4 4 0 0 0-.17 1.07 3 3 0 0 0 .24 1.24 2.66 2.66 0 0 0 .62.86 3 3 0 0 0 .9.56 8 8 0 0 0 1.06.35l2.78.68a8.15 8.15 0 0 1 .89.27 3.69 3.69 0 0 1 .83.43 2.19 2.19 0 0 1 .61.65 1.7 1.7 0 0 1 .24.91 2 2 0 0 1-.33 1.16 2.78 2.78 0 0 1-.83.79 3.7 3.7 0 0 1-1.08.45 4.53 4.53 0 0 1-1.07.14 7.43 7.43 0 0 1-1.61-.17 3.62 3.62 0 0 1-1.3-.55 2.66 2.66 0 0 1-.87-1 3.53 3.53 0 0 1-.3-1.61h-1.19a4.44 4.44 0 0 0 .31 2 3.44 3.44 0 0 0 1 1.35 4.42 4.42 0 0 0 1.61.78 7.93 7.93 0 0 0 2 .25 7.79 7.79 0 0 0 1.89-.2 4.91 4.91 0 0 0 1.32-.53 3 3 0 0 0 .84-.73 3.64 3.64 0 0 0 .47-.8 2.81 2.81 0 0 0 .21-.74 4.74 4.74 0 0 0 0-.56 3.07 3.07 0 0 0-.25-1.31 2.67 2.67 0 0 0-.58-1.01zm16.22 0a4.2 4.2 0 0 0-1-.63 8.74 8.74 0 0 0-1.25-.43l-3-.75a4.73 4.73 0 0 1-.73-.23 2.14 2.14 0 0 1-.6-.37 1.58 1.58 0 0 1-.41-.55 1.8 1.8 0 0 1-.15-.76 2.4 2.4 0 0 1 .26-1.17 2.2 2.2 0 0 1 .69-.76 3 3 0 0 1 1-.42 5.21 5.21 0 0 1 1.18-.13 4.31 4.31 0 0 1 1.27.18 3.32 3.32 0 0 1 1.07.54 2.78 2.78 0 0 1 .75.89 2.88 2.88 0 0 1 .32 1.25h1.19a3.54 3.54 0 0 0-1.48-2.84 4.39 4.39 0 0 0-1.47-.73 6.27 6.27 0 0 0-1.77-.25 5.31 5.31 0 0 0-2.15.38 3.84 3.84 0 0 0-1.32.92 3 3 0 0 0-.66 1.16 4 4 0 0 0-.17 1.07 3 3 0 0 0 .24 1.24 2.66 2.66 0 0 0 .62.86 3 3 0 0 0 .9.56 8 8 0 0 0 1.06.35l2.78.68a8.15 8.15 0 0 1 .89.27 3.69 3.69 0 0 1 .83.43 2.19 2.19 0 0 1 .61.65 1.7 1.7 0 0 1 .24.91 2 2 0 0 1-.33 1.16 2.78 2.78 0 0 1-.83.79 3.7 3.7 0 0 1-1.08.45 4.53 4.53 0 0 1-1.07.14 7.43 7.43 0 0 1-1.61-.17 3.62 3.62 0 0 1-1.3-.55 2.66 2.66 0 0 1-.87-1 3.53 3.53 0 0 1-.3-1.61h-1.19a4.44 4.44 0 0 0 .31 2 3.44 3.44 0 0 0 1 1.35 4.42 4.42 0 0 0 1.61.78 7.93 7.93 0 0 0 2 .25 7.79 7.79 0 0 0 1.89-.2 4.91 4.91 0 0 0 1.32-.53 3 3 0 0 0 .84-.73 3.64 3.64 0 0 0 .47-.8 2.81 2.81 0 0 0 .21-.74 4.74 4.74 0 0 0 0-.56 3.07 3.07 0 0 0-.25-1.31 2.67 2.67 0 0 0-.56-1.01zm-270.15-.41h7v-1h-7v-4.52h7.44v-1h-8.63v12.49h8.72v-1h-7.52v-4.94zm-35.86-.65a2.49 2.49 0 0 0 .88-.37 2.79 2.79 0 0 0 .68-.64 2.9 2.9 0 0 0 .45-.84 3.2 3.2 0 0 0-.17-2.41 2.7 2.7 0 0 0-.88-.95 3.65 3.65 0 0 0-1.28-.51 7.49 7.49 0 0 0-1.51-.15h-5.29v12.49h5.24a7.16 7.16 0 0 0 1.74-.18 4.79 4.79 0 0 0 1.23-.47 2.67 2.67 0 0 0 .8-.67 3.25 3.25 0 0 0 .46-.78 3.32 3.32 0 0 0 .21-.77 5 5 0 0 0 .05-.67 3 3 0 0 0-.72-2.05 3 3 0 0 0-1.89-1zm-5.93-4.88h4.05q2.82 0 2.82 2.35a2 2 0 0 1-.17.82 1.86 1.86 0 0 1-.52.67 2.58 2.58 0 0 1-.87.46 4.12 4.12 0 0 1-1.24.17h-4.07v-4.46zm7.12 9.14a2.11 2.11 0 0 1-.72.8 2.88 2.88 0 0 1-1 .41 6.68 6.68 0 0 1-1.26.12h-4.14v-5h4.05a4.18 4.18 0 0 1 2.44.6 2.08 2.08 0 0 1 .85 1.81 2.67 2.67 0 0 1-.22 1.29zm11.52-3.82l-4.11-6.33h-1.4l4.9 7.35v5.14h1.19v-5.12l4.94-7.35h-1.42zm124.54-4.56a5.34 5.34 0 0 0-1.84-1.43 5.84 5.84 0 0 0-2.57-.54 5.9 5.9 0 0 0-2.58.54 5.32 5.32 0 0 0-1.85 1.43 6.18 6.18 0 0 0-1.1 2.07 8.48 8.48 0 0 0 0 4.94 6.06 6.06 0 0 0 1.1 2.06 5.35 5.35 0 0 0 1.85 1.43 5.88 5.88 0 0 0 2.58.54 5.82 5.82 0 0 0 2.57-.54 5.36 5.36 0 0 0 1.84-1.43 6.05 6.05 0 0 0 1.1-2.06 8.47 8.47 0 0 0 0-4.94 6.17 6.17 0 0 0-1.1-2.07zm0 6.54a5.36 5.36 0 0 1-.84 1.77 4.25 4.25 0 0 1-1.45 1.25 4.46 4.46 0 0 1-2.13.47 4.51 4.51 0 0 1-2.14-.47 4.22 4.22 0 0 1-1.46-1.25 5.35 5.35 0 0 1-.84-1.77 7.57 7.57 0 0 1 0-4 5.39 5.39 0 0 1 .84-1.76 4.22 4.22 0 0 1 1.46-1.25 4.51 4.51 0 0 1 2.14-.47 4.46 4.46 0 0 1 2.13.47 4.25 4.25 0 0 1 1.45 1.25 5.4 5.4 0 0 1 .84 1.76 7.56 7.56 0 0 1 .01 3.96zm89.21 2.73c0-.31-.06-.62-.07-.92s0-.56 0-.77a6.21 6.21 0 0 0-.15-1 2.5 2.5 0 0 0-.37-.85 2 2 0 0 0-.66-.6 2.78 2.78 0 0 0-1-.32 2.79 2.79 0 0 0 1.82-1.12 3.51 3.51 0 0 0 .61-2.07 3.28 3.28 0 0 0-.31-1.46 2.82 2.82 0 0 0-.82-1 3.54 3.54 0 0 0-1.21-.59 5.49 5.49 0 0 0-1.46-.19h-5.72v12.49h1.19v-5.67h4.51a2.23 2.23 0 0 1 1.32.28 2.08 2.08 0 0 1 .73.83 3.57 3.57 0 0 1 .33 1.17q.08.66.11 1.32v.99a3.78 3.78 0 0 0 .09.53 1.49 1.49 0 0 0 .17.43h1.31a1.65 1.65 0 0 1-.31-.64 5.61 5.61 0 0 1-.1-.88zm-2.7-5.27a3.18 3.18 0 0 1-1 .17h-4.44v-4.92h4.44a2.76 2.76 0 0 1 2 .67 2.46 2.46 0 0 1 .66 1.82 2.29 2.29 0 0 1-.22 1 2.37 2.37 0 0 1-.59.76 2.59 2.59 0 0 1-.85.5zm90.28 6.73h1.19V134.9h-1.19v12.49zm18.62-10.73a5.33 5.33 0 0 0-1.84-1.43 6.47 6.47 0 0 0-5.15 0 5.32 5.32 0 0 0-1.85 1.43 6.19 6.19 0 0 0-1.1 2.07 8.48 8.48 0 0 0 0 4.94 6.07 6.07 0 0 0 1.1 2.06 5.34 5.34 0 0 0 1.85 1.43 6.47 6.47 0 0 0 5.15 0 5.35 5.35 0 0 0 1.84-1.43 6.07 6.07 0 0 0 1.1-2.06 8.48 8.48 0 0 0 0-4.94 6.19 6.19 0 0 0-1.1-2.07zm0 6.54a5.38 5.38 0 0 1-.84 1.77 4.26 4.26 0 0 1-1.45 1.25 4.46 4.46 0 0 1-2.13.47 4.52 4.52 0 0 1-2.14-.47 4.23 4.23 0 0 1-1.46-1.25 5.36 5.36 0 0 1-.84-1.77 7.56 7.56 0 0 1 0-4 5.4 5.4 0 0 1 .84-1.76 4.23 4.23 0 0 1 1.46-1.25 4.52 4.52 0 0 1 2.14-.47 4.46 4.46 0 0 1 2.13.47 4.26 4.26 0 0 1 1.45 1.25 5.42 5.42 0 0 1 .84 1.76 7.56 7.56 0 0 1 .01 3.96zm-89.15-6.54a5.33 5.33 0 0 0-1.84-1.43 6.47 6.47 0 0 0-5.15 0 5.32 5.32 0 0 0-1.85 1.43 6.19 6.19 0 0 0-1.1 2.07 8.48 8.48 0 0 0 0 4.94 6.07 6.07 0 0 0 1.1 2.06 5.35 5.35 0 0 0 1.85 1.43 6.47 6.47 0 0 0 5.15 0 5.35 5.35 0 0 0 1.84-1.43 6.07 6.07 0 0 0 1.1-2.06 8.48 8.48 0 0 0 0-4.94 6.19 6.19 0 0 0-1.1-2.07zm0 6.54a5.38 5.38 0 0 1-.84 1.77 4.26 4.26 0 0 1-1.45 1.25 4.46 4.46 0 0 1-2.1.44 4.52 4.52 0 0 1-2.14-.47 4.23 4.23 0 0 1-1.46-1.25 5.36 5.36 0 0 1-.84-1.77 7.56 7.56 0 0 1 0-4 5.4 5.4 0 0 1 .84-1.76 4.23 4.23 0 0 1 1.46-1.25 4.52 4.52 0 0 1 2.14-.5 4.46 4.46 0 0 1 2.13.47 4.26 4.26 0 0 1 1.45 1.25 5.42 5.42 0 0 1 .84 1.76 7.56 7.56 0 0 1-.02 4.02zm8.51 4.24h1.19v-5.95h6v-1h-6v-4.52h6.74v-1h-7.93v12.49zm97.79-1.92l-7.28-10.57h-1.33v12.49h1.19v-10.61l7.28 10.57h1.33V134.9h-1.19v10.57zm-182.54-2.86a6.07 6.07 0 0 1-.25 1.85 3.1 3.1 0 0 1-.72 1.24 2.79 2.79 0 0 1-1.15.7 5.08 5.08 0 0 1-1.56.22 5 5 0 0 1-1.54-.22 2.79 2.79 0 0 1-1.15-.7 3.11 3.11 0 0 1-.72-1.24 6.07 6.07 0 0 1-.24-1.85v-7.73h-1.19v8a6.08 6.08 0 0 0 .27 1.83 4 4 0 0 0 .86 1.51 4.07 4.07 0 0 0 1.51 1 6.74 6.74 0 0 0 4.44 0 4.07 4.07 0 0 0 1.5-1 4 4 0 0 0 .86-1.51 6.09 6.09 0 0 0 .27-1.83v-8h-1.19v7.73zm42.11-6.8a3.2 3.2 0 0 0-1.17-.7 4.61 4.61 0 0 0-1.52-.24h-5.57v12.49h1.19v-5.36h4.36a4.66 4.66 0 0 0 1.52-.23 3.23 3.23 0 0 0 1.17-.7 3.09 3.09 0 0 0 .75-1.13 4.44 4.44 0 0 0 0-3 3.11 3.11 0 0 0-.73-1.14zm-.95 4.56a3.08 3.08 0 0 1-2 .63h-4.09v-5.11h4.09a3.08 3.08 0 0 1 2 .63 2.79 2.79 0 0 1 .01 3.83zm-61.47-5.49h-1.19v12.49h8.19v-1h-7V134.9zm120.57 6.54h7v-1h-7v-4.52h7.44v-1h-8.63v12.49h8.71v-1h-7.53v-4.94zm-83.1-6.54h-1.31l-3.66 5.23-3.53-5.23h-1.4l4.23 6.05-4.48 6.44h1.33l3.85-5.51 3.8 5.51h1.43l-4.51-6.4zm260.27-40.81v-3.4h-22.67v28.34h22.68v-3.4h-19.28v-9.07h17.57v-3.4h-17.57v-9.07h19.28zm-48.76 18l-21-23.29v30.23h3.4v-21.4l21 23.3V90.7h-3.4v21.39zm-47.05 7h3.4V90.7h-3.4v28.35zm-32.22-15.86c-5.85-.82-8.6-1.54-8.6-4.55 0-3.27 3.12-5.38 7.94-5.38s7.94 2.11 7.94 5.38h3.4c0-4.37-3.51-8.79-11.34-8.79s-11.34 4.41-11.34 8.79c0 6.3 6.39 7.2 11.53 7.92 5.85.82 8.6 1.54 8.6 4.55 0 2.61-3.08 5.38-8.79 5.38s-8.79-2.77-8.79-5.38h-3.4c0 4.26 4.27 8.79 12.19 8.79s12.19-4.53 12.19-8.79c0-6.35-6.39-7.25-11.53-7.98zm-37.55 15.8h3.4V90.7h-3.4v28.35zm-26-11.91a9.355 9.355 0 1 1-18.71 0V90.7h-3.4v16.44a12.76 12.76 0 0 0 25.51 0V90.7h-3.4v16.44zm-54.71-13.89a11.6 11.6 0 0 1 9.71 5.4h3.86a15 15 0 1 0 0 12.47h-3.86a11.62 11.62 0 1 1-9.75-17.86zm-62.65-2.55H190.2v28.35h11.91a14.175 14.175 0 1 0 0-28.35zm0 24.94h-8.5V94.11h8.5a10.77 10.77 0 1 1-.03 21.54zm-38-3.55l-21-23.29v30.25h3.36v-21.4l21 23.3V90.7h-3.4v21.39zm-69.17 7h3.72l3.53-7.94h13.83l3.53 7.94h3.72l-14.17-31.83zm8.77-11.34l5.4-12.13 5.4 12.13h-10.8zm-28.77-9.1a7.94 7.94 0 0 0-7.94-7.94H51.16v28.34h3.4v-12.47H66.5l5.6 12.47h3.72L70.01 106a7.93 7.93 0 0 0 4.96-7.35zm-7.95 4.54H54.56v-9.07h12.48a4.54 4.54 0 0 1 0 9.07zm-52.86 3.4H26.5a11.62 11.62 0 1 1-1.68-7.94h3.86a15 15 0 1 0 1.37 6.24v-1.7H14.17v3.4zM226.2 0v59.52h59.53V0H226.2zm35.37 3.79c0 13.48-13 24.59-26.51 24.59h-5.63c.93-13.83 12.36-25.17 26.52-25.17a29.64 29.64 0 0 1 5.62.57zm0 52a29.88 29.88 0 0 1-5.61.6c-14.16 0-26-11.39-26.53-25.16h5.64c13.43-.05 26.5 11.03 26.5 24.51zm2.79-51.19a26.58 26.58 0 0 1 0 50.42V4.54z" fill="#fff"/></svg>