<svg width="242" height="153" viewBox="0 0 242 153" xmlns="http://www.w3.org/2000/svg"><title>0C1D544B-01D7-45CF-86F7-6C2A09B804BD</title><g fill="#FFF"><path d="M71.884 44.645v17.349l-3.26 5.931 3.749 2.065 10.112-18.403-3.746-2.062-2.577 4.686v-7.427l23.002-17.283c.33.094.668.162 1.027.162a3.744 3.744 0 0 0 0-7.49 3.743 3.743 0 0 0-3.742 3.744l.025.252-24.59 18.476zm62.027 24.611v-4.284l-11.802.005-14.044-17.635c.106-.349.179-.71.179-1.092a3.742 3.742 0 1 0-7.485 0 3.745 3.745 0 0 0 3.741 3.746l.194-.02.242.305L89.03 66.193l-9.798 1.692-10.75 19.563h-5.65v4.277h46.107v-4.277h-9.35l-2.711-4.962.082-.012 18.723-18.699 1.348 1.696-9.736 9.748 1.51 1.512 9.57-9.573 1.344 1.684-6.373 6.377 1.513 1.512 7.468-7.472h3.02l-5.957 5.96 1.51 1.512 7.474-7.475h5.537zm-22.248-10.528l-17.59 17.598-7.278 1.19 5.431 9.932h-13.98l6.48-11.764 8.391-1.446 17.195-17.206 1.351 1.696zm-29.67 13.024l9.102-1.57 16.524-16.533 1.354 1.699-16.885 16.893-8.737 1.507-7.55 13.7h-2.436l8.628-15.696zm13.964 8.698l-2.45.337 3.642 6.661h-2.485l-4.54-8.306 4.979-.814 17.9-17.913 1.338 1.676-18.384 18.36zm31.523-49.193l11.288-7.422 8.933 7.192 2.68-3.337-11.356-9.14-13.904 9.133a3.792 3.792 0 0 0-1.44-.286 3.807 3.807 0 0 0-3.807 3.809 3.807 3.807 0 0 0 3.806 3.809 3.806 3.806 0 0 0 3.8-3.758"/><path d="M192.729 38.225v-4.281h-12.381l-34.74-28.228c.033-.218.067-.439.067-.664a4.278 4.278 0 0 0-8.555 0l.029.298-28.777 19.539 2.4 3.54 28.774-19.534a4.234 4.234 0 0 0 1.85.436c.533 0 1.044-.112 1.518-.29l30.649 24.903h-9.708v4.281h12.783l-8.976 26.753h-9.156v4.281h12.233l7.539-22.476h10.172v-4.279h-8.737l1.436-4.279h11.58z"/><path d="M153.825 63.501l-1.514-1.514-4.913 4.919-1.424-1.604 7.056-7.06 2.73 2.732 3.024-3.026-10.529-10.538-3.024 3.024 3.262 3.269-6.79 6.794-.54-.608c.14-.422.235-.865.235-1.333a4.278 4.278 0 1 0-8.558 0 4.28 4.28 0 0 0 4.279 4.282c.295 0 .584-.032.862-.093l4.753 5.353L131.838 79h-.058a3.76 3.76 0 0 0 0 7.519 3.757 3.757 0 0 0 3.755-3.758c0-.296-.04-.577-.106-.853L153.825 63.5zm-3.819-8.286l1.511 1.514-6.967 6.971-1.423-1.601 6.879-6.884zm2.121 13.009L139.83 80.531l1.514 1.512 12.296-12.304zm-9.272 15.333l1.513 1.515 9.625-9.634-1.513-1.512zm10.953-1.881l-1.513-1.512-7.28 7.284h-2.549v4.277h17.149v-4.277H148.04zM67.61 42.513l11.471-8.621-2.569-3.422-13.18 9.903v10.69h4.279zm-27.68 68.949v39.292h8.594v-39.292zm182.315 30.861v-7.187h16.396v-8.338h-16.396v-7.085h19.594v-8.337h-28.19v39.287h28.19v-8.34zm-113-30.948H76.621v8.338h20.398L76.78 142.525l-.133.155v7.984h32.598v-8.342H88.866l20.379-22.939zm94.042 0h-8.022v24.755l-18.466-24.542-.165-.213h-8.291v39.289h8.56v-24.758l18.466 24.545.162.213h8.291v-39.289zM28.507 133.41c-1.01-1.353-2.373-2.494-4.058-3.403a9.602 9.602 0 0 0 2.775-3.13c.835-1.512 1.259-3.286 1.259-5.273 0-3.285-1.245-5.83-3.703-7.574-2.38-1.689-5.664-2.552-9.756-2.566v-.003H.888v39.292h15.54c3.902 0 7.21-.95 9.834-2.828 2.678-1.914 4.037-4.935 4.037-8.977 0-2.079-.603-3.945-1.792-5.539zM9.484 119.808h6.702c1.131 0 2.129.525 2.795 1.335l.056.065c.486.62.789 1.391.789 2.24a3.64 3.64 0 0 1-3.64 3.64H9.484v-7.28zm8.654 22.86v.025H9.484v-7.284h8.654v.025a3.63 3.63 0 0 1 3.407 3.617c0 1.934-1.508 3.494-3.407 3.618zm139.364-22.46a22.7 22.7 0 0 0-8.003-8.032c-3.335-1.99-6.996-2.995-10.89-2.995-3.89 0-7.557 1.005-10.891 2.995-3.33 1.984-6 4.688-7.943 8.037-1.947 3.353-2.932 7.007-2.932 10.862 0 3.933.985 7.609 2.932 10.923a21.998 21.998 0 0 0 7.918 7.926c3.318 1.946 6.986 2.934 10.916 2.934 3.892 0 7.553-.988 10.885-2.934a22.377 22.377 0 0 0 8.005-7.921c1.983-3.317 2.99-6.995 2.99-10.928 0-3.855-1.007-7.514-2.987-10.867m-18.835 24.383c-7.162 0-12.974-6.077-12.974-13.571 0-7.495 5.812-13.57 12.974-13.57 7.163 0 12.97 6.075 12.97 13.57 0 7.494-5.807 13.57-12.97 13.57m-80.312 6.074h8.439v-8.599h-8.439z"/></g></svg>