<svg xmlns="http://www.w3.org/2000/svg"><symbol id="icon_arrow" viewBox="0 0 24 24"><g id="Symbols" fill-rule="evenodd"><g id="arrow-left-w"><g id="arrow-left"><path d="M16.213 12.968H4v-1.992h12.156L10.84 5.659l1.409-1.41L19.999 12l-7.75 7.75-1.409-1.409 5.373-5.373z" id="Combined-Shape" transform="matrix(-1 0 0 1 24 0)"/></g></g></g></symbol><symbol id="icon_check" viewBox="0 0 24 24"><g id="Symbols" fill-rule="evenodd"><g id="check-circle-outline"><path d="M12 2c5.52 0 10 4.48 10 10s-4.48 10-10 10S2 17.52 2 12 6.48 2 12 2zm0 2c-4.42 0-8 3.58-8 8s3.58 8 8 8 8-3.58 8-8-3.58-8-8-8zm-1 12.5L6.5 12l1.41-1.41L11 13.67l5.59-5.58L18 9.5l-7 7z" id="Shape" fill-rule="nonzero"/></g></g></symbol><symbol id="icon_comment" viewBox="0 0 24 24"><g id="Symbols" fill-rule="evenodd"><g id="comment-alert-outline-w"><path d="M9 22c-.55 0-1-.45-1-1v-3H4c-1.1 0-2-.9-2-2V4a2 2 0 0 1 2-2h16c1.1 0 2 .9 2 2v12c0 1.1-.9 2-2 2h-6.1l-3.7 3.71c-.2.19-.45.29-.7.29H9zm1-6v3.08L13.08 16H20V4H4v12h6zm3-6h-2V6h2v4zm0 4h-2v-2h2v2z" id="Shape" fill-rule="nonzero"/></g></g></symbol><symbol id="icon_eng" viewBox="0 0 24 24"><g id="Symbols" fill-rule="evenodd"><g id="eng-w"><path d="M3 18V6h6.905v1.853h-4.95v2.96h4.407v1.819H4.955v3.515h5.323V18H3zm16.34 0a79.53 79.53 0 0 0-1.18-2.121c-.434-.756-.884-1.518-1.35-2.286a61.673 61.673 0 0 0-1.42-2.234 41.913 41.913 0 0 0-1.373-1.948V18h-1.924V6h1.598c.414.485.859 1.06 1.335 1.723a81.055 81.055 0 0 1 2.832 4.225c.45.722.85 1.394 1.202 2.017V6H21v12h-1.66z" id="EN"/></g></g></symbol><symbol id="icon_menu" viewBox="0 0 24 24"><g id="Symbols" fill-rule="evenodd"><g id="Menu"><path d="M3 7c0-.552.445-1 .993-1h16.014c.548 0 .993.444.993 1 0 .552-.445 1-.993 1H3.993A.994.994 0 0 1 3 7zm0 5c0-.552.445-1 .993-1h16.014c.548 0 .993.444.993 1 0 .552-.445 1-.993 1H3.993A.994.994 0 0 1 3 12zm0 5c0-.552.445-1 .993-1h16.014c.548 0 .993.444.993 1 0 .552-.445 1-.993 1H3.993A.994.994 0 0 1 3 17z" id="Combined-Shape"/></g></g></symbol><symbol id="icon_refresh" viewBox="0 0 612.035 612.035"><path d="M323.128 56.236l5.646-9.57 40.17-40.169C271.247-13.921 165.482 13.786 89.65 89.646-16.421 195.717-28.355 360.261 53.875 479.49L10.98 522.386l137.7 19.667-19.667-137.7-34.968 34.967c-60.978-96.724-49.322-226.078 34.94-310.34 53.244-53.243 124.486-77.501 194.143-72.744zm258.264 13.743l-137.7-19.667 19.668 137.7 38.25-38.25c78.726 98.31 72.521 242.186-18.583 333.317-61.116 61.117-145.989 84.039-224.882 68.739l-45.65 45.649c105.654 33.799 226.05 8.791 309.895-75.054 112.858-112.858 119.146-291.979 18.805-412.209l40.197-40.225z"/></symbol><symbol id="icon_rus" viewBox="0 0 24 24"><g id="Symbols" fill-rule="evenodd"><g id="rus-w"><path d="M5.909 6c1.522 0 2.687.308 3.495.923.807.615 1.21 1.555 1.21 2.82 0 1.577-.705 2.646-2.117 3.205.193.258.412.57.655.94a27.857 27.857 0 0 1 1.477 2.526c.234.453.442.898.625 1.334H9.107a25.404 25.404 0 0 0-.625-1.217 41.107 41.107 0 0 0-.677-1.191 28.467 28.467 0 0 0-1.302-2.006 4.758 4.758 0 0 1-.366.017H4.92v4.397H3V6.285a9.38 9.38 0 0 1 1.492-.226C5.02 6.019 5.492 6 5.91 6zm.137 1.83c-.406 0-.782.016-1.127.05v3.76h.837c.467 0 .879-.029 1.234-.085a2.41 2.41 0 0 0 .89-.302c.24-.145.42-.341.541-.587.122-.246.183-.56.183-.94 0-.358-.06-.66-.183-.906a1.44 1.44 0 0 0-.525-.588 2.338 2.338 0 0 0-.815-.31 5.405 5.405 0 0 0-1.035-.093zM16.812 18c-.72 0-1.34-.115-1.858-.344a3.438 3.438 0 0 1-1.286-.965c-.34-.414-.592-.9-.754-1.46a6.604 6.604 0 0 1-.244-1.846V6.117h1.934v7.066c0 .526.053.976.16 1.351.107.375.259.68.457.915s.431.408.7.52c.27.112.571.168.906.168.335 0 .64-.056.914-.168a1.81 1.81 0 0 0 .708-.52c.198-.235.35-.54.457-.915.107-.375.16-.825.16-1.35V6.116H21v7.268c0 .67-.084 1.286-.251 1.846a4.143 4.143 0 0 1-.762 1.46c-.34.414-.774.736-1.302.965-.528.23-1.152.344-1.873.344z" id="RU"/></g></g></symbol><symbol id="icon_search" viewBox="0 0 24 24"><g id="Symbols" fill-rule="evenodd"><g id="searche"><path d="M17.13 15.241l3.342 3.343-2.121 2.121-3.392-3.392A7.19 7.19 0 0 1 6.106 6.106a7.19 7.19 0 0 1 11.023 9.135zm-9.67-.323a5.272 5.272 0 1 0 7.456-7.456 5.272 5.272 0 0 0-7.455 7.456z" id="Combined-Shape"/></g></g></symbol><symbol id="icon_star" viewBox="0 0 39 37"><path fill-rule="evenodd" d="M19.5 2.501l5.603 10.056 11.395 2.166-7.933 8.382 1.44 11.394L19.5 29.623 8.995 34.499l1.439-11.394-7.932-8.382 11.395-2.166L19.5 2.501"/></symbol></svg>