<svg width="99" height="19" viewBox="0 0 99 19" xmlns="http://www.w3.org/2000/svg"><title>136BED94-6C9C-4807-889C-E9F8A52A4956</title><g fill="#FFF" fill-rule="evenodd" opacity=".8"><path d="M16.186 1.757V17.5h3.508V1.756zm74.429 12.365v-2.88h6.693v-3.34h-6.693v-2.84h8v-3.34h-11.51v15.742h11.509v-3.342zm-46.132-12.4H31.165v3.34h8.328l-8.263 9.141-.055.062v3.2h13.308v-3.343h-8.32l8.32-9.192zm38.392 0H79.6v9.919l-7.538-9.834-.068-.085H68.61v15.742h3.494v-9.92l7.539 9.835.066.085h3.385V1.722zM11.522 10.55c-.412-.541-.968-.999-1.656-1.363a3.872 3.872 0 0 0 1.133-1.254c.34-.606.514-1.317.514-2.113 0-1.316-.509-2.336-1.512-3.035C9.03 2.11 7.69 1.763 6.018 1.757H.248V17.5h6.344c1.592 0 2.942-.38 4.014-1.133 1.093-.767 1.648-1.978 1.648-3.597 0-.833-.246-1.58-.732-2.22zM3.756 5.101h2.737c.461 0 .869.21 1.14.535l.023.026c.199.249.322.557.322.897 0 .806-.665 1.46-1.485 1.46H3.756V5.1zm3.533 9.16v.01H3.756v-2.919H7.29v.01c.776.049 1.391.676 1.391 1.45 0 .774-.615 1.4-1.39 1.45zm56.895-9a9.182 9.182 0 0 0-3.267-3.218 8.68 8.68 0 0 0-4.446-1.2 8.686 8.686 0 0 0-4.446 1.2 8.993 8.993 0 0 0-3.243 3.22 8.44 8.44 0 0 0-1.197 4.352c0 1.576.402 3.049 1.197 4.377a8.9 8.9 0 0 0 3.233 3.176 8.813 8.813 0 0 0 4.456 1.175 8.824 8.824 0 0 0 4.444-1.175 9.055 9.055 0 0 0 3.268-3.174 8.299 8.299 0 0 0 1.22-4.379 8.34 8.34 0 0 0-1.22-4.354m-7.688 9.77c-2.924 0-5.297-2.435-5.297-5.438 0-3.003 2.373-5.437 5.297-5.437 2.924 0 5.294 2.434 5.294 5.437s-2.37 5.438-5.294 5.438m-32.787 2.433h3.445V14.02h-3.445z"/><path d="M6.419 8.02H1.076v3.342h5.343zm-.431 6.242H1.517V17.5h4.471z"/></g></svg>