<svg id="Слой_1" xmlns="http://www.w3.org/2000/svg" viewBox="0 0 128 128" enable-background="new 0 0 128 128"><style>.st0{fill:none}.st1{filter:url(#Adobe_OpacityMaskFilter)}.st2{fill:#fff}.st3{mask:url(#mask-2);fill:url(#Fill-1_1_)}.st4{filter:url(#Adobe_OpacityMaskFilter_1_)}.st5{mask:url(#mask-5);fill:url(#Fill-4_1_)}.st6{filter:url(#Adobe_OpacityMaskFilter_2_)}.st7{mask:url(#mask-8);fill:url(#Fill-7_1_)}.st8{filter:url(#Adobe_OpacityMaskFilter_3_)}.st9{mask:url(#mask-11);fill:url(#Fill-10_1_)}.st10{filter:url(#Adobe_OpacityMaskFilter_4_)}.st11{mask:url(#mask-14);fill:url(#Fill-13_1_)}.st12{filter:url(#Adobe_OpacityMaskFilter_5_)}.st13{mask:url(#mask-17);fill:url(#Fill-16_1_)}</style><title>8EE582A6-DD05-44E7-A393-8679C5379E17</title><g id="Site-v3.1"><g id="Site_prod" transform="translate(-396 -260)"><g id="Group_1_" transform="translate(364 104)"><g id="Group-4" transform="translate(0 80)"><g id="Group-6_1_" transform="translate(0 52)"><g id="BIG_ICON" transform="translate(32 24)"><path id="Rectangle-3" class="st0" d="M0 0h128v128H0z"/><g id="Group" transform="translate(3 7)"><g id="Group-3" transform="translate(3 15.289)"><defs><filter id="Adobe_OpacityMaskFilter" filterUnits="userSpaceOnUse" x=".2" y=".2" width="101" height="98.3"><feColorMatrix values="1 0 0 0 0 0 1 0 0 0 0 0 1 0 0 0 0 0 1 0"/></filter></defs><mask maskUnits="userSpaceOnUse" x=".2" y=".2" width="101" height="98.3" id="mask-2"><g class="st1"><path id="path-1" class="st2" d="M.2 49.4c0 27.2 22.6 49.2 50.5 49.2s50.5-22 50.5-49.2C101.2 22.2 78.6.2 50.7.2S.2 22.2.2 49.4"/></g></mask><linearGradient id="Fill-1_1_" gradientUnits="userSpaceOnUse" x1="-243.732" y1="435.236" x2="-244.439" y2="434.51" gradientTransform="matrix(100.959 0 0 -98.331 24696.037 42808.082)"><stop offset="0" stop-color="#e6f1f6"/><stop offset="1" stop-color="#c0e3f2"/></linearGradient><path id="Fill-1" class="st3" d="M.2 49.4c0 27.2 22.6 49.2 50.5 49.2s50.5-22 50.5-49.2C101.2 22.2 78.6.2 50.7.2S.2 22.2.2 49.4"/></g><g id="Group-6" transform="translate(0 20.289)"><defs><filter id="Adobe_OpacityMaskFilter_1_" filterUnits="userSpaceOnUse" x=".9" y=".4" width="50.2" height="79.2"><feColorMatrix values="1 0 0 0 0 0 1 0 0 0 0 0 1 0 0 0 0 0 1 0"/></filter></defs><mask maskUnits="userSpaceOnUse" x=".9" y=".4" width="50.2" height="79.2" id="mask-5"><g class="st4"><path id="path-4" class="st2" d="M1.4 35.4l-.5 2.7 14.3 14c1.6 1.5 2.5 3.7 2.5 5.9v8.1c0 2.8 1.1 5.5 3.2 7.5l.2.2 4.6 4.4c2.8 2.7 7.4.7 7.4-3.1V51.2c0-1 1.1-1.4 1.8-.8 2.2 2.2 5.8 2.2 8 0l6.5-6.4c2.3-2.3 2.3-6 0-8.2l-7.3-7.1 2.8-2.8c2-1.9 2-5.1 0-7.1L25.9.4C13.2 8 4.1 20.6 1.4 35.4"/></g></mask><linearGradient id="Fill-4_1_" gradientUnits="userSpaceOnUse" x1="-239.252" y1="428.667" x2="-240.531" y2="427.856" gradientTransform="matrix(50.2265 0 0 -79.1526 12015.197 33998.75)"><stop offset="0" stop-color="#62b2d7"/><stop offset="1" stop-color="#1692d1"/></linearGradient><path id="Fill-4" class="st5" d="M1.4 35.4l-.5 2.7 14.3 14c1.6 1.5 2.5 3.7 2.5 5.9v8.1c0 2.8 1.1 5.5 3.2 7.5l.2.2 4.6 4.4c2.8 2.7 7.4.7 7.4-3.1V51.2c0-1 1.1-1.4 1.8-.8 2.2 2.2 5.8 2.2 8 0l6.5-6.4c2.3-2.3 2.3-6 0-8.2l-7.3-7.1 2.8-2.8c2-1.9 2-5.1 0-7.1L25.9.4C13.2 8 4.1 20.6 1.4 35.4"/></g><g id="Group-9" transform="translate(56 17.289)"><defs><filter id="Adobe_OpacityMaskFilter_2_" filterUnits="userSpaceOnUse" x=".1" y=".1" width="50.5" height="94.7"><feColorMatrix values="1 0 0 0 0 0 1 0 0 0 0 0 1 0 0 0 0 0 1 0"/></filter></defs><mask maskUnits="userSpaceOnUse" x=".1" y=".1" width="50.5" height="94.7" id="mask-8"><g class="st6"><path id="path-7" class="st2" d="M12.2 6.8c-2.7 2.6-2.7 7 0 9.7l18.5 18.1c2 2 5.2 2 7.3 0 .9-.8 2.2-.8 3.1 0l3.1 3c1.7 1.6 1.7 4.3 0 5.9L36.6 51c-1.6 1.5-3.7 2.3-5.9 2.2l-11.8-.5c-2.7-.1-5.3.9-7.2 2.7l-8.6 8.4C1.2 65.6.2 68.1.2 70.7v6.9c0 3.2 1.6 6.3 4.3 8l13.9 9.3h.1c3.5-1.4 6.7-3.2 9.8-5.3l-.2-.3V85c0-2 .8-3.9 2.2-5.3l6.2-6c1.7-1.7 2.7-4 2.7-6.4v-9.7l11.4-11.1C50.2 25.7 37.3 8 19 .1c-1.7 1.7-4.4 4.3-6.8 6.7"/></g></mask><linearGradient id="Fill-7_1_" gradientUnits="userSpaceOnUse" x1="-296.225" y1="431.966" x2="-296.361" y2="431.893" gradientTransform="matrix(50.499 0 0 -94.716 14908.832 41032.621)"><stop offset="0" stop-color="#63b3d8"/><stop offset="1" stop-color="#63b3d8"/></linearGradient><path id="Fill-7" class="st7" d="M12.2 6.8c-2.7 2.6-2.7 7 0 9.7l18.5 18.1c2 2 5.2 2 7.3 0 .9-.8 2.2-.8 3.1 0l3.1 3c1.7 1.6 1.7 4.3 0 5.9L36.6 51c-1.6 1.5-3.7 2.3-5.9 2.2l-11.8-.5c-2.7-.1-5.3.9-7.2 2.7l-8.6 8.4C1.2 65.6.2 68.1.2 70.7v6.9c0 3.2 1.6 6.3 4.3 8l13.9 9.3h.1c3.5-1.4 6.7-3.2 9.8-5.3l-.2-.3V85c0-2 .8-3.9 2.2-5.3l6.2-6c1.7-1.7 2.7-4 2.7-6.4v-9.7l11.4-11.1C50.2 25.7 37.3 8 19 .1c-1.7 1.7-4.4 4.3-6.8 6.7"/></g><g id="Group-12" transform="translate(56 17.289)"><defs><filter id="Adobe_OpacityMaskFilter_3_" filterUnits="userSpaceOnUse" x=".1" y=".1" width="50.5" height="94.7"><feColorMatrix values="1 0 0 0 0 0 1 0 0 0 0 0 1 0 0 0 0 0 1 0"/></filter></defs><mask maskUnits="userSpaceOnUse" x=".1" y=".1" width="50.5" height="94.7" id="mask-11"><g class="st8"><path id="path-10" class="st2" d="M12.2 6.8c-2.7 2.6-2.7 7 0 9.7l18.5 18.1c2 2 5.2 2 7.3 0 .9-.8 2.2-.8 3.1 0l3.1 3c1.7 1.6 1.7 4.3 0 5.9L36.6 51c-1.6 1.5-3.7 2.3-5.9 2.2l-11.8-.5c-2.7-.1-5.3.9-7.2 2.7l-8.6 8.4C1.2 65.6.2 68.1.2 70.7v6.9c0 3.2 1.6 6.3 4.3 8l13.9 9.3h.1c3.5-1.4 6.7-3.2 9.8-5.3l-.2-.3V85c0-2 .8-3.9 2.2-5.3l6.2-6c1.7-1.7 2.7-4 2.7-6.4v-9.7l11.4-11.1C50.2 25.7 37.3 8 19 .1c-1.7 1.7-4.4 4.3-6.8 6.7"/></g></mask><linearGradient id="Fill-10_1_" gradientUnits="userSpaceOnUse" x1="-296.361" y1="431.893" x2="-297.352" y2="431.365" gradientTransform="matrix(50.499 0 0 -94.716 14908.832 41032.621)"><stop offset="0" stop-color="#62b2d7"/><stop offset="1" stop-color="#1692d1"/></linearGradient><path id="Fill-10" class="st9" d="M12.2 6.8c-2.7 2.6-2.7 7 0 9.7l18.5 18.1c2 2 5.2 2 7.3 0 .9-.8 2.2-.8 3.1 0l3.1 3c1.7 1.6 1.7 4.3 0 5.9L36.6 51c-1.6 1.5-3.7 2.3-5.9 2.2l-11.8-.5c-2.7-.1-5.3.9-7.2 2.7l-8.6 8.4C1.2 65.6.2 68.1.2 70.7v6.9c0 3.2 1.6 6.3 4.3 8l13.9 9.3h.1c3.5-1.4 6.7-3.2 9.8-5.3l-.2-.3V85c0-2 .8-3.9 2.2-5.3l6.2-6c1.7-1.7 2.7-4 2.7-6.4v-9.7l11.4-11.1C50.2 25.7 37.3 8 19 .1c-1.7 1.7-4.4 4.3-6.8 6.7"/></g><g id="Group-15" transform="translate(56 17.289)"><defs><filter id="Adobe_OpacityMaskFilter_4_" filterUnits="userSpaceOnUse" x=".1" y=".1" width="50.5" height="94.7"><feColorMatrix values="1 0 0 0 0 0 1 0 0 0 0 0 1 0 0 0 0 0 1 0"/></filter></defs><mask maskUnits="userSpaceOnUse" x=".1" y=".1" width="50.5" height="94.7" id="mask-14"><g class="st10"><path id="path-13" class="st2" d="M12.2 6.8c-2.7 2.6-2.7 7 0 9.7l18.5 18.1c2 2 5.2 2 7.3 0 .9-.8 2.2-.8 3.1 0l3.1 3c1.7 1.6 1.7 4.3 0 5.9L36.6 51c-1.6 1.5-3.7 2.3-5.9 2.2l-11.8-.5c-2.7-.1-5.3.9-7.2 2.7l-8.6 8.4C1.2 65.6.2 68.1.2 70.7v6.9c0 3.2 1.6 6.3 4.3 8l13.9 9.3h.1c3.5-1.4 6.7-3.2 9.8-5.3l-.2-.3V85c0-2 .8-3.9 2.2-5.3l6.2-6c1.7-1.7 2.7-4 2.7-6.4v-9.7l11.4-11.1C50.2 25.7 37.3 8 19 .1c-1.7 1.7-4.4 4.3-6.8 6.7"/></g></mask><linearGradient id="Fill-13_1_" gradientUnits="userSpaceOnUse" x1="-297.352" y1="431.365" x2="-297.616" y2="431.224" gradientTransform="matrix(50.499 0 0 -94.716 14908.832 41032.621)"><stop offset="0" stop-color="#1692d1"/><stop offset="1" stop-color="#1692d1"/></linearGradient><path id="Fill-13" class="st11" d="M12.2 6.8c-2.7 2.6-2.7 7 0 9.7l18.5 18.1c2 2 5.2 2 7.3 0 .9-.8 2.2-.8 3.1 0l3.1 3c1.7 1.6 1.7 4.3 0 5.9L36.6 51c-1.6 1.5-3.7 2.3-5.9 2.2l-11.8-.5c-2.7-.1-5.3.9-7.2 2.7l-8.6 8.4C1.2 65.6.2 68.1.2 70.7v6.9c0 3.2 1.6 6.3 4.3 8l13.9 9.3h.1c3.5-1.4 6.7-3.2 9.8-5.3l-.2-.3V85c0-2 .8-3.9 2.2-5.3l6.2-6c1.7-1.7 2.7-4 2.7-6.4v-9.7l11.4-11.1C50.2 25.7 37.3 8 19 .1c-1.7 1.7-4.4 4.3-6.8 6.7"/></g><g id="Group-18" transform="translate(96 .289)"><defs><filter id="Adobe_OpacityMaskFilter_5_" filterUnits="userSpaceOnUse" x=".4" y=".9" width="25.4" height="24.8"><feColorMatrix values="1 0 0 0 0 0 1 0 0 0 0 0 1 0 0 0 0 0 1 0"/></filter></defs><mask maskUnits="userSpaceOnUse" x=".4" y=".9" width="25.4" height="24.8" id="mask-17"><g class="st12"><path id="path-16" class="st2" d="M.4 13.3c0 6.8 5.7 12.4 12.7 12.4 7 0 12.7-5.5 12.7-12.4C25.8 6.5 20.1.9 13.1.9 6.1.9.4 6.4.4 13.3"/></g></mask><linearGradient id="Fill-16_1_" gradientUnits="userSpaceOnUse" x1="-329.51" y1="440.362" x2="-330.611" y2="439.232" gradientTransform="matrix(25.418 0 0 -24.756 8401.512 10901.95)"><stop offset="0" stop-color="#e6f1f6"/><stop offset="1" stop-color="#c0e3f2"/></linearGradient><path id="Fill-16" class="st13" d="M.4 13.3c0 6.8 5.7 12.4 12.7 12.4 7 0 12.7-5.5 12.7-12.4C25.8 6.5 20.1.9 13.1.9 6.1.9.4 6.4.4 13.3"/></g></g></g></g></g></g></g></g></svg>