<svg width="172" height="176" viewBox="0 0 172 176" xmlns="http://www.w3.org/2000/svg" xmlns:xlink="http://www.w3.org/1999/xlink"><title>985E4526-EF18-4820-A1BF-F0D540ADD1F6</title><defs><linearGradient x1="-19.915%" y1="105.345%" x2="111.624%" y2="1.264%" id="a"><stop stop-color="#214568" offset="0%"/><stop stop-color="#2F6394" offset="95.67%"/></linearGradient><linearGradient x1="0%" y1="49.687%" x2="99.92%" y2="49.687%" id="b"><stop stop-color="#63B2D7" offset="0%"/><stop stop-color="#0093D7" offset="100%"/></linearGradient><linearGradient x1="0%" y1="49.687%" y2="49.687%" id="c"><stop stop-color="#63B2D7" offset="0%"/><stop stop-color="#0093D7" offset="100%"/></linearGradient><circle id="d" cx="41.563" cy="40.781" r="40.156"/><linearGradient x1=".288%" y1="49.977%" x2="100.085%" y2="49.977%" id="f"><stop stop-color="#214568" offset="0%"/><stop stop-color="#2F6394" offset="95.67%"/></linearGradient><linearGradient x1="-.122%" y1="49.977%" x2="99.675%" y2="49.977%" id="g"><stop stop-color="#214568" offset="0%"/><stop stop-color="#2F6394" offset="95.67%"/></linearGradient><linearGradient x1="-.047%" y1="50.046%" x2="100.105%" y2="50.046%" id="h"><stop stop-color="#214568" offset="0%"/><stop stop-color="#2F6394" offset="95.67%"/></linearGradient><linearGradient x1=".044%" y1="50.078%" x2="100.196%" y2="50.078%" id="i"><stop stop-color="#214568" offset="0%"/><stop stop-color="#2F6394" offset="95.67%"/></linearGradient><linearGradient x1="-.099%" y1="50.008%" x2="99.698%" y2="50.008%" id="j"><stop stop-color="#214568" offset="0%"/><stop stop-color="#2F6394" offset="95.67%"/></linearGradient><linearGradient x1=".31%" y1="50.008%" x2="100.107%" y2="50.008%" id="k"><stop stop-color="#214568" offset="0%"/><stop stop-color="#2F6394" offset="95.67%"/></linearGradient><linearGradient x1=".174%" y1="49.998%" x2="99.992%" y2="49.998%" id="l"><stop stop-color="#63B2D7" offset="0%"/><stop stop-color="#0093D7" offset="100%"/></linearGradient><linearGradient x1="-.005%" y1="49.991%" x2="99.942%" y2="49.991%" id="m"><stop stop-color="#63B3D6" offset="0%"/><stop stop-color="#0093D7" offset="100%"/></linearGradient></defs><g transform="translate(-12 -12)" fill="none" fill-rule="evenodd"><path fill="url(#a)" fill-rule="nonzero" d="M150 181.25H12.656V12.656H150v144.375z"/><path fill="url(#b)" fill-rule="nonzero" d="M43.75 31.406h77.5V43.75h-77.5z"/><path fill="url(#c)" fill-rule="nonzero" d="M56.25 56.406h37.5V68.75h-37.5zm0 50h34.375v12.344H56.25zm-12.5 25h40.625v12.344H43.75zm25-50h37.5V93.75h-37.5z"/><circle fill="#17212D" fill-rule="nonzero" cx="124.375" cy="129.844" r="40.156"/><g transform="translate(82.813 89.063)"><mask id="e" fill="#fff"><use xlink:href="#d"/></mask><use fill="#17212D" fill-rule="nonzero" xlink:href="#d"/><g mask="url(#e)" fill-rule="nonzero"><path fill="url(#f)" d="M69.688 43.906h-11.72V21.875l-7.187-2.969L58.438.625l11.25 2.188z" transform="translate(-1.563 42.188)"/><path fill="url(#g)" d="M99.375 43.906H87.5V21.875l-7.031-2.969 7.5-18.281 11.406 2.188z" transform="translate(-1.563 42.188)"/><path d="M22.188 44.219C10.313 44.219.78 34.53.78 22.812S10.468 1.406 22.187 1.406c11.875 0 21.406 9.688 21.406 21.407 0 11.718-9.532 21.406-21.407 21.406zm0-31.094c-5.313 0-9.688 4.375-9.688 9.688 0 5.312 4.375 9.687 9.688 9.687 5.312 0 9.687-4.375 9.687-9.688 0-5.312-4.375-9.687-9.688-9.687z" fill="url(#h)" transform="translate(-1.563 42.188)"/></g><g mask="url(#e)" fill-rule="nonzero"><path d="M82.031 44.844c-11.875 0-21.406-9.688-21.406-21.407 0-11.718 9.688-21.406 21.406-21.406 11.875 0 21.406 9.688 21.406 21.407 0 11.718-9.53 21.406-21.406 21.406zm0-31.094c-5.312 0-9.687 4.375-9.687 9.688 0 5.312 4.375 9.687 9.687 9.687 5.313 0 9.688-4.375 9.688-9.688 0-5.312-4.219-9.687-9.688-9.687z" fill="url(#i)" transform="translate(-1.563 -10.938)"/><path fill="url(#j)" d="M19.219 44.531H7.344V22.5L.312 19.687l7.5-18.437L19.22 3.438z" transform="translate(-1.563 -10.938)"/><path fill="url(#k)" d="M48.75 44.531H37.031V22.5l-7.187-2.813L37.5 1.25l11.25 2.188z" transform="translate(-1.563 -10.938)"/></g></g><path fill="url(#l)" fill-rule="nonzero" d="M175.469 187.5l-29.688-29.844 8.125-7.969 29.688 29.844z"/><path d="M125.156 175.625c-26.094 0-47.344-21.25-47.344-47.344s21.25-47.344 47.344-47.344 47.344 21.25 47.344 47.344-21.25 47.344-47.344 47.344zm0-83.438c-19.844 0-35.937 16.094-35.937 36.094s16.094 36.094 35.937 36.094c19.844 0 35.938-16.094 35.938-36.094S145 92.187 125.156 92.187z" fill="url(#m)" fill-rule="nonzero"/></g></svg>