<svg width="85" height="85" viewBox="0 0 85 85" xmlns="http://www.w3.org/2000/svg"><title>3530A7BA-042D-42D0-8B37-2498EFDD00AB</title><g fill="#C8D4E1" fill-rule="evenodd"><path d="M62.878 42.375h-1.5a18.941 18.941 0 0 1-5.565 13.435 18.95 18.95 0 0 1-13.437 5.565 18.942 18.942 0 0 1-13.435-5.565 18.941 18.941 0 0 1-5.565-13.435 18.942 18.942 0 0 1 5.565-13.437 18.942 18.942 0 0 1 13.435-5.565 18.95 18.95 0 0 1 13.437 5.565 18.942 18.942 0 0 1 5.565 13.437h3c-.001-12.152-9.85-22-22.002-22-12.153 0-21.999 9.848-22 22 .001 12.15 9.847 21.999 22 22 12.152-.001 22-9.85 22.002-22h-1.5z"/><path d="M74.465 19.55a39.174 39.174 0 0 1 7.284 22.825c0 10.877-4.402 20.71-11.53 27.841-7.131 7.129-16.967 11.533-27.845 11.534-10.878-.001-20.71-4.406-27.841-11.534C7.405 63.086 3 53.252 2.999 42.375c.002-10.878 4.406-20.712 11.534-27.843C21.663 7.404 31.496 3 42.374 2.998a39.209 39.209 0 0 1 21.966 6.69L66.014 7.2A42.193 42.193 0 0 0 42.374 0C18.971 0 .001 18.97 0 42.375c.002 23.403 18.972 42.374 42.375 42.374 23.406 0 42.375-18.971 42.375-42.374a42.184 42.184 0 0 0-7.84-24.567l-2.444 1.741z"/><path d="M78.62 14.002h-1.5a6.354 6.354 0 0 1-1.865 4.505 6.362 6.362 0 0 1-4.506 1.867 6.353 6.353 0 0 1-4.505-1.867 6.342 6.342 0 0 1-1.866-4.505c0-1.764.711-3.348 1.866-4.506A6.347 6.347 0 0 1 70.75 7.63a6.356 6.356 0 0 1 4.506 1.867 6.358 6.358 0 0 1 1.866 4.506h3c-.002-5.176-4.197-9.372-9.372-9.372s-9.37 4.196-9.37 9.372a9.372 9.372 0 0 0 18.743 0H78.62zM31.43 25.215l5.954 5.766-.004-.004.114.27-.116.27.003-.003-2.18 2.121 3.886 3.784c.14.14.204.308.205.49a.68.68 0 0 1-.207.488L36.6 40.818a.672.672 0 0 1-.477.192.671.671 0 0 1-.474-.193 1.91 1.91 0 0 0-3.24 1.368v9.093l-.04.108-.131.052-.102-.05.001.004-1.732-1.688-.828-.808v-4.113c0-1.25-.506-2.447-1.4-3.318l.003.001-4.456-4.36-2.099 2.143 4.457 4.364.003.003c.313.306.492.724.492 1.167v5.38l1.734 1.691 1.734 1.689.003.001c.61.597 1.423.899 2.19.894a3.205 3.205 0 0 0 2.18-.86 3.132 3.132 0 0 0 .99-2.3v-9.093h-1.094l.745.8a1.11 1.11 0 0 0 .35-.8h-1.095l.745.8-.74-.794v1.084c.28-.001.532-.099.74-.29l-.74-.794v1.084-1.09l-.763.784c.19.191.492.312.764.306v-1.09l-.764.784a3.677 3.677 0 0 0 2.567 1.041 3.68 3.68 0 0 0 2.57-1.04l2.486-2.425a3.686 3.686 0 0 0 0-5.277l-2.78-2.707-1.046 1.075L38.4 34.71l1.074-1.045.003-.003a3.377 3.377 0 0 0-.003-4.834l-.003-.004-5.954-5.764-2.086 2.155zm28.583 8.905l-2.496 2.483 1.056 1.063-1.043-1.077-.339.138-.334-.136-7.05-6.867a1.055 1.055 0 0 1-.323-.76c.003-.286.107-.551.32-.76l.003-.003c.88-.86.984-.915 2.773-2.704l-2.12-2.121c-1.778 1.776-1.805 1.762-2.746 2.676l.003-.003a4.056 4.056 0 0 0-.003 5.824l7.052 6.869a3.467 3.467 0 0 0 2.425.984 3.483 3.483 0 0 0 2.427-.981l2.51-2.498-2.115-2.127zm-8.84 24.99h-.047v1.5l.828-1.249-5.3-3.519a2.172 2.172 0 0 1-.968-1.81v-2.615c0-.588.235-1.148.654-1.557l3.282-3.194a2.173 2.173 0 0 1 1.518-.619l.045.002.007-.325-.031.323.024.002.007-.325-.031.323.061.005h7.464l4.517-5.126-2.252-1.982-3.62 4.107-6.03.002v1.5l.14-1.494c-.145-.014-.249-.01-.301-.01a5.162 5.162 0 0 0-3.612 1.468l-3.28 3.194a5.172 5.172 0 0 0-1.562 3.706v2.614c0 1.733.867 3.352 2.31 4.31l5.677 3.77h.5v-3z"/></g></svg>