<svg xmlns="http://www.w3.org/2000/svg" viewBox="0 0 202.63 150.07"><title>cardlogo_1</title><path d="M59.71 36.82v14.56l-2.74 5 3.15 1.73 8.5-15.45-3.15-1.73-2.17 3.93v-6.23l19.34-14.51a3.13 3.13 0 1 0-2.28-3v.21zm52.16 20.66v-3.6h-9.93l-11.81-14.8a3.11 3.11 0 0 0 .15-.92 3.15 3.15 0 1 0-3.15 3.14h.16l.2.26-13.38 13.35-8.24 1.42-9 16.42h-4.75v3.59h38.7v-3.59h-7.86l-2.28-4.16h.14L96.57 52.9l1.13 1.42-8.21 8.21 1.27 1.27 8-8 1.13 1.41-5.31 5.32 1.27 1.27 6.28-6.27h2.54l-5 5 1.27 1.27 6.28-6.27h4.66zm-18.71-8.84L78.37 63.41l-6.12 1 4.57 8.34H65.06l5.45-9.87 7.06-1.21 14.46-14.44zm-25 10.93l7.65-1.32 13.9-13.88 1.14 1.43-14.2 14.18-7.35 1.26-6.35 11.5h-2zm11.74 7.3l-2.06.28 3.06 5.59h-2.08l-3.82-7 4.19-.68 15.05-15 1.13 1.41zm26.56-41.29l9.49-6.23 7.51 6 2.25-2.8-9.55-7.67-11.69 7.66a3.2 3.2 0 1 0 2 3" fill="#1896cc"/><path d="M161.33 31.43v-3.59h-10.41L121.71 4.15a3.59 3.59 0 1 0-7.14-.56v.25l-24.2 16.4 2 3 24.2-16.39a3.57 3.57 0 0 0 1.56.37 3.62 3.62 0 0 0 1.28-.24l25.77 20.9h-8.16v3.59h10.8l-7.55 22.45h-7.7v3.59h10.25l6.34-18.86h8.55v-3.59h-7.35l1.21-3.59h9.74z" fill="#1896cc"/><path d="M128.62 52.65l-1.27-1.27-4.14 4.15-1.2-1.35 5.93-5.93 2.29 2.29 2.54-2.54-8.85-8.84-2.54 2.54 2.74 2.74-5.71 5.7-.45-.51a3.52 3.52 0 0 0 .2-1.12 3.6 3.6 0 1 0-3.6 3.59 3.41 3.41 0 0 0 .72-.08l4 4.49-9.16 9.15a3.16 3.16 0 1 0 3.16 3.16 3.08 3.08 0 0 0-.09-.72zm-3.21-7l1.27 1.27-5.86 5.89-1.2-1.34zm1.78 10.96l-10.34 10.33 1.27 1.27 10.34-10.33-1.27-1.27zm-7.8 12.87l1.27 1.27 8.1-8.08-1.28-1.27-8.09 8.08zm9.21-1.58l-1.27-1.27-6.12 6.12h-2.15v3.59h14.42v-3.59h-9.73l4.85-4.85zM56.11 35.03l9.65-7.23-2.16-2.87-11.09 8.31v8.97h3.6v-7.18zM32.83 92.9v32.98h7.23V92.9h-7.23zm153.32 25.9v-6.03h13.79v-7h-13.79v-5.94h16.48v-7h-23.71v32.97h23.71v-7h-16.48zM91.13 92.83H63.69v7h17.15l-17.02 19.14-.11.13v6.7h27.42v-7H73.99l17.14-19.25v-6.72zm79.08 0h-6.75v20.78l-15.52-20.6-.14-.18h-6.98v32.97h7.2v-20.78l15.53 20.61.14.17h6.97V92.83h-.45zM23.23 111.32a10.27 10.27 0 0 0-3.41-2.86 8.06 8.06 0 0 0 2.33-2.63 9 9 0 0 0 1.06-4.43 7.34 7.34 0 0 0-3.11-6.36 14.12 14.12 0 0 0-8.2-2.15H0v33h13.07a13.93 13.93 0 0 0 8.27-2.36c2.25-1.61 3.39-4.14 3.39-7.53a7.6 7.6 0 0 0-1.5-4.68zm-16-11.41h5.59a3 3 0 0 1 2.35 1.12v.05a3 3 0 0 1 .66 1.88 3.06 3.06 0 0 1-3.01 3.06H7.23v-6.11zm7.28 19.19H7.23v-6.11h7.28a3.05 3.05 0 0 1 0 6.1zm117.2-18.86a19.07 19.07 0 0 0-6.73-6.74 17.94 17.94 0 0 0-18.32 0 18.68 18.68 0 0 0-6.68 6.75 18.18 18.18 0 0 0 0 18.28 18.48 18.48 0 0 0 6.66 6.65 18.29 18.29 0 0 0 18.33 0 18.8 18.8 0 0 0 6.73-6.65 17.89 17.89 0 0 0 0-18.29m-15.84 20.46a11.4 11.4 0 1 1 10.96-11.39 11.16 11.16 0 0 1-10.91 11.39m-67.58 5.1h7.09v-7.21h-7.09v7.21z" fill="#1896cc"/><path fill="#1896cc" d="M12.71 106.02h-11v7h11v-7zm-.88 13.08H2.62v6.78h9.21v-6.78zm53.99 24.66a3.74 3.74 0 0 1-1.2 2.5 3.91 3.91 0 0 1-2.68.88 3.61 3.61 0 0 1-2.91-1.3 5.22 5.22 0 0 1-1.09-3.47v-1a5.8 5.8 0 0 1 .51-2.5 3.83 3.83 0 0 1 1.44-1.66 4 4 0 0 1 2.16-.58 3.7 3.7 0 0 1 2.61.91 3.81 3.81 0 0 1 1.14 2.52h-1.36a2.94 2.94 0 0 0-.76-1.78 2.31 2.31 0 0 0-1.64-.55 2.41 2.41 0 0 0-2 1 4.36 4.36 0 0 0-.74 2.72v1a4.51 4.51 0 0 0 .7 2.65 2.25 2.25 0 0 0 1.94 1 2.6 2.6 0 0 0 1.72-.51 2.82 2.82 0 0 0 .8-1.77h1.36zm4.1 1.34l1.77-5.69h1.39l-3.06 8.76a2.41 2.41 0 0 1-2.26 1.89h-.25l-.48-.09v-1.05h.35a1.72 1.72 0 0 0 1-.27 1.93 1.93 0 0 0 .61-1l.29-.77-2.71-7.51h1.42zm10.76-1.81a4.52 4.52 0 0 1-.8 2.8 2.56 2.56 0 0 1-2.15 1.06 2.65 2.65 0 0 1-2.23-1l-.06.88h-1.19v-10.81h1.3v4a2.64 2.64 0 0 1 2.17-1 2.58 2.58 0 0 1 2.17 1 4.64 4.64 0 0 1 .79 2.86v.11zm-1.3-.15a3.5 3.5 0 0 0-.51-2 1.7 1.7 0 0 0-1.48-.73 1.91 1.91 0 0 0-1.85 1.2v3.28a2 2 0 0 0 1.86 1.19 1.69 1.69 0 0 0 1.45-.72 3.71 3.71 0 0 0 .53-2.22zm6.09 4a3.32 3.32 0 0 1-2.51-1 3.75 3.75 0 0 1-1-2.71v-.24a4.57 4.57 0 0 1 .43-2 3.37 3.37 0 0 1 1.21-1.39 3 3 0 0 1 1.68-.5 2.85 2.85 0 0 1 2.31 1 4.23 4.23 0 0 1 .82 2.79v.44h-5.15a2.69 2.69 0 0 0 .66 1.81 2.06 2.06 0 0 0 1.6.69 2.26 2.26 0 0 0 1.17-.28 3 3 0 0 0 .84-.74l.79.62a3.2 3.2 0 0 1-2.87 1.47m-.16-6.81a1.73 1.73 0 0 0-1.32.57 2.78 2.78 0 0 0-.66 1.6h3.81v-.1a2.46 2.46 0 0 0-.53-1.53 1.63 1.63 0 0 0-1.29-.55m8.32.25a4 4 0 0 0-.64 0 1.71 1.71 0 0 0-1.74 1.09v5.39h-1.3v-7.59h1.26v.88a2 2 0 0 1 1.81-1 1.33 1.33 0 0 1 .58.1v1.13zm5.62 4.46a1 1 0 0 0-.4-.82 3.76 3.76 0 0 0-1.38-.5 6.7 6.7 0 0 1-1.57-.51 2.26 2.26 0 0 1-.86-.7 1.68 1.68 0 0 1-.28-1 2 2 0 0 1 .79-1.58 3.09 3.09 0 0 1 2-.65 3.18 3.18 0 0 1 2.1.67 2.12 2.12 0 0 1 .8 1.7h-1.31a1.17 1.17 0 0 0-.45-.92 1.7 1.7 0 0 0-1.14-.39 1.78 1.78 0 0 0-1.11.31 1 1 0 0 0-.4.81.78.78 0 0 0 .37.71 4.51 4.51 0 0 0 1.35.46 7 7 0 0 1 1.58.52 2.3 2.3 0 0 1 .9.73 1.78 1.78 0 0 1 .29 1 1.94 1.94 0 0 1-.82 1.63 3.43 3.43 0 0 1-2.11.61 3.83 3.83 0 0 1-1.62-.32 2.63 2.63 0 0 1-1.1-.9 2.17 2.17 0 0 1-.4-1.25h1.35a1.34 1.34 0 0 0 .52 1 2 2 0 0 0 1.29.38 2.11 2.11 0 0 0 1.18-.3.92.92 0 0 0 .45-.8m6.13 2.26a3.32 3.32 0 0 1-2.51-1 3.76 3.76 0 0 1-1-2.71v-.24a4.54 4.54 0 0 1 .43-2 3.39 3.39 0 0 1 1.21-1.39 3 3 0 0 1 1.68-.5 2.86 2.86 0 0 1 2.31 1 4.24 4.24 0 0 1 .82 2.79v.44h-5.15a2.71 2.71 0 0 0 .66 1.81 2.06 2.06 0 0 0 1.6.69 2.26 2.26 0 0 0 1.16-.28 2.94 2.94 0 0 0 .84-.74l.79.62a3.19 3.19 0 0 1-2.87 1.47m-.16-6.81a1.73 1.73 0 0 0-1.32.57 2.78 2.78 0 0 0-.66 1.6h3.81v-.1a2.48 2.48 0 0 0-.53-1.53 1.64 1.64 0 0 0-1.29-.55m7.69 5.8a1.87 1.87 0 0 0 1.22-.42 1.49 1.49 0 0 0 .58-1.05h1.23a2.38 2.38 0 0 1-.45 1.24 3 3 0 0 1-1.11.94 3.2 3.2 0 0 1-1.47.35 3.13 3.13 0 0 1-2.47-1 4.12 4.12 0 0 1-.92-2.83v-.22a4.58 4.58 0 0 1 .41-2 3.09 3.09 0 0 1 1.17-1.34 3.31 3.31 0 0 1 1.8-.48 3.06 3.06 0 0 1 2.13.76 2.75 2.75 0 0 1 .9 2h-1.23a1.79 1.79 0 0 0-.56-1.21 1.74 1.74 0 0 0-1.24-.47 1.82 1.82 0 0 0-1.54.71 3.34 3.34 0 0 0-.54 2.06v.25a3.27 3.27 0 0 0 .54 2 1.83 1.83 0 0 0 1.55.71m9.18.17a2.76 2.76 0 0 1-2.23.89 2.37 2.37 0 0 1-1.85-.7 3.06 3.06 0 0 1-.64-2.09v-4.94h1.3v4.91q0 1.72 1.41 1.72a1.94 1.94 0 0 0 2-1.11v-5.52h1.3V147h-1.23zm6.91-5.72a3.94 3.94 0 0 0-.64 0 1.71 1.71 0 0 0-1.73 1.09v5.39h-1.3v-7.59h1.26v.88a2 2 0 0 1 1.81-1 1.33 1.33 0 0 1 .58.1v1.13zm1.2-3.13a.78.78 0 0 1 .19-.53.73.73 0 0 1 .57-.22.74.74 0 0 1 .58.22.77.77 0 0 1 .2.53.74.74 0 0 1-.2.53.75.75 0 0 1-.58.21.74.74 0 0 1-.57-.21.75.75 0 0 1-.19-.53zm.1 9.61h1.3v-7.59h-1.3v7.59zm5.15-9.48v1.84h1.38v1h-1.42v4.72a1 1 0 0 0 .19.69.8.8 0 0 0 .65.23 3.13 3.13 0 0 0 .62-.09v1a3.77 3.77 0 0 1-1 .14 1.62 1.62 0 0 1-1.32-.53 2.26 2.26 0 0 1-.44-1.49v-4.71h-1.38v-1h1.38v-1.8h1.3zm5.38 7.57l1.77-5.69h1.39l-3.06 8.76a2.41 2.41 0 0 1-2.26 1.89h-.25l-.48-.09v-1.05h.35a1.72 1.72 0 0 0 1-.27 1.93 1.93 0 0 0 .61-1l.29-.77-2.71-7.51h1.42z"/></svg>