<svg xmlns="http://www.w3.org/2000/svg"><symbol id="icon_arrow-left-w" viewBox="0 0 24 24"><g id="Symbols" fill-rule="evenodd"><g id="arrow-left_w"><g id="arrow-left"><path d="M16.213 12.968H4v-1.992h12.156L10.84 5.659l1.409-1.41L19.999 12l-7.75 7.75-1.409-1.409 5.373-5.373z" id="Combined-Shape" transform="matrix(-1 0 0 1 24 0)"/></g></g></g></symbol><symbol id="icon_close-w" viewBox="0 0 24 24"><g id="Symbols" fill-rule="evenodd"><g id="close-w"><g id="close"><path d="M12 10.586l5.95-5.95 1.414 1.414-5.95 5.95 5.95 5.95-1.414 1.414-5.95-5.95-5.95 5.95-1.414-1.414 5.95-5.95-5.95-5.95L6.05 4.636l5.95 5.95z" id="Combined-Shape"/></g></g></g></symbol><symbol id="icon_home-outline-w" viewBox="0 0 24 24"><g id="Symbols" fill-rule="evenodd"><g id="home-outline-w"><g id="home-outline"><path d="M9 19v-6h6v6h3v-8.09l-6-6-6 6V19h3zm3-16.91L21.91 12H20v9h-7v-6h-2v6H4v-9H2.09L12 2.09z" id="Shape" fill-rule="nonzero"/></g></g></g></symbol><symbol id="icon_menu-w" viewBox="0 0 24 24"><g id="Symbols" fill-rule="evenodd"><g id="Menu-w"><g id="Menu"><path d="M3 7c0-.552.445-1 .993-1h16.014c.548 0 .993.444.993 1 0 .552-.445 1-.993 1H3.993A.994.994 0 0 1 3 7zm0 5c0-.552.445-1 .993-1h16.014c.548 0 .993.444.993 1 0 .552-.445 1-.993 1H3.993A.994.994 0 0 1 3 12zm0 5c0-.552.445-1 .993-1h16.014c.548 0 .993.444.993 1 0 .552-.445 1-.993 1H3.993A.994.994 0 0 1 3 17z" id="Combined-Shape"/></g></g></g></symbol><symbol id="icon_refresh" viewBox="0 0 612.035 612.035"><path d="M323.128 56.236l5.646-9.57 40.17-40.169C271.247-13.921 165.482 13.786 89.65 89.646-16.421 195.717-28.355 360.261 53.875 479.49L10.98 522.386l137.7 19.667-19.667-137.7-34.968 34.967c-60.978-96.724-49.322-226.078 34.94-310.34 53.244-53.243 124.486-77.501 194.143-72.744zm258.264 13.743l-137.7-19.667 19.668 137.7 38.25-38.25c78.726 98.31 72.521 242.186-18.583 333.317-61.116 61.117-145.989 84.039-224.882 68.739l-45.65 45.649c105.654 33.799 226.05 8.791 309.895-75.054 112.858-112.858 119.146-291.979 18.805-412.209l40.197-40.225z"/></symbol><symbol id="icon_right-w" viewBox="0 0 24 24"><g id="Symbols" fill-rule="evenodd"><g id="right-w"><g id="right" transform="rotate(-90 12 12)"><path d="M12 14.243l5.657-5.657L19.07 10l-5.657 5.657L12 17.07 4.929 10l1.414-1.414L12 14.243z" id="Combined-Shape"/></g></g></g></symbol><symbol id="icon_star" viewBox="0 0 39 37"><path fill-rule="evenodd" d="M19.5 2.501l5.603 10.056 11.395 2.166-7.933 8.382 1.44 11.394L19.5 29.623 8.995 34.499l1.439-11.394-7.932-8.382 11.395-2.166L19.5 2.501"/></symbol><symbol id="icon_window-restore-w" viewBox="0 0 24 24"><g id="Symbols" fill-rule="evenodd"><g id="window-restore-w"><g id="Menu"><g id="window-restore" transform="translate(4 4)" fill-rule="nonzero"><path d="M0 4h4V0h12v12h-4v4H0V4zm12 0v6h2V2H6v2h6zM2 8v6h8V8H2z" id="Shape"/></g></g></g></g></symbol></svg>