<svg width="201" height="37" viewBox="0 0 201 37" xmlns="http://www.w3.org/2000/svg"><title>7A7F0342-8166-409D-863A-F5149EFDA003</title><g fill="#1896CC" fill-rule="evenodd"><path d="M32.85 2.6v32.259h7.12V2.599zm151.054 25.336v-5.9h13.584v-6.845h-13.584V9.374h16.235V2.529h-23.357v32.255h23.357v-6.848zM90.28 2.528H63.248v6.845H80.15l-16.77 18.73-.11.127v6.555h27.008v-6.85H73.395L90.279 9.103zm77.917 0h-6.648v20.325L146.25 2.703l-.136-.175h-6.87v32.257h7.092V14.458l15.3 20.152.135.175h6.869V2.527zM23.385 20.618c-.837-1.11-1.966-2.047-3.363-2.793a7.907 7.907 0 0 0 2.3-2.57c.692-1.241 1.043-2.698 1.043-4.329 0-2.697-1.031-4.786-3.068-6.219-1.972-1.386-4.692-2.094-8.083-2.106v-.002H.501v32.259h12.877c3.232 0 5.972-.78 8.147-2.322 2.22-1.571 3.345-4.052 3.345-7.37 0-1.707-.5-3.239-1.485-4.548zM7.624 9.452h5.553a3 3 0 0 1 2.315 1.096l.046.054a2.95 2.95 0 0 1 .654 1.838c0 1.651-1.35 2.99-3.015 2.99H7.624V9.452zm7.17 18.77v.02h-7.17v-5.98h7.17v.02c1.573.099 2.823 1.384 2.823 2.97 0 1.587-1.25 2.868-2.823 2.97zM130.262 9.78a18.722 18.722 0 0 0-6.631-6.595 17.488 17.488 0 0 0-9.022-2.459 17.5 17.5 0 0 0-9.024 2.46 18.339 18.339 0 0 0-6.58 6.598 17.421 17.421 0 0 0-2.43 8.918c0 3.229.816 6.247 2.43 8.968a18.145 18.145 0 0 0 6.56 6.507c2.748 1.598 5.788 2.41 9.044 2.41 3.224 0 6.257-.812 9.018-2.41a18.46 18.46 0 0 0 6.633-6.503c1.643-2.723 2.477-5.743 2.477-8.972 0-3.165-.834-6.169-2.475-8.922m-15.605 20.019c-5.935 0-10.75-4.99-10.75-11.143 0-6.153 4.815-11.14 10.75-11.14s10.746 4.987 10.746 11.14c0 6.153-4.811 11.143-10.746 11.143m-66.542 4.986h6.992v-7.06h-6.992z"/><path d="M13.027 15.433H2.183v6.847h10.844zm-.874 12.791H3.08v6.634h9.074z"/></g></svg>