<svg xmlns="http://www.w3.org/2000/svg" width="18" height="14" viewBox="0 0 18 14">
  <defs>
    <style>
      .cls-1 {
        fill: #191919;
        fill-rule: evenodd;
      }
    </style>
  </defs>
  <path id="Arrow" class="cls-1" d="M1435.77,65.25h16.46a0.766,0.766,0,1,1,0,1.531h-16.46A0.766,0.766,0,1,1,1435.77,65.25Zm10.76-6.007,6.21,6.175a0.8,0.8,0,0,1-1.13,1.123l-6.21-6.176a0.793,0.793,0,0,1,0-1.122A0.8,0.8,0,0,1,1446.53,59.243Zm0,13.536,6.21-6.176a0.793,0.793,0,0,0,0-1.122,0.8,0.8,0,0,0-1.13,0l-6.21,6.176A0.8,0.8,0,0,0,1446.53,72.779Z" transform="translate(-1435 -59.031)"/>
</svg>
