<svg xmlns="http://www.w3.org/2000/svg" xmlns:xlink="http://www.w3.org/1999/xlink" preserveAspectRatio="xMidYMid" width="27.062" height="28.5" viewBox="0 0 27.062 28.5">
  <defs>
    <style>
      .cls-1 {
        fill: #181818;
        fill-rule: evenodd;
      }
    </style>
  </defs>
  <path d="M26.598,16.095 L14.990,27.703 C14.894,28.154 14.511,28.499 14.031,28.499 L13.031,28.499 C12.556,28.499 12.177,28.161 12.075,27.717 L0.452,16.095 C-0.147,15.497 -0.147,14.525 0.452,13.926 C1.051,13.327 2.021,13.327 2.621,13.926 L12.031,23.336 L12.031,1.000 C12.031,0.447 12.479,-0.000 13.031,-0.000 L14.031,-0.000 C14.583,-0.000 15.031,0.447 15.031,1.000 L15.031,23.324 L24.429,13.926 C25.028,13.327 25.999,13.327 26.598,13.926 C27.198,14.525 27.198,15.497 26.598,16.095 Z" class="cls-1"/>
</svg>
