<svg xmlns="http://www.w3.org/2000/svg" width="12.75" height="17" viewBox="0 0 12.75 17">
  <defs>
    <style>
      .cls-1 {
        fill: #fff;
        fill-rule: evenodd;
      }
    </style>
  </defs>
  <path id="Arrow" class="cls-1" d="M1015.07,679.257l10.13,7.5a0.8,0.8,0,0,1,0,1.365,1.642,1.642,0,0,1-1.84,0l-10.13-7.5a0.8,0.8,0,0,1,0-1.363A1.642,1.642,0,0,1,1015.07,679.257Zm0,16.437,10.13-7.5a0.8,0.8,0,0,0,0-1.364,1.638,1.638,0,0,0-1.84,0l-10.13,7.5a0.8,0.8,0,0,0,0,1.363A1.635,1.635,0,0,0,1015.07,695.694Z" transform="translate(-1012.84 -678.969)"/>
</svg>
