<svg xmlns="http://www.w3.org/2000/svg" width="12" height="14" viewBox="0 0 12 14">
  <defs>
    <style>
      .cls-1 {
        fill: #191919;
        fill-rule: evenodd;
      }
    </style>
  </defs>
  <path id="User_icon" data-name="User icon" class="cls-1" d="M1238,71h-12s-0.03-1.814,0-3a41.007,41.007,0,0,1,3.81-1.524c0.09-.026.11-0.032,0.11-0.411a1.978,1.978,0,0,0-.16-0.908,4.513,4.513,0,0,1-.37-1.217,2.684,2.684,0,0,1-.55-1.266,1.662,1.662,0,0,1,.01-1.063c0.01-.023.02-0.044,0.03-0.069a6.849,6.849,0,0,0-.12-1.492,2.648,2.648,0,0,1,.6-1.975,3.142,3.142,0,0,1,2.34-1.077h0.71a3.161,3.161,0,0,1,2.37,1.077,2.648,2.648,0,0,1,.6,1.975,6.262,6.262,0,0,0-.12,1.495,0.172,0.172,0,0,0,.02.067,1.569,1.569,0,0,1,.02,1.063,2.684,2.684,0,0,1-.55,1.266,4.175,4.175,0,0,1-.38,1.217,2.126,2.126,0,0,0-.26.895c0,0.379.01,0.383,0.11,0.412A40.263,40.263,0,0,1,1238,68v3Z" transform="translate(-1226 -57)"/>
</svg>
